<svg fill-opacity="1" xmlns:xlink="http://www.w3.org/1999/xlink" xlink:href="data:image/png;base64" color-rendering="auto" color-interpolation="auto" text-rendering="auto" stroke="black" stroke-linecap="square" stroke-miterlimit="10" shape-rendering="auto" stroke-opacity="1" fill="lightgrey" stroke-dasharray="none" font-weight="normal" stroke-width="1" xmlns="http://www.w3.org/2000/svg" font-family="&apos;Dialog&apos;" font-style="normal" stroke-linejoin="miter" font-size="12" stroke-dashoffset="0" image-rendering="auto">
  <defs id="genericDefs" />
  <g>
    <g>
      <path d="M236.5312 283.2188 Q236.5312 329.625 203.4844 362.6719 Q170.4375 395.7188 124.0312 395.7188 Q77.625 395.7188 44.5781 362.6719 Q11.5312 329.625 11.5312 283.2188 Q11.5312 236.8125 44.5781 203.7656 Q77.625 170.7188 124.0312 170.7188 Q170.4375 170.7188 203.4844 203.7656 Q236.5312 236.8125 236.5312 283.2188 ZM220.7812 283.2188 Q220.7812 243.2812 192.375 214.875 Q163.9688 186.4688 124.0312 186.4688 Q84.0938 186.4688 55.6875 214.875 Q27.2812 243.2812 27.2812 283.2188 Q27.2812 323.1562 55.6875 351.5625 Q84.0938 379.9688 124.0312 379.9688 Q163.9688 379.9688 192.375 351.5625 Q220.7812 323.1562 220.7812 283.2188 ZM172.9688 209.25 L167.4844 217.5469 Q162.8438 214.4531 159.1875 212.625 L163.5469 203.9062 Q169.1719 206.7188 172.9688 209.25 ZM203.3438 243.7031 L194.625 248.0625 Q192.7969 244.2656 189.7031 239.7656 L198 234.2812 Q200.5312 238.0781 203.3438 243.7031 ZM212.7656 286.0312 Q212.7656 285.6094 212.625 288.7031 L202.7812 288 Q203.0625 283.2188 202.7812 278.4375 L212.625 277.7344 Q212.7656 280.8281 212.7656 280.4062 L212.7656 286.0312 ZM156.0938 227.6719 L154.5469 254.3906 L148.9219 251.1562 L129.5156 284.625 L129.5156 298.8281 L121.3594 298.8281 L120.9375 299.5312 L119.8125 298.8281 L118.5469 298.8281 L118.5469 298.125 L111.5156 294.0469 L118.5469 281.8125 L118.5469 217.6875 L112.0781 217.6875 L124.0312 193.7812 L135.9844 217.6875 L129.5156 217.6875 L129.5156 262.6875 L139.3594 245.6719 L133.7344 242.4375 L156.0938 227.6719 ZM88.875 212.625 Q85.0781 214.4531 80.5781 217.5469 L75.0938 209.25 Q78.8906 206.7188 84.5156 203.9062 L88.875 212.625 ZM203.3438 322.7344 Q200.5312 328.3594 198 332.1562 L189.7031 326.6719 Q192.7969 322.1719 194.625 318.375 L203.3438 322.7344 ZM58.3594 239.7656 Q55.2656 244.2656 53.4375 248.0625 L44.7188 243.7031 Q47.5312 238.0781 50.0625 234.2812 L58.3594 239.7656 ZM172.9688 357.1875 Q169.1719 359.7188 163.5469 362.5312 L159.1875 353.8125 Q162.9844 351.9844 167.4844 348.8906 L172.9688 357.1875 ZM129.5156 371.8125 Q126.5625 371.9531 126.8438 371.9531 L121.2188 371.9531 Q121.5 371.9531 118.5469 371.8125 L119.25 361.9688 Q124.0312 362.25 128.8125 361.9688 L129.5156 371.8125 ZM45.2812 288 L35.4375 288.7031 Q35.2969 285.8906 35.2969 286.1719 L35.2969 280.4062 Q35.2969 280.8281 35.4375 277.7344 L45.2812 278.4375 Q45 283.2188 45.2812 288 ZM58.3594 326.6719 L50.0625 332.1562 Q47.5312 328.3594 44.7188 322.7344 L53.4375 318.375 Q55.2656 322.1719 58.3594 326.6719 ZM88.875 353.8125 L84.5156 362.5312 Q78.8906 359.7188 75.0938 357.1875 L80.5781 348.8906 Q85.0781 351.9844 88.875 353.8125 Z" stroke="none" />
    </g>
  </g>
</svg>
