<?xml version="1.0" standalone="no"?>
<!DOCTYPE svg PUBLIC "-//W3C//DTD SVG 20010904//EN"
 "http://www.w3.org/TR/2001/REC-SVG-20010904/DTD/svg10.dtd">
<svg version="1.0" xmlns="http://www.w3.org/2000/svg"
 width="1280.000000pt" height="1280.000000pt" viewBox="0 0 1280.000000 1280.000000"
 preserveAspectRatio="xMidYMid meet">
<g transform="translate(0.000000,1280.000000) scale(0.100000,-0.100000)"
fill="#414141" stroke="none">
<path d="M6130 12474 c-41 -2 -175 -13 -296 -24 -1621 -147 -3142 -963 -4160
-2230 -758 -944 -1207 -2044 -1325 -3253 -26 -261 -32 -802 -11 -1022 7 -71
15 -157 18 -190 38 -421 168 -979 330 -1427 446 -1232 1283 -2291 2379 -3011
835 -548 1761 -872 2780 -974 252 -25 856 -25 1105 0 1454 145 2738 747 3748
1756 878 877 1466 1999 1686 3216 71 398 91 636 91 1095 -1 336 -10 521 -40
745 -157 1188 -618 2240 -1391 3170 -143 173 -543 571 -724 722 -974 810
-2109 1286 -3354 1404 -203 19 -662 32 -836 23z m800 -210 c2010 -185 3778
-1373 4700 -3156 365 -708 567 -1409 644 -2248 14 -142 18 -601 7 -790 -34
-636 -172 -1254 -414 -1865 -84 -213 -282 -614 -399 -810 -514 -859 -1206
-1550 -2063 -2063 -162 -97 -535 -285 -711 -359 -610 -257 -1297 -418 -1936
-453 -1045 -58 -2030 141 -2953 595 -639 315 -1167 701 -1661 1215 -839 874
-1387 1996 -1568 3205 -48 322 -59 484 -59 865 0 439 23 694 99 1100 63 339
207 822 340 1145 69 167 248 532 335 682 526 911 1271 1656 2182 2182 148 85
514 265 672 330 605 250 1306 409 1940 441 215 11 642 3 845 -16z"/>
<path d="M6140 12094 c-449 -31 -740 -74 -1108 -165 -845 -208 -1619 -602
-2307 -1175 -167 -139 -540 -512 -679 -679 -573 -688 -967 -1462 -1175 -2307
-77 -311 -117 -554 -153 -923 -16 -168 -16 -720 0 -895 60 -644 189 -1177 422
-1745 124 -300 359 -736 547 -1009 766 -1119 1883 -1923 3175 -2285 892 -250
1833 -279 2738 -85 930 200 1784 625 2525 1257 154 131 461 438 592 592 1055
1237 1534 2807 1342 4405 -144 1206 -677 2346 -1507 3223 -480 507 -990 885
-1612 1196 -656 327 -1315 511 -2075 581 -115 11 -630 21 -725 14z m756 -209
c1433 -123 2795 -834 3723 -1940 621 -742 1037 -1632 1205 -2580 30 -165 42
-247 61 -415 30 -267 30 -789 0 -1085 -37 -375 -105 -716 -211 -1062 -340
-1118 -1011 -2083 -1944 -2795 -662 -505 -1477 -867 -2300 -1022 -379 -71
-594 -90 -1030 -90 -450 0 -667 20 -1075 100 -1220 239 -2344 905 -3149 1867
-1029 1231 -1471 2848 -1210 4432 335 2034 1776 3708 3740 4345 467 151 932
235 1459 264 132 7 560 -4 731 -19z"/>
<path d="M6125 11714 c-746 -47 -1420 -225 -2070 -544 -1062 -522 -1905 -1366
-2425 -2425 -497 -1013 -659 -2115 -474 -3225 181 -1091 703 -2103 1488 -2885
783 -780 1781 -1297 2860 -1480 343 -58 483 -69 881 -69 389 -1 484 5 789 50
1481 219 2781 1034 3628 2274 441 645 739 1404 858 2185 42 279 52 406 56 730
7 507 -35 880 -151 1352 -456 1852 -1881 3321 -3727 3843 -286 81 -611 142
-938 175 -147 16 -642 27 -775 19z m568 -195 c1525 -93 2901 -831 3812 -2044
665 -885 1025 -1965 1025 -3075 0 -1384 -552 -2700 -1537 -3660 -224 -219
-388 -357 -621 -523 -866 -616 -1903 -947 -2966 -947 -1230 0 -2412 437 -3346
1236 -146 125 -426 405 -553 553 -1170 1368 -1539 3245 -974 4953 343 1034
1001 1926 1893 2564 746 534 1635 859 2554 934 269 22 471 24 713 9z"/>
<path d="M6190 11333 c-594 -32 -1080 -136 -1600 -340 -1154 -454 -2098 -1332
-2640 -2456 -355 -737 -527 -1586 -481 -2382 6 -110 14 -218 16 -240 92 -840
361 -1590 813 -2265 844 -1259 2212 -2059 3722 -2175 2014 -156 3925 933 4810
2740 362 739 527 1489 506 2305 -3 140 -8 269 -10 285 -2 17 -7 62 -11 100
-39 436 -179 980 -361 1410 -738 1746 -2390 2908 -4288 3015 -165 9 -344 11
-476 3z m680 -208 c672 -73 1264 -258 1830 -571 400 -221 726 -468 1060 -803
302 -302 506 -563 725 -926 84 -140 258 -492 325 -658 299 -746 403 -1557 304
-2357 -76 -609 -284 -1236 -589 -1770 -70 -123 -260 -410 -346 -521 -252 -329
-569 -646 -898 -898 -111 -86 -398 -276 -521 -346 -1057 -602 -2310 -778
-3488 -489 -1328 325 -2444 1201 -3081 2417 -280 532 -445 1089 -518 1737 -24
216 -24 704 0 920 75 671 246 1229 548 1791 219 408 485 764 819 1099 833 835
1899 1313 3105 1394 125 8 586 -4 725 -19z"/>
<path d="M6118 10949 c-297 -20 -558 -61 -843 -134 -220 -56 -330 -91 -548
-177 -955 -375 -1768 -1078 -2282 -1973 -139 -241 -302 -611 -385 -870 -65
-206 -139 -520 -169 -725 -71 -480 -63 -1011 24 -1487 224 -1220 928 -2290
1962 -2981 591 -396 1275 -646 2003 -734 248 -30 772 -32 1005 -5 271 32 519
81 755 147 1048 297 1954 956 2554 1860 414 623 652 1279 743 2045 27 233 25
757 -5 1005 -109 902 -460 1716 -1040 2412 -101 123 -341 368 -477 488 -897
793 -2112 1209 -3297 1129z m742 -204 c942 -103 1800 -493 2507 -1137 147
-135 311 -311 447 -482 551 -690 887 -1546 946 -2416 87 -1274 -372 -2504
-1269 -3401 -1023 -1023 -2487 -1473 -3906 -1203 -697 133 -1357 437 -1911
880 -353 282 -648 604 -899 979 -235 353 -387 662 -516 1045 -615 1843 54
3864 1646 4974 648 451 1444 730 2219 776 185 11 566 3 736 -15z"/>
<path d="M6175 10574 c-320 -24 -522 -56 -800 -125 -1003 -251 -1887 -879
-2460 -1749 -340 -516 -558 -1083 -645 -1674 -38 -256 -44 -352 -44 -626 0
-277 8 -390 45 -634 89 -586 301 -1143 627 -1645 635 -982 1675 -1660 2827
-1846 271 -44 357 -50 685 -49 402 0 640 28 994 115 1502 371 2684 1553 3055
3055 87 354 115 592 115 994 1 328 -5 414 -49 685 -186 1152 -864 2192 -1846
2827 -156 102 -254 157 -448 252 -444 218 -874 342 -1395 402 -125 14 -556 26
-661 18z m650 -209 c1098 -117 2103 -688 2768 -1573 191 -254 377 -581 496
-870 129 -315 232 -706 275 -1048 31 -248 32 -671 1 -931 -75 -649 -304 -1258
-678 -1806 -263 -386 -638 -761 -1024 -1024 -397 -271 -817 -462 -1271 -579
-568 -146 -1208 -163 -1772 -48 -782 161 -1471 529 -2032 1086 -648 645 -1058
1497 -1152 2398 -39 376 -30 710 30 1078 235 1443 1254 2648 2638 3121 307
105 635 176 926 200 74 7 155 13 180 15 93 8 471 -4 615 -19z"/>
<path d="M6170 10193 c-202 -12 -515 -63 -727 -118 -1300 -340 -2323 -1339
-2693 -2629 -307 -1069 -131 -2215 485 -3146 574 -868 1493 -1469 2515 -1644
264 -45 342 -51 655 -51 336 0 458 12 750 71 312 63 599 158 884 295 401 193
729 425 1047 743 602 602 969 1349 1086 2209 19 137 22 210 23 467 0 319 -6
395 -51 660 -108 629 -381 1232 -787 1735 -769 954 -1960 1480 -3187 1408z
m635 -208 c628 -75 1174 -284 1697 -652 454 -319 856 -786 1112 -1292 100
-198 148 -314 216 -521 133 -403 188 -781 177 -1215 -8 -301 -37 -515 -107
-790 -130 -509 -357 -966 -686 -1380 -113 -141 -408 -436 -549 -549 -414 -329
-871 -556 -1380 -686 -275 -70 -489 -99 -790 -107 -434 -11 -812 44 -1215 177
-825 271 -1483 790 -1955 1541 -76 121 -227 421 -280 559 -359 921 -334 1926
71 2821 394 873 1144 1569 2038 1894 324 117 640 186 981 215 149 12 511 4
670 -15z"/>
<path d="M6230 9813 c-341 -23 -592 -69 -875 -160 -1022 -328 -1834 -1122
-2185 -2138 -234 -678 -249 -1409 -43 -2100 106 -358 302 -748 527 -1052 593
-799 1494 -1296 2490 -1374 182 -14 497 -7 676 15 750 92 1462 440 1999 977
264 264 459 535 632 874 103 204 176 387 235 592 43 149 97 411 109 528 4 33
9 71 11 85 13 74 16 452 5 596 -78 997 -575 1897 -1374 2490 -385 285 -870
504 -1329 598 -292 60 -627 87 -878 69z m415 -194 c561 -48 1075 -223 1524
-519 917 -604 1461 -1610 1461 -2701 0 -989 -443 -1906 -1225 -2534 -103 -83
-343 -241 -475 -312 -140 -76 -312 -150 -480 -208 -1291 -442 -2715 -29 -3569
1035 -709 882 -901 2085 -504 3150 264 709 779 1309 1450 1689 532 301 1218
452 1818 400z"/>
<path d="M6163 9430 c-620 -56 -1191 -283 -1663 -660 -135 -108 -362 -335
-470 -470 -512 -640 -743 -1456 -644 -2275 69 -577 312 -1133 692 -1585 96
-115 306 -320 422 -413 428 -344 944 -564 1510 -644 179 -25 604 -25 785 0
1175 164 2128 957 2498 2078 46 139 101 381 124 544 25 181 25 606 0 785 -69
488 -229 910 -498 1310 -194 289 -463 565 -749 770 -402 288 -876 475 -1370
541 -169 22 -490 32 -637 19z m437 -190 c442 -29 889 -170 1274 -402 736 -445
1227 -1190 1352 -2053 20 -142 28 -465 15 -620 -95 -1143 -868 -2121 -1954
-2474 -332 -108 -620 -148 -977 -137 -277 8 -485 42 -740 120 -171 52 -267 91
-451 182 -1184 593 -1801 1930 -1484 3221 257 1046 1078 1856 2125 2096 301
69 530 87 840 67z"/>
<path d="M6171 9050 c-225 -22 -483 -80 -687 -155 -255 -93 -579 -281 -784
-453 -115 -97 -293 -278 -380 -387 -156 -197 -329 -504 -415 -739 -211 -574
-216 -1210 -15 -1789 305 -882 1054 -1541 1965 -1730 220 -46 288 -52 555 -52
276 1 400 15 628 71 349 86 711 262 1002 487 135 105 352 322 457 457 225 291
401 653 487 1002 56 228 70 352 71 628 0 267 -6 335 -52 555 -189 910 -849
1660 -1728 1965 -155 53 -326 95 -495 121 -156 23 -464 33 -609 19z m557 -205
c266 -35 515 -111 757 -230 262 -128 461 -271 671 -482 363 -363 601 -833 686
-1353 18 -110 22 -178 22 -370 1 -250 -8 -345 -51 -540 -102 -467 -325 -872
-668 -1215 -492 -492 -1132 -745 -1825 -722 -435 15 -835 134 -1209 359 -211
128 -473 357 -630 553 -280 348 -465 779 -528 1232 -20 148 -23 469 -4 613 55
436 217 840 477 1190 100 135 359 394 494 494 352 261 779 432 1190 475 58 6
121 13 140 15 69 8 367 -4 478 -19z"/>
<path d="M6185 8670 c-807 -90 -1482 -560 -1830 -1275 -259 -531 -304 -1116
-129 -1673 260 -832 951 -1429 1824 -1577 147 -25 468 -31 619 -11 415 55 775
200 1105 444 130 96 352 318 448 448 244 330 389 690 444 1105 20 151 14 472
-11 619 -170 1000 -929 1752 -1925 1905 -124 19 -431 27 -545 15z m400 -190
c890 -84 1620 -705 1840 -1565 160 -624 24 -1279 -374 -1800 -64 -84 -242
-266 -331 -338 -112 -91 -272 -193 -395 -253 -949 -463 -2087 -154 -2667 725
-353 535 -440 1199 -237 1811 125 379 362 718 679 972 414 332 961 497 1485
448z"/>
<path d="M6215 8289 c-483 -46 -949 -290 -1263 -664 -475 -565 -583 -1351
-277 -2019 170 -372 470 -689 836 -885 648 -345 1459 -279 2042 166 89 68 259
235 334 328 163 203 296 473 358 727 201 827 -164 1681 -901 2106 -331 191
-736 278 -1129 241z m360 -189 c388 -45 731 -204 1005 -467 201 -192 348 -423
439 -686 69 -200 86 -309 86 -547 0 -174 -4 -222 -23 -318 -142 -702 -662
-1222 -1363 -1364 -97 -19 -144 -23 -319 -23 -173 0 -222 4 -317 23 -154 31
-324 92 -474 168 -579 298 -946 934 -916 1586 27 576 342 1102 834 1395 314
187 700 272 1048 233z"/>
<path d="M6270 7913 c-207 -21 -445 -94 -608 -187 -240 -137 -453 -349 -588
-588 -144 -254 -215 -594 -185 -883 40 -378 192 -690 464 -951 211 -204 454
-332 751 -396 136 -30 434 -32 571 -5 218 43 435 135 610 259 114 81 272 239
353 353 124 175 216 392 259 610 27 137 25 435 -5 571 -64 297 -192 540 -396
751 -163 170 -339 289 -544 368 -210 81 -476 119 -682 98z m380 -209 c474 -90
866 -435 1014 -894 53 -164 65 -250 61 -445 -3 -151 -7 -183 -33 -285 -93
-354 -292 -625 -596 -815 -400 -249 -941 -259 -1349 -24 -335 193 -569 514
-648 892 -28 134 -31 380 -6 507 50 254 168 484 339 665 99 105 179 169 298
239 157 93 341 156 516 176 102 11 302 4 404 -16z"/>
<path d="M6230 7525 c-165 -27 -336 -95 -475 -188 -84 -56 -226 -197 -284
-281 -147 -213 -220 -466 -207 -711 32 -596 497 -1057 1091 -1082 669 -28
1210 513 1182 1182 -25 601 -495 1068 -1097 1090 -81 3 -155 0 -210 -10z m296
-186 c321 -44 589 -240 728 -529 60 -124 86 -229 93 -365 7 -134 -7 -228 -51
-358 -48 -141 -113 -244 -226 -357 -113 -113 -216 -178 -357 -226 -130 -44
-224 -58 -358 -51 -136 7 -241 33 -365 93 -503 241 -687 851 -403 1340 62 108
228 272 337 333 187 106 400 148 602 120z"/>
<path d="M6259 7146 c-450 -95 -718 -546 -580 -975 40 -125 99 -221 190 -311
151 -148 326 -220 536 -220 205 0 381 75 531 224 148 148 219 313 223 522 5
208 -69 392 -219 545 -138 140 -313 217 -510 225 -66 2 -129 -2 -171 -10z
m325 -210 c236 -85 386 -293 386 -536 0 -157 -54 -286 -169 -401 -300 -300
-791 -187 -937 216 -113 311 86 666 416 740 90 20 219 12 304 -19z"/>
<path d="M6322 6770 c-62 -13 -157 -67 -198 -113 -20 -22 -50 -69 -67 -106
-27 -58 -31 -76 -31 -151 1 -155 75 -275 212 -342 61 -30 74 -33 162 -33 83 0
103 4 156 28 77 36 154 113 191 192 25 52 28 72 28 155 0 88 -3 101 -33 162
-77 156 -253 243 -420 208z m153 -199 c104 -48 143 -156 94 -259 -51 -105
-198 -136 -286 -59 -110 97 -89 258 42 318 51 24 99 24 150 0z"/>
</g>
</svg>
