<?xml version="1.0" standalone="no"?>
<!DOCTYPE svg PUBLIC "-//W3C//DTD SVG 20010904//EN"
 "http://www.w3.org/TR/2001/REC-SVG-20010904/DTD/svg10.dtd">
<svg version="1.0" xmlns="http://www.w3.org/2000/svg"
 width="1280.000000pt" height="1280.000000pt" viewBox="0 0 1280.000000 1280.000000"
 preserveAspectRatio="xMidYMid meet">
<g transform="translate(0.000000,1280.000000) scale(0.100000,-0.100000)"
fill="#414141" stroke="none">
<path d="M0 12547 l0 -254 24 -11 c37 -17 40 -50 5 -84 l-29 -30 0 -313 c0
-263 2 -314 14 -318 8 -3 22 -17 31 -31 19 -29 8 -61 -25 -71 -19 -6 -20 -15
-20 -322 l0 -315 30 -28 c37 -35 37 -45 0 -80 -27 -25 -30 -35 -30 -85 l0 -57
373 -368 372 -369 888 -1 887 0 0 467 0 466 118 119 117 119 45 -6 c53 -7 102
15 134 58 16 22 21 41 19 86 l-2 57 282 282 282 281 35 -8 c92 -21 169 52 156
148 l-6 45 180 181 180 181 0 257 0 257 -40 0 -40 0 0 -261 0 -261 -155 -155
c-133 -133 -159 -154 -178 -148 -77 25 -123 18 -165 -25 -39 -38 -49 -94 -27
-146 l16 -38 -279 -279 -279 -279 -31 16 c-110 57 -234 -65 -177 -174 l15 -29
-135 -139 -135 -140 0 -319 c0 -176 -3 -368 -7 -426 l-6 -107 -851 0 -851 0
-347 349 c-192 192 -348 355 -348 360 0 6 6 11 13 11 7 0 26 14 43 31 25 27
29 38 29 90 0 64 -1 65 -82 130 -10 7 -13 70 -13 249 l0 239 30 16 c62 32 89
124 54 184 -8 14 -31 36 -50 49 l-34 22 0 239 0 239 35 22 c87 54 87 176 0
230 l-35 22 0 214 c0 184 -2 214 -15 214 -13 0 -15 -35 -15 -253z m3620 -658
c15 -27 5 -66 -19 -79 -50 -26 -103 39 -66 80 24 27 71 26 85 -1z m-760 -749
c11 -11 20 -27 20 -35 0 -20 -36 -55 -57 -55 -23 0 -53 30 -53 53 0 26 28 57
52 57 10 0 27 -9 38 -20z"/>
<path d="M250 11855 l0 -945 1071 0 1072 0 683 683 684 683 0 262 0 262 -40 0
-40 0 0 -263 0 -262 -648 -648 -647 -647 -1028 0 -1027 0 0 910 0 910 -40 0
-40 0 0 -945z"/>
<path d="M540 12773 c0 -21 -8 -32 -32 -44 -98 -48 -101 -182 -5 -232 l37 -19
0 -241 0 -242 -39 -22 c-93 -53 -91 -185 4 -230 l35 -17 2 -260 3 -261 920 -3
919 -2 86 85 c82 81 88 85 114 75 67 -25 141 2 170 64 19 40 20 62 5 106 l-12
32 279 279 c224 225 283 279 299 274 56 -16 84 -16 119 0 78 37 98 136 42 209
l-26 35 0 220 0 221 -37 0 -38 0 3 -132 c2 -73 1 -170 -3 -215 -7 -82 -7 -82
-39 -93 -18 -6 -44 -22 -57 -36 -21 -22 -24 -36 -24 -95 l0 -69 -280 -280
-280 -280 -35 10 c-98 28 -195 -73 -162 -168 10 -28 6 -33 -57 -96 l-67 -66
-882 0 -882 0 0 228 0 228 29 22 c62 45 65 138 6 195 l-35 34 0 250 0 249 35
34 c59 57 56 142 -6 194 -20 17 -29 34 -29 55 0 29 -2 31 -40 31 -37 0 -40 -2
-40 -27z m72 -139 c8 -18 9 -31 2 -42 -40 -63 -130 -19 -94 47 17 32 77 29 92
-5z m2812 -360 c32 -31 10 -94 -33 -94 -29 0 -53 25 -53 55 0 48 54 72 86 39z
m-2820 -380 c9 -8 16 -24 16 -35 0 -23 -34 -59 -55 -59 -21 0 -55 36 -55 59 0
27 26 51 55 51 13 0 31 -7 39 -16z m2066 -374 c52 -52 -17 -123 -72 -73 -10 9
-18 24 -18 35 0 22 34 58 55 58 8 0 24 -9 35 -20z"/>
<path d="M840 12150 l0 -650 778 0 777 0 363 363 362 363 0 287 0 287 -40 0
-40 0 0 -287 0 -288 -328 -327 -327 -328 -733 0 -732 0 0 615 0 615 -40 0 -40
0 0 -650z"/>
<path d="M1132 12298 l3 -503 29 -3 c15 -2 46 -17 69 -33 57 -41 123 -41 170
1 31 27 41 30 105 30 51 0 73 -4 83 -16 21 -25 65 -44 104 -44 39 0 83 19 104
44 10 12 32 16 83 16 64 0 74 -3 105 -30 27 -24 43 -30 82 -30 39 0 56 6 86
30 33 26 46 30 101 30 55 0 69 -4 108 -31 75 -53 152 -39 196 34 24 39 25 87
4 129 l-16 31 136 136 136 136 0 288 0 287 -40 0 -40 0 0 -288 0 -287 -120
-120 -119 -119 -49 3 c-41 2 -54 -2 -82 -25 -18 -16 -39 -43 -46 -61 -14 -32
-17 -33 -68 -33 -52 0 -55 1 -61 29 -10 48 -69 91 -125 91 -56 0 -115 -43
-125 -91 -6 -27 -9 -29 -59 -29 -52 0 -53 1 -71 40 -48 106 -201 106 -242 0
-16 -39 -17 -40 -67 -40 -50 0 -51 1 -68 40 -9 23 -30 48 -50 60 -39 24 -106
26 -134 5 -45 -34 -44 -38 -44 405 l0 420 -40 0 -40 0 2 -502z m228 -407 c16
-32 12 -59 -14 -76 -50 -33 -110 31 -71 75 23 26 71 26 85 1z m374 3 c30 -29
13 -75 -31 -89 -26 -7 -63 24 -63 54 0 27 26 51 55 51 13 0 31 -7 39 -16z
m374 4 c21 -21 14 -66 -13 -84 -23 -15 -27 -15 -50 0 -17 11 -25 26 -25 44 0
35 16 52 50 52 14 0 31 -5 38 -12z m376 -4 c40 -39 -4 -105 -56 -85 -32 12
-42 48 -22 78 17 27 55 30 78 7z"/>
<path d="M1430 12572 c0 -215 -1 -230 -20 -247 -46 -42 -49 -121 -5 -173 12
-15 24 -36 26 -47 4 -20 13 -20 478 -23 l473 -2 69 67 69 66 0 294 0 293 -35
0 -35 0 0 -286 0 -286 -34 -34 -34 -34 -374 0 -375 0 1 64 c1 58 -2 68 -28 95
-17 17 -45 36 -63 43 l-33 12 0 213 0 213 -40 0 -40 0 0 -228z m112 -299 c25
-22 23 -59 -4 -77 -30 -21 -44 -20 -69 5 -20 20 -19 48 3 77 14 17 48 15 70
-5z"/>
<path d="M4270 12767 c0 -23 -9 -40 -30 -60 -54 -51 -54 -136 -1 -191 31 -32
31 -33 31 -137 l0 -104 -765 -765 -765 -765 -2 -575 -3 -575 -995 -3 -994 -2
-373 372 -373 373 0 -40 c0 -39 7 -47 368 -408 l367 -367 1043 0 1042 0 0 613
0 612 765 765 765 765 0 101 0 100 35 17 c97 46 99 190 4 234 -31 14 -39 23
-39 46 0 25 -3 27 -40 27 -38 0 -40 -1 -40 -33z m98 -119 c7 -7 12 -24 12 -38
0 -33 -17 -50 -50 -50 -43 0 -62 37 -44 84 7 19 64 22 82 4z"/>
<path d="M4567 12673 c-3 -71 -3 -186 0 -256 l6 -129 -766 -766 -767 -767 0
-696 0 -696 -41 -7 c-23 -4 -55 -18 -71 -31 -26 -22 -39 -25 -107 -25 -65 0
-81 3 -96 20 -43 48 -137 47 -180 0 -15 -16 -31 -20 -92 -20 -63 0 -79 4 -115
28 -55 36 -113 36 -162 -1 -30 -23 -44 -27 -106 -27 -62 0 -76 3 -107 28 -26
19 -48 27 -78 27 -29 0 -54 -8 -81 -27 -34 -24 -50 -28 -110 -28 -59 0 -76 4
-103 24 -19 14 -46 28 -62 31 -36 8 -91 -9 -114 -35 -15 -17 -31 -20 -94 -20
-65 0 -80 3 -115 27 -52 37 -111 37 -160 0 -30 -24 -44 -27 -109 -27 -57 0
-78 4 -88 17 -23 27 -75 44 -117 37 l-38 -6 -284 285 -284 285 2 49 c3 60 -24
108 -73 129 -50 20 -55 18 -55 -24 0 -31 5 -41 24 -50 37 -17 40 -50 5 -84
-21 -21 -29 -39 -29 -64 0 -39 -1 -39 46 -19 35 14 37 14 73 -14 20 -16 148
-142 284 -279 l249 -249 -16 -31 c-45 -86 21 -192 120 -192 54 0 109 48 128
113 4 13 16 17 55 17 50 0 50 0 70 -45 50 -113 192 -113 242 0 20 44 21 45 69
45 46 0 49 -2 59 -33 14 -41 56 -83 94 -92 67 -17 148 30 162 95 6 29 9 30 60
30 50 0 53 -1 58 -29 13 -62 97 -113 161 -97 38 9 85 54 94 89 8 30 11 32 60
35 43 3 53 0 58 -15 20 -67 74 -113 132 -113 61 0 132 61 132 115 0 12 12 15
53 15 l52 0 21 -48 c50 -114 203 -105 246 15 11 32 14 33 64 33 49 0 52 -1 58
-31 12 -64 94 -112 163 -95 14 4 42 23 61 42 33 33 34 35 27 91 -4 32 -9 389
-11 793 l-4 735 760 760 760 760 0 262 0 263 -33 0 -34 0 -6 -127z m-3786
-3403 c13 -7 19 -21 19 -43 0 -38 -15 -57 -46 -57 -48 0 -70 55 -37 92 18 20
36 23 64 8z m381 -7 c27 -24 24 -71 -7 -85 -41 -18 -75 3 -75 46 0 52 45 73
82 39z m378 -3 c11 -11 20 -28 20 -37 0 -23 -30 -53 -53 -53 -26 0 -57 28 -57
52 0 22 34 58 55 58 8 0 24 -9 35 -20z m380 0 c11 -11 20 -27 20 -35 0 -21
-36 -55 -59 -55 -45 0 -66 57 -34 92 21 24 48 23 73 -2z m372 3 c24 -22 24
-69 -1 -83 -32 -16 -59 -12 -76 14 -35 54 29 112 77 69z m376 1 c26 -18 28
-50 5 -76 -20 -22 -51 -23 -75 -1 -24 21 -23 48 2 73 24 24 38 25 68 4z m373
6 c13 -7 19 -21 19 -43 0 -38 -15 -57 -46 -57 -51 0 -73 66 -32 94 26 19 33
19 59 6z"/>
<path d="M5230 12723 l0 -78 -141 -141 -141 -141 -42 4 c-78 8 -148 -62 -144
-145 l2 -43 -285 -285 c-280 -281 -285 -285 -319 -280 -45 7 -109 -24 -133
-63 -10 -17 -17 -50 -17 -78 l0 -48 -283 -283 -282 -282 -49 0 c-83 0 -136
-50 -136 -129 0 -50 16 -86 47 -106 l23 -15 0 -254 0 -254 -35 -35 c-30 -30
-35 -42 -35 -81 0 -53 21 -100 50 -116 19 -10 20 -21 20 -270 0 -249 -1 -260
-20 -270 -29 -16 -50 -63 -50 -114 0 -38 6 -52 35 -85 42 -47 44 -69 7 -104
l-28 -27 -1264 0 -1264 0 -373 372 -373 373 0 -40 c0 -39 7 -47 368 -408 l367
-367 1275 0 1276 0 62 63 c34 34 62 69 62 77 0 8 18 25 39 37 97 56 91 186
-11 239 l-28 15 0 239 0 239 28 15 c103 53 108 188 10 239 l-38 19 0 242 0
242 35 17 c67 32 93 113 59 179 l-16 31 280 279 279 280 31 -16 c59 -31 128
-14 171 40 25 32 28 101 7 143 l-15 27 279 279 279 279 40 -18 c74 -34 159 6
182 84 10 33 9 47 -6 86 l-17 46 156 157 156 157 0 77 0 77 -40 0 -40 0 0 -77z
m-297 -454 c35 -50 -28 -115 -73 -74 -24 22 -26 52 -3 77 22 24 58 23 76 -3z
m-750 -761 c19 -25 19 -28 3 -52 -18 -28 -63 -35 -84 -14 -20 20 -14 65 11 83
29 20 45 16 70 -17z m-755 -740 c7 -7 12 -24 12 -38 0 -34 -17 -50 -52 -50
-18 0 -33 8 -44 25 -15 23 -15 27 0 50 18 27 63 34 84 13z m-4 -754 c41 -40
-7 -109 -59 -86 -49 22 -28 102 26 102 10 0 25 -7 33 -16z m-6 -750 c26 -18
29 -56 6 -78 -32 -33 -86 -9 -86 39 0 27 23 55 47 55 6 0 21 -7 33 -16z"/>
<path d="M5520 12719 l0 -81 -945 -946 -945 -947 0 -845 0 -845 -173 -173
-172 -172 -1275 0 -1275 0 -367 367 c-203 203 -368 361 -368 353 0 -8 162
-177 360 -375 l360 -360 0 -51 0 -50 -360 -359 c-238 -237 -360 -366 -360
-380 0 -14 116 96 380 360 364 364 380 382 380 418 l0 37 1250 0 1250 0 2
-1275 3 -1275 99 -99 98 -99 -12 -49 c-12 -45 -11 -54 6 -88 28 -56 65 -80
125 -79 l49 0 0 -945 0 -946 512 -512 512 -513 341 -2 340 -3 3 -155 2 -156
90 -89 90 -90 0 -1147 c0 -1141 0 -1148 20 -1148 20 0 20 7 20 1147 l0 1147
-95 91 -95 91 0 164 -1 165 358 353 357 352 551 0 550 0 237 237 238 238 0
2085 0 2085 353 353 352 352 943 0 942 0 0 -133 0 -132 775 -775 775 -775 0
-2285 0 -2285 -90 -90 -90 -90 0 -1147 c0 -1014 2 -1148 15 -1148 13 0 15 134
15 1142 l0 1142 95 97 95 96 0 2272 0 2271 72 0 72 0 408 407 c364 363 428
433 400 433 -4 0 -187 -180 -407 -400 l-400 -400 -85 0 -85 0 -763 763 -762
762 0 150 0 150 673 673 672 672 175 0 175 0 407 -407 c225 -225 408 -401 408
-393 0 8 -183 198 -408 423 l-407 407 -168 0 -167 0 0 1270 c0 1122 -2 1270
-15 1270 -13 0 -15 -149 -15 -1277 l0 -1278 -672 -672 -673 -673 -947 0 -948
0 0 923 0 922 -958 958 -957 957 -453 0 -452 0 0 70 c0 63 -2 70 -20 70 -18 0
-20 -7 -20 -81z m1888 -1032 l942 -942 0 -930 0 -930 -352 -352 -353 -353
-230 0 -230 0 -165 -165 -165 -165 -195 0 -195 0 -78 78 c-72 73 -76 79 -62
97 8 12 14 42 15 73 0 48 -4 58 -33 87 -44 44 -94 54 -148 29 l-40 -18 -280
280 -280 280 15 29 c60 115 -61 238 -176 179 l-31 -16 -61 61 -62 61 -792 0
-792 0 0 837 0 838 942 942 943 943 460 0 460 0 943 -943z m-2153 -2663 c13
-8 40 -36 60 -60 30 -37 35 -47 25 -60 -18 -20 -16 -84 3 -120 30 -59 93 -82
158 -60 l43 15 279 -280 c218 -218 278 -283 272 -297 -4 -9 -10 -36 -12 -59
-7 -52 22 -104 71 -127 40 -19 62 -20 104 -5 31 11 34 9 124 -75 l92 -86 178
0 178 0 0 -847 0 -848 -462 -462 -463 -463 -330 0 -330 0 -290 290 -290 290
-480 0 -481 0 1 59 c0 55 -3 63 -34 95 -21 22 -49 38 -70 42 -31 6 -46 3 -102
-20 -12 -5 -42 17 -108 80 l-91 86 0 1292 0 1291 172 172 173 173 793 0 c705
0 795 -2 817 -16z m236 -134 c23 -13 26 -62 4 -80 -17 -14 -63 -17 -75 -4 -20
22 -21 53 -1 73 23 23 43 26 72 11z m768 -774 c17 -45 -18 -83 -65 -72 -25 7
-41 44 -30 71 14 37 82 38 95 1z m1371 -2048 l0 -2073 -227 -227 -228 -228
-542 0 -543 0 0 138 0 137 -85 85 -85 85 0 595 0 595 475 475 475 475 0 855 0
855 152 152 153 153 227 0 228 0 0 -2072z m-4018 -195 c26 -23 23 -59 -7 -79
-51 -33 -104 21 -71 71 19 29 51 32 78 8z m1333 -423 l290 -290 322 0 323 0 0
-582 0 -582 90 -92 90 -91 0 -144 0 -143 -352 -353 -353 -353 -345 0 -345 0
-497 497 -498 498 0 957 0 957 33 4 c17 2 239 5 492 5 l460 2 290 -290z"/>
<path d="M4712 11577 l-832 -832 0 -141 c0 -116 -3 -144 -16 -155 -51 -42 -55
-122 -10 -182 l26 -34 0 -260 c0 -224 -2 -262 -16 -274 -57 -47 -57 -151 0
-198 13 -11 16 -35 16 -112 l0 -99 681 0 681 0 603 -605 c332 -333 612 -622
622 -642 52 -100 177 -109 234 -17 20 33 23 34 82 34 l62 0 170 170 170 170
110 0 c105 0 112 -2 154 -30 53 -36 101 -39 151 -9 19 12 118 104 220 204 172
171 186 182 204 169 11 -8 43 -14 72 -14 42 0 59 5 83 26 35 29 57 89 47 128
-8 31 -63 96 -82 96 -12 0 -14 43 -14 249 l0 249 34 21 c35 22 66 73 66 111 0
38 -31 89 -66 111 l-34 21 0 246 0 247 29 17 c88 49 88 177 0 226 l-29 17 0
130 0 130 -145 145 -145 144 6 51 c10 96 -55 161 -151 150 l-50 -6 -278 279
-279 279 7 45 c9 59 -14 110 -62 139 -28 18 -45 21 -87 16 l-53 -5 -214 214
-214 214 -460 0 -460 0 -833 -833z m1946 560 l193 -193 -12 -45 c-15 -54 -8
-87 27 -128 34 -41 89 -55 140 -37 l39 14 281 -280 282 -281 -15 -34 c-44
-107 79 -223 177 -168 24 14 28 11 153 -113 l127 -127 0 -131 c0 -130 0 -132
-25 -148 -34 -23 -65 -74 -65 -109 0 -42 25 -89 60 -112 l30 -20 0 -250 -1
-250 -32 -20 c-21 -13 -37 -35 -47 -63 -13 -37 -13 -47 0 -84 10 -28 26 -50
47 -63 l32 -20 1 -250 0 -250 -30 -20 c-39 -26 -61 -74 -58 -125 2 -40 -1 -44
-123 -166 -68 -69 -136 -134 -151 -145 l-28 -20 -9 24 c-17 44 -68 77 -118 77
-71 0 -113 -35 -137 -112 -5 -16 -19 -18 -113 -18 l-107 0 -166 -165 -166
-165 -65 0 c-60 0 -66 2 -81 28 -10 16 -35 37 -57 47 -53 24 -104 14 -145 -29
l-31 -32 -610 608 -610 608 -643 0 -642 0 0 44 c0 42 2 45 43 65 106 51 106
191 0 242 l-43 21 0 236 1 237 41 20 c58 28 81 63 80 121 0 57 -24 92 -81 119
l-41 20 0 125 0 125 792 792 793 793 460 0 460 0 193 -193z m346 -243 c9 -8
16 -24 16 -35 0 -23 -34 -59 -55 -59 -21 0 -55 36 -55 59 0 27 26 51 55 51 13
0 31 -7 39 -16z m750 -750 c31 -31 7 -94 -36 -94 -22 0 -58 34 -58 55 0 21 36
55 59 55 11 0 27 -7 35 -16z m-3756 -783 c4 -39 -12 -61 -44 -61 -53 0 -73 73
-25 96 36 18 65 3 69 -35z m4143 11 c21 -55 -46 -96 -86 -52 -35 38 6 96 58
82 10 -3 23 -16 28 -30z m-4166 -724 c50 -23 18 -119 -34 -101 -42 15 -53 61
-21 93 23 23 22 23 55 8z m4170 -30 c14 -43 -24 -82 -67 -70 -44 11 -47 86 -5
101 27 10 65 -5 72 -31z m-12 -739 c10 -13 12 -30 8 -47 -6 -23 -13 -27 -46
-27 -34 0 -41 4 -49 27 -19 54 55 93 87 47z m-565 -371 c7 -7 12 -24 12 -38 0
-14 -5 -31 -12 -38 -7 -7 -24 -12 -38 -12 -14 0 -31 5 -38 12 -7 7 -12 24 -12
38 0 14 5 31 12 38 7 7 24 12 38 12 14 0 31 -5 38 -12z m-950 -374 c38 -27 20
-94 -27 -94 -52 0 -76 81 -28 100 30 12 30 12 55 -6z"/>
<path d="M4857 11432 l-677 -677 0 -576 c0 -552 1 -577 20 -616 30 -63 72 -93
130 -93 57 0 102 31 125 86 13 32 17 34 63 34 47 0 49 -1 66 -39 46 -105 195
-107 243 -4 17 35 22 38 65 41 46 3 48 2 68 -38 54 -106 201 -106 244 0 9 22
19 40 24 40 4 0 74 -66 155 -148 l147 -147 -10 -35 c-27 -94 51 -179 153 -166
l51 7 277 -277 277 -276 -6 -63 c-4 -61 -3 -64 31 -101 34 -37 38 -39 89 -37
29 2 146 5 259 9 l205 5 165 165 164 164 230 0 230 0 93 93 92 92 0 940 0 940
-678 678 -677 677 -470 0 -470 0 -678 -678z m2256 -40 l647 -647 0 -928 0
-928 -57 -60 -56 -59 -231 0 -231 0 -165 -165 -165 -165 -162 0 -163 0 0 41
c0 35 -6 48 -39 80 -34 34 -44 39 -85 39 -26 0 -55 -4 -65 -9 -14 -8 -65 38
-299 272 l-282 282 11 36 c17 54 4 102 -36 137 -42 37 -84 47 -131 32 l-36
-12 -162 161 c-110 110 -168 161 -183 161 -12 0 -28 8 -35 18 -49 68 -152 69
-212 3 -16 -17 -31 -21 -81 -21 -50 0 -65 4 -81 21 -59 65 -162 65 -216 0 -15
-17 -29 -21 -79 -21 -57 0 -65 3 -102 36 -39 35 -42 36 -102 32 l-62 -5 -2
510 -2 510 648 649 648 648 460 0 460 0 648 -648z m-2755 -1748 c24 -17 30
-62 10 -82 -7 -7 -24 -12 -38 -12 -33 0 -50 17 -50 51 0 24 30 59 50 59 3 0
16 -7 28 -16z m393 -16 c23 -44 -16 -93 -63 -80 -44 11 -47 85 -6 101 30 11
56 3 69 -21z m383 -11 c8 -12 8 -22 0 -34 -35 -56 -99 -45 -99 17 0 62 64 73
99 17z m544 -353 c26 -18 29 -56 6 -78 -40 -40 -105 4 -85 57 15 38 44 46 79
21z m760 -756 c7 -7 12 -24 12 -38 0 -64 -81 -71 -103 -9 -14 42 59 79 91 47z"/>
<path d="M5440 11714 c-104 -104 -105 -105 -145 -100 -51 6 -114 -22 -138 -63
-10 -18 -17 -50 -17 -83 l0 -53 -280 -280 -280 -280 -54 3 c-48 3 -57 1 -90
-28 -20 -18 -41 -49 -47 -70 -10 -33 -9 -44 10 -82 12 -25 32 -51 46 -58 l25
-13 0 -249 0 -249 -35 -30 c-62 -54 -64 -141 -6 -199 38 -39 90 -46 147 -20
44 19 66 20 354 20 l308 0 616 -615 616 -615 187 0 186 0 172 170 172 170 176
0 177 0 0 48 c0 45 2 48 40 64 106 44 106 197 -1 244 l-39 18 0 238 0 238 40
16 c106 43 106 200 0 241 l-40 16 0 243 0 242 29 7 c15 3 41 20 57 36 25 26
29 38 29 89 0 51 -4 63 -29 89 -35 37 -85 48 -141 33 l-40 -11 -278 277 c-224
224 -277 281 -272 297 4 11 9 38 12 60 6 51 -26 102 -80 128 -33 17 -44 17
-88 7 l-51 -13 -112 112 -111 111 -460 0 -460 0 -105 -106z m1121 -70 l96 -95
-10 -38 c-9 -32 -7 -45 12 -84 28 -58 74 -82 140 -74 l46 6 281 -281 282 -281
-5 -57 c-5 -53 -3 -59 26 -92 l31 -36 0 -260 c0 -223 -2 -261 -16 -273 -52
-43 -58 -126 -14 -187 l30 -42 0 -250 0 -250 -31 -43 c-27 -37 -30 -48 -27
-95 4 -40 11 -59 31 -80 15 -16 27 -38 27 -50 0 -22 -2 -22 -142 -22 l-141 0
-165 -165 -165 -165 -191 0 -190 0 -616 615 -615 615 -293 0 c-290 0 -292 0
-292 21 0 37 -31 88 -66 110 l-34 21 0 244 0 243 30 16 c61 32 88 117 55 175
-14 25 -10 29 267 307 l282 282 27 -15 c56 -29 126 -11 168 42 24 30 28 97 9
139 -11 25 -7 30 72 110 l85 85 460 0 460 0 96 -96z m-1257 -123 c21 -23 18
-70 -6 -85 -11 -7 -26 -7 -45 0 -38 13 -45 65 -11 88 29 21 41 20 62 -3z
m1506 -1 c36 -36 16 -90 -35 -90 -24 0 -55 33 -55 57 0 18 37 53 55 53 8 0 24
-9 35 -20z m-2252 -752 c7 -7 12 -24 12 -38 0 -33 -17 -50 -49 -50 -26 0 -61
25 -61 44 0 6 7 22 16 34 17 24 62 30 82 10z m3010 0 c7 -7 12 -24 12 -38 0
-33 -17 -50 -50 -50 -33 0 -50 17 -50 50 0 33 17 50 50 50 14 0 31 -5 38 -12z
m-3014 -754 c37 -37 1 -103 -49 -90 -14 4 -31 17 -37 31 -23 52 46 100 86 59z
m3010 0 c41 -40 -7 -109 -59 -86 -49 22 -28 102 26 102 10 0 25 -7 33 -16z
m-2 -751 c27 -24 24 -71 -7 -85 -38 -17 -75 3 -75 41 0 53 45 78 82 44z"/>
<path d="M5615 11613 c-36 -9 -72 -42 -90 -80 -11 -24 -154 -175 -386 -408
l-369 -370 2 -290 3 -290 235 -3 236 -2 238 -239 238 -239 -12 -50 c-11 -42
-11 -56 1 -89 27 -69 114 -103 184 -71 25 11 34 4 298 -260 l272 -272 190 0
189 0 166 165 c145 144 170 165 198 165 l32 0 0 738 0 737 -350 350 c-306 306
-351 355 -356 387 -10 58 -37 94 -88 113 -43 17 -48 17 -91 1 -29 -12 -51 -29
-65 -52 -20 -31 -25 -34 -72 -34 -46 0 -53 4 -92 43 -69 71 -149 70 -208 -3
-29 -37 -35 -40 -83 -40 -48 0 -54 3 -83 40 -21 25 -46 43 -70 50 -20 5 -39 9
-42 9 -3 -1 -14 -4 -25 -6z m63 -89 c41 -28 19 -94 -32 -94 -31 0 -46 18 -46
57 0 48 37 66 78 37z m382 -4 c24 -24 25 -47 3 -72 -33 -36 -93 -13 -93 37 0
24 33 55 57 55 7 0 22 -9 33 -20z m379 -6 c30 -38 9 -84 -39 -84 -28 0 -42 11
-53 42 -8 21 29 68 53 68 10 0 28 -12 39 -26z m-529 -99 c44 -82 176 -85 224
-5 16 28 21 30 76 30 54 0 60 -2 80 -30 45 -64 121 -78 185 -34 l38 26 329
-329 328 -328 0 -698 0 -697 -157 -160 -158 -160 -195 0 -195 0 -253 253 -253
253 7 40 c14 90 -49 157 -143 152 l-53 -3 -262 262 -263 263 -200 2 -200 3 -3
245 -2 245 340 340 340 339 34 -33 c62 -60 161 -51 203 19 16 28 21 30 78 30
56 0 63 -2 75 -25z m-29 -1787 c23 -44 -16 -93 -63 -80 -44 11 -47 85 -6 101
30 11 56 3 69 -21z"/>
<path d="M5395 11222 c-58 -36 -79 -88 -63 -153 l11 -41 -142 -142 -141 -141
0 -138 0 -137 92 0 93 0 615 -615 615 -615 183 0 183 0 55 51 54 52 0 701 0
701 -132 132 -131 131 16 35 c34 71 9 149 -57 181 -45 21 -84 20 -123 -3 -27
-17 -33 -18 -44 -5 -10 12 -82 15 -488 14 -262 0 -496 3 -521 6 -34 4 -53 0
-75 -14z m99 -78 c33 -32 10 -94 -35 -94 -23 0 -59 34 -59 55 0 21 36 55 59
55 11 0 27 -7 35 -16z m1130 0 c22 -22 20 -60 -4 -77 -27 -19 -70 -10 -79 17
-21 54 43 100 83 60z m-164 -36 c0 -84 70 -147 148 -134 33 5 39 0 148 -109
l114 -114 0 -703 c0 -534 -3 -707 -12 -716 -8 -8 -68 -12 -202 -12 l-191 0
-615 615 -615 615 -48 0 -47 0 0 98 0 97 123 123 123 122 32 -11 c83 -29 172
37 172 128 l0 43 435 0 435 0 0 -42z"/>
<path d="M5447 10842 l-87 -87 0 -55 0 -55 588 -588 587 -587 43 0 c115 0 181
114 117 201 -45 62 -46 72 -43 319 l3 235 33 44 c46 63 43 119 -11 179 -18 20
-21 38 -25 165 l-5 142 -85 88 -86 87 -471 0 -470 0 -88 -88z m1076 -42 l57
-57 0 -126 0 -126 -44 -20 c-53 -23 -76 -61 -76 -124 0 -53 25 -89 81 -117
l39 -20 0 -228 c0 -125 -4 -232 -8 -238 -4 -6 -17 -14 -29 -18 -12 -4 -38 -26
-58 -49 l-36 -41 -509 509 -510 510 0 44 c0 41 5 49 59 103 l59 59 459 -2 458
-2 58 -57z m95 -406 c26 -18 29 -56 6 -78 -40 -40 -105 4 -85 57 8 22 18 29
51 36 3 0 16 -6 28 -15z m10 -757 c22 -17 14 -65 -13 -83 -23 -15 -27 -15 -50
0 -32 21 -34 68 -4 90 21 14 42 12 67 -7z"/>
<path d="M3583 8758 l-62 -63 -1 -236 -1 -237 -30 -28 c-61 -58 -60 -140 1
-199 l30 -29 0 -246 0 -246 -34 -37 c-58 -63 -55 -139 8 -196 l26 -24 0 -252
0 -252 -26 -24 c-63 -57 -66 -133 -8 -196 l34 -37 0 -167 0 -168 63 -65 62
-66 511 0 512 0 234 -239 235 -239 5 -58 c4 -50 9 -61 41 -91 32 -28 44 -33
88 -33 47 0 55 4 91 40 38 38 44 40 99 40 48 0 60 -4 73 -21 27 -39 68 -59
120 -59 44 0 53 4 87 40 37 38 41 40 101 40 l63 0 354 354 354 354 5 169 5
169 28 16 c38 22 69 75 69 118 0 44 -30 95 -70 115 l-30 16 0 244 0 244 30 16
c40 20 70 71 70 115 0 44 -31 96 -70 118 -26 15 -30 23 -30 59 0 70 -3 73 -84
73 l-71 -1 -613 616 -612 615 -798 0 -798 0 -61 -62z m2277 -632 c497 -497
621 -615 644 -618 40 -4 43 -23 9 -56 -41 -38 -53 -64 -53 -117 0 -39 5 -51
41 -90 l41 -45 -3 -238 -4 -239 -37 -42 c-32 -35 -38 -48 -38 -87 0 -53 11
-79 51 -116 l29 -27 0 -163 0 -162 -317 -318 -318 -318 -62 0 c-60 0 -63 1
-78 30 -22 42 -71 70 -122 70 -33 0 -50 -7 -77 -31 -19 -16 -38 -39 -41 -50
-5 -16 -16 -19 -63 -19 -53 0 -58 2 -74 30 -36 62 -116 87 -180 54 l-31 -16
-256 256 -257 256 -511 0 -511 0 -26 31 c-25 29 -26 35 -26 164 0 172 3 188
46 208 41 20 74 70 74 112 0 44 -32 96 -72 117 l-35 18 -7 110 c-4 61 -4 170
0 243 l7 133 37 22 c40 23 70 73 70 119 0 40 -34 90 -74 110 l-34 16 -7 151
c-4 83 -5 191 -3 240 l4 90 39 22 c97 54 97 178 1 235 l-34 20 -7 105 c-4 57
-4 161 0 232 6 109 10 130 28 150 l20 22 801 0 800 0 616 -614z m-2248 7 c22
-20 23 -51 1 -75 -20 -22 -42 -23 -71 -2 -27 19 -28 48 -2 74 24 24 47 25 72
3z m-2 -753 c22 -22 25 -42 10 -71 -22 -39 -100 -15 -100 32 0 23 34 59 55 59
8 0 24 -9 35 -20z m3008 4 c40 -28 22 -94 -27 -94 -51 0 -72 50 -36 86 28 28
33 29 63 8z m-3004 -760 c36 -36 8 -87 -44 -82 -27 2 -37 9 -44 30 -18 51 49
91 88 52z m3014 4 c7 -7 12 -24 12 -38 0 -34 -17 -50 -52 -50 -18 0 -33 8 -44
25 -15 23 -15 27 0 50 18 27 63 34 84 13z m-1320 -1130 c21 -21 14 -66 -13
-84 -23 -15 -27 -15 -50 0 -17 11 -25 26 -25 44 0 35 16 52 50 52 14 0 31 -5
38 -12z m376 -4 c41 -40 -4 -105 -58 -85 -21 9 -26 17 -26 44 0 18 5 38 12 45
17 17 54 15 72 -4z"/>
<path d="M4822 8580 c-67 -41 -78 -129 -26 -198 l28 -36 4 -250 4 -251 -30
-34 c-52 -57 -54 -124 -4 -183 l27 -32 0 -257 c0 -248 -1 -258 -21 -281 -58
-63 -59 -122 -2 -185 19 -20 21 -40 26 -275 l5 -253 -26 -31 c-69 -81 -58
-169 27 -219 22 -13 124 -108 226 -210 l185 -185 325 0 325 0 212 213 212 212
5 205 c3 113 5 231 5 263 -2 471 0 690 6 725 13 77 -8 121 -111 223 l-92 92
14 33 c19 44 18 60 -6 109 -33 69 -97 89 -185 61 -16 -6 -71 44 -299 272 -252
253 -277 281 -267 300 15 28 13 101 -3 130 -21 38 -66 62 -118 62 -41 0 -54
-5 -87 -35 -36 -32 -43 -35 -104 -35 -48 0 -66 4 -71 15 -9 26 -69 55 -111 55
-23 0 -54 -9 -73 -20z m122 -93 c12 -34 -15 -67 -55 -67 -34 0 -54 30 -45 66
13 49 83 50 100 1z m364 21 c7 -7 12 -24 12 -38 0 -14 -5 -31 -12 -38 -7 -7
-24 -12 -38 -12 -14 0 -31 5 -38 12 -7 7 -12 24 -12 38 0 14 5 31 12 38 7 7
24 12 38 12 14 0 31 -5 38 -12z m-153 -98 c34 -53 76 -74 136 -67 47 6 48 5
98 -48 28 -30 51 -56 51 -59 0 -3 -16 -13 -36 -22 -99 -47 -98 -194 2 -241
l36 -17 -3 -239 -3 -239 -35 -18 c-46 -23 -71 -67 -71 -124 0 -36 6 -52 30
-80 17 -18 41 -37 55 -40 l25 -6 -2 -243 -3 -242 -27 -13 c-48 -23 -78 -68
-78 -119 0 -57 22 -95 72 -123 l38 -21 0 -75 c0 -66 3 -78 25 -99 l24 -25 376
0 375 0 0 -62 0 -63 -172 -172 -173 -173 -325 0 -325 0 -153 153 -152 153 29
17 c38 22 65 80 58 124 -9 52 -33 82 -83 104 l-44 20 0 237 1 237 41 20 c56
27 83 66 83 120 0 55 -27 93 -83 120 l-42 20 2 239 3 240 32 8 c33 9 75 55 88
96 16 55 -37 144 -95 157 l-30 7 0 239 0 240 45 19 c33 14 49 29 65 59 20 40
22 41 70 41 47 0 51 -2 75 -40z m336 -270 c13 -7 19 -21 19 -45 0 -54 -52 -73
-91 -34 -22 22 -19 55 9 77 19 15 37 15 63 2z m-556 -394 c24 -37 -2 -86 -46
-86 -16 0 -49 39 -49 59 0 49 68 69 95 27z m753 12 c19 -19 14 -63 -8 -83 -16
-15 -26 -17 -48 -9 -37 13 -52 57 -27 84 20 22 64 27 83 8z m377 -8 c25 -27
10 -71 -27 -84 -49 -17 -84 35 -58 85 14 25 62 25 85 -1z m-573 -367 c20 -18
24 -63 6 -81 -20 -20 -65 -14 -82 10 -20 29 -20 30 5 62 24 30 45 33 71 9z
m376 1 c43 -30 21 -94 -33 -94 -53 0 -73 52 -35 90 24 24 38 25 68 4z m367 10
c27 -11 38 -53 20 -80 -17 -26 -62 -33 -83 -12 -20 20 -14 65 10 82 25 18 29
19 53 10z m-1304 -395 c30 -30 8 -89 -34 -89 -48 0 -73 56 -40 92 21 24 48 23
74 -3z m753 5 c33 -33 9 -94 -36 -94 -26 0 -58 27 -58 49 0 50 61 79 94 45z
m378 -1 c22 -20 23 -51 1 -75 -33 -36 -93 -13 -93 37 0 49 55 72 92 38z m-564
-375 c20 -20 14 -66 -11 -82 -49 -33 -104 21 -72 70 17 26 62 33 83 12z m382
-7 c17 -33 11 -60 -16 -78 -24 -15 -29 -15 -53 -2 -29 16 -38 48 -21 78 15 28
75 29 90 2z m375 -5 c34 -51 -30 -111 -75 -71 -22 20 -26 65 -8 83 21 21 66
14 83 -12z m-1314 -384 c20 -52 -46 -96 -85 -56 -19 19 -20 45 -3 66 27 34 73
29 88 -10z"/>
<path d="M5185 6310 c-21 -16 -44 -30 -51 -30 -11 0 -14 -19 -14 -78 l0 -78
63 -62 63 -62 76 0 77 0 -1 128 c0 87 -5 136 -14 154 -33 64 -136 78 -199 28z
m123 -62 c7 -7 12 -24 12 -38 0 -14 -5 -31 -12 -38 -7 -7 -24 -12 -38 -12 -14
0 -31 5 -38 12 -7 7 -12 24 -12 38 0 14 5 31 12 38 7 7 24 12 38 12 14 0 31
-5 38 -12z"/>
<path d="M7103 7850 c-95 -91 -107 -147 -48 -218 l25 -30 0 -264 0 -265 -25
-23 c-45 -42 -45 -124 0 -173 l25 -26 0 -264 c0 -228 -2 -266 -16 -278 -48
-40 -55 -121 -16 -177 l21 -28 -453 -450 c-250 -247 -471 -463 -491 -479 -30
-25 -38 -39 -42 -76 -5 -47 11 -93 41 -118 14 -12 16 -50 16 -276 0 -226 -2
-264 -16 -276 -57 -47 -57 -151 0 -198 13 -11 16 -36 16 -130 l0 -116 85 -85
c66 -66 85 -91 85 -112 l0 -28 438 0 437 0 113 113 112 112 0 118 c0 64 3 117
8 117 4 0 17 15 30 33 34 50 31 117 -8 160 l-30 35 0 257 0 257 30 35 c24 27
30 43 30 79 0 47 -17 91 -44 113 -14 12 -16 49 -16 271 0 222 2 259 16 271 25
21 44 65 44 104 0 39 -19 83 -44 104 -14 12 -16 50 -16 273 l0 260 30 35 c25
28 30 42 30 83 0 41 -5 55 -30 83 l-30 35 0 257 0 257 30 35 c24 27 30 43 30
80 0 45 -31 113 -51 113 -5 0 -9 99 -9 235 l0 235 -117 0 -118 0 -72 -70z
m227 -192 c0 -165 -2 -188 -16 -188 -28 0 -73 -33 -89 -66 -34 -72 -5 -153 65
-182 l40 -17 0 -240 0 -241 -34 -12 c-18 -7 -41 -21 -51 -31 -27 -31 -44 -90
-34 -125 10 -37 71 -96 99 -96 19 0 20 -6 20 -243 l0 -243 -39 -18 c-106 -46
-107 -191 -2 -241 l41 -20 0 -242 c0 -237 -1 -243 -20 -243 -11 0 -37 -15 -56
-33 -71 -65 -52 -178 36 -215 l40 -17 0 -240 0 -240 -40 -17 c-46 -19 -80 -68
-80 -116 0 -58 42 -117 91 -127 l29 -7 0 -107 0 -107 -73 -72 -72 -72 -410 0
-411 0 -73 74 c-69 69 -74 78 -79 125 -7 75 6 161 25 161 25 0 69 31 87 60 9
16 16 49 16 74 0 36 -6 52 -30 80 -17 19 -44 37 -59 41 -26 5 -29 11 -35 58
-8 67 -8 297 0 374 6 57 8 61 40 72 52 19 84 64 84 119 0 53 -27 107 -59 117
-12 3 -21 9 -21 13 0 4 195 201 433 438 417 417 434 432 476 437 80 10 133 87
112 165 -13 45 -32 65 -84 87 l-37 15 0 238 1 237 41 20 c57 27 81 63 81 120
0 57 -24 93 -81 120 l-42 19 0 236 0 236 39 17 c48 22 71 47 80 89 11 50 -4
99 -38 130 -17 15 -31 29 -31 30 0 2 27 3 60 3 l60 1 0 -188z m-135 88 c19
-29 6 -71 -25 -81 -29 -9 -70 19 -70 50 0 53 66 75 95 31z m165 -356 c34 -18
44 -48 25 -76 -17 -26 -62 -33 -83 -12 -20 20 -14 65 10 82 27 19 24 19 48 6z
m-176 -383 c37 -27 13 -97 -33 -97 -22 0 -51 30 -51 53 0 25 28 57 50 57 9 0
24 -6 34 -13z m202 -392 c15 -23 15 -27 0 -50 -11 -17 -26 -25 -44 -25 -35 0
-52 17 -52 52 0 50 68 66 96 23z m-212 -355 c21 -8 26 -16 26 -43 0 -40 -15
-57 -52 -57 -46 0 -64 54 -28 90 23 23 21 23 54 10z m206 -390 c11 -11 20 -27
20 -35 0 -21 -36 -55 -59 -55 -27 0 -51 26 -51 55 0 51 54 71 90 35z m-1139
-740 c13 -7 19 -21 19 -43 0 -38 -15 -57 -46 -57 -51 0 -73 66 -32 94 26 19
33 19 59 6z m1140 -16 c22 -23 23 -27 8 -52 -16 -30 -61 -41 -85 -21 -31 26
-5 99 36 99 9 0 27 -11 41 -26z m-1133 -746 c7 -7 12 -24 12 -38 0 -14 -5 -31
-12 -38 -7 -7 -24 -12 -38 -12 -14 0 -31 5 -38 12 -7 7 -12 24 -12 38 0 14 5
31 12 38 7 7 24 12 38 12 14 0 31 -5 38 -12z m1138 -13 c15 -23 15 -27 0 -50
-11 -17 -26 -25 -44 -25 -35 0 -52 16 -52 50 0 34 17 50 52 50 18 0 33 -8 44
-25z"/>
<path d="M4075 5572 c-16 -11 -36 -26 -44 -35 -10 -13 -30 -17 -76 -17 -62 0
-63 0 -69 -31 -3 -17 -6 -91 -6 -164 0 -108 -3 -135 -16 -146 -51 -42 -55
-124 -10 -184 l26 -34 0 -259 c0 -223 -2 -261 -16 -273 -56 -46 -58 -133 -4
-194 16 -17 19 -45 22 -217 l3 -198 220 -222 c121 -123 239 -243 262 -268 l42
-45 -16 -46 c-16 -44 -16 -47 5 -90 35 -72 99 -96 178 -67 30 11 35 9 60 -15
l27 -27 346 0 346 0 205 205 205 206 45 -6 c56 -7 105 16 137 64 45 66 16 148
-64 186 -41 20 -42 21 -43 71 0 44 -4 54 -35 84 -33 32 -34 36 -29 84 6 61
-17 105 -71 137 l-35 21 0 239 0 239 34 16 c37 18 76 78 76 117 0 54 -37 108
-87 128 -20 7 -23 16 -23 59 l0 50 -213 0 -213 0 -27 28 c-26 27 -26 28 -11
74 15 43 15 49 -5 92 -16 38 -29 51 -67 67 -43 20 -49 20 -92 5 l-47 -15 -166
162 c-232 226 -255 242 -326 234 -32 -3 -54 -14 -77 -36 -29 -28 -38 -31 -97
-31 -54 0 -69 4 -85 21 -45 50 -116 63 -169 31z m110 -86 c19 -28 9 -58 -26
-76 -45 -25 -94 51 -57 88 21 21 66 14 83 -12z m373 12 c21 -21 14 -66 -12
-83 -50 -33 -104 20 -72 70 18 27 63 34 84 13z m-542 -83 c3 -14 22 -38 40
-55 28 -24 44 -30 81 -30 59 0 108 30 125 76 12 33 14 34 65 34 51 0 53 -1 73
-40 24 -47 68 -73 124 -72 48 1 84 25 111 75 11 20 22 37 25 37 3 0 72 -66
152 -147 l146 -148 -5 -46 c-10 -91 51 -154 143 -145 51 4 52 4 100 -45 l48
-49 168 0 c93 0 169 -4 173 -9 3 -6 -9 -26 -26 -46 -56 -63 -56 -142 0 -199
l31 -32 0 -245 0 -245 -30 -29 c-58 -55 -59 -138 -3 -197 32 -34 82 -45 135
-29 56 17 68 4 68 -70 0 -46 -5 -68 -25 -97 -33 -51 -40 -91 -22 -134 l15 -35
-187 -187 -186 -186 -353 0 c-274 0 -352 3 -353 13 -1 6 -1 31 0 53 3 46 -15
88 -49 119 -17 15 -38 20 -88 22 l-66 2 -243 243 -243 243 0 188 0 187 40 16
c54 22 80 60 80 119 0 64 -21 99 -75 125 l-45 22 0 237 0 237 35 12 c56 21 85
64 85 127 0 49 -4 58 -35 89 -19 19 -44 36 -57 38 -22 3 -23 7 -26 116 l-3
112 25 0 c19 0 27 -7 32 -25z m-35 -285 c22 -12 27 -68 7 -88 -29 -29 -88 -2
-88 39 0 20 33 59 51 59 6 0 19 -5 30 -10z m1139 -10 c11 -11 20 -26 20 -33 0
-24 -31 -57 -55 -57 -52 0 -74 65 -33 94 30 21 44 20 68 -4z m562 -377 c37
-33 14 -85 -38 -85 -46 0 -67 49 -35 81 25 25 48 27 73 4z m-1694 -375 c18
-18 15 -75 -4 -82 -56 -22 -99 17 -76 69 13 27 58 35 80 13z m1710 -410 c4
-31 -21 -58 -52 -58 -32 0 -48 22 -44 61 2 26 9 35 28 40 33 8 64 -12 68 -43z
m177 -348 c37 -41 -14 -107 -64 -81 -47 26 -30 101 24 101 12 0 30 -9 40 -20z
m-1317 -373 c6 -5 12 -22 12 -37 0 -48 -46 -69 -84 -39 -33 26 -33 52 0 78 25
19 45 19 72 -2z"/>
<path d="M4180 4517 l0 -702 243 -243 242 -242 340 0 340 0 98 98 97 97 0 150
0 150 -85 85 -85 85 0 322 0 323 -63 0 -62 0 -290 290 -290 290 -242 0 -243 0
0 -703z m765 343 c238 -238 295 -290 318 -290 l27 0 0 -287 0 -288 86 -87 87
-86 1 -152 1 -151 -57 -55 -56 -54 -344 0 -343 0 -202 202 -203 203 0 662 0
662 33 4 c17 2 106 5 197 5 l164 2 291 -290z"/>
<path d="M4479 4928 c-1 -2 -3 -23 -4 -47 -3 -36 -9 -48 -39 -73 -67 -55 -69
-135 -5 -199 l39 -39 2 -239 3 -238 -41 -40 c-45 -44 -58 -84 -44 -132 6 -20
56 -79 137 -161 l127 -130 298 0 298 0 0 93 0 92 -84 84 -84 84 -4 269 -3 268
-205 205 -206 205 -92 0 c-51 0 -93 -1 -93 -2z m354 -246 l167 -168 0 -265 0
-264 85 -85 85 -85 0 -52 0 -53 -259 0 -258 0 -47 50 c-25 27 -46 53 -46 57 0
5 14 17 30 26 82 49 77 176 -10 225 l-30 17 0 239 0 240 46 40 c39 35 47 48
51 87 7 57 -14 99 -62 129 -19 12 -35 24 -35 26 0 2 26 4 58 4 l58 0 167 -168z
m-279 62 c31 -31 7 -94 -36 -94 -22 0 -58 34 -58 55 0 21 36 55 59 55 11 0 27
-7 35 -16z m14 -786 c7 -55 -64 -79 -94 -33 -13 20 -15 31 -6 50 21 45 94 33
100 -17z"/>
<path d="M6791 12553 c246 -248 246 -248 236 -280 -15 -49 -1 -97 38 -132 44
-38 77 -47 124 -32 l36 11 282 -283 283 -282 -11 -36 c-15 -47 -6 -80 32 -124
35 -39 83 -53 134 -38 l33 10 203 -203 204 -204 1507 0 1508 0 0 920 0 920
-40 0 -40 0 0 -880 0 -880 -1468 0 -1467 0 -182 183 -182 182 11 41 c14 49 6
83 -27 123 -35 41 -82 55 -136 41 l-42 -12 -279 280 -280 279 11 39 c14 53 -1
105 -40 138 -40 34 -74 42 -123 28 l-41 -11 -225 224 c-218 218 -226 225 -265
225 l-40 0 246 -247z m390 -273 c30 -16 26 -77 -6 -92 -52 -24 -97 41 -58 84
18 20 36 23 64 8z m759 -760 c11 -11 20 -28 20 -37 0 -23 -30 -53 -53 -53 -26
0 -57 28 -57 52 0 22 34 58 55 58 8 0 24 -9 35 -20z"/>
<path d="M7620 12025 l775 -775 1186 0 c652 0 1261 3 1352 7 l167 6 0 769 0
768 -35 0 -35 0 -1 -720 c-1 -396 -2 -726 -3 -732 -1 -10 -273 -14 -1316 -16
l-1315 -2 -735 735 c-729 729 -735 735 -775 735 l-40 0 775 -775z"/>
<path d="M7184 12751 c47 -47 48 -51 37 -82 -16 -47 -13 -90 9 -126 34 -57 97
-76 167 -51 l34 12 278 -278 279 -279 -14 -33 c-18 -42 -18 -78 0 -112 34 -66
93 -90 163 -66 l46 16 101 -101 101 -101 1213 0 1212 0 0 625 0 625 -40 0 -40
0 0 -585 0 -585 -1173 0 -1172 0 -83 83 c-82 83 -83 84 -76 124 14 88 -56 159
-146 151 l-48 -5 -281 281 -281 281 1 52 c2 60 -25 113 -66 131 -14 7 -50 12
-79 12 -45 0 -56 4 -81 30 -23 24 -37 30 -69 30 l-40 0 48 -49z m202 -116 c15
-23 15 -27 0 -50 -28 -43 -96 -26 -96 23 0 35 17 52 52 52 18 0 33 -8 44 -25z
m748 -741 c9 -8 16 -24 16 -35 0 -23 -34 -59 -55 -59 -20 0 -55 36 -55 56 0
49 59 73 94 38z"/>
<path d="M7889 12345 c448 -452 451 -455 451 -496 0 -35 6 -48 39 -80 21 -22
49 -39 62 -40 77 -4 121 18 147 72 13 28 24 38 47 42 55 9 81 -2 94 -40 17
-45 63 -73 123 -73 53 0 97 29 118 79 21 52 109 52 131 0 6 -16 25 -41 41 -54
60 -50 173 -23 203 49 10 23 22 35 42 39 45 9 81 -2 87 -28 3 -12 22 -37 41
-54 30 -26 44 -31 85 -31 41 0 55 5 85 31 19 17 38 41 41 54 6 25 42 37 87 28
19 -4 32 -16 44 -40 22 -47 67 -73 125 -73 53 0 97 29 117 79 22 52 110 52
131 0 21 -50 65 -79 118 -79 59 0 104 27 122 71 8 19 20 39 27 44 16 12 19
130 16 603 l-3 352 -35 0 -35 0 0 -332 c0 -183 -3 -370 -6 -415 -7 -81 -7 -81
-31 -72 -54 20 -117 5 -157 -40 -15 -17 -31 -21 -77 -21 -52 0 -64 4 -105 35
-36 28 -55 35 -90 35 -36 0 -51 -6 -83 -35 -36 -32 -43 -35 -103 -35 -53 0
-68 4 -84 21 -10 12 -31 27 -46 35 -52 27 -119 13 -162 -35 -16 -17 -31 -21
-87 -21 -56 0 -70 3 -82 20 -45 65 -153 65 -211 1 -28 -30 -134 -30 -162 0
-54 60 -142 64 -198 10 -29 -28 -38 -31 -97 -31 -54 0 -69 4 -85 21 -47 52
-116 63 -173 28 l-34 -21 -426 426 c-415 415 -427 426 -465 426 l-39 0 452
-455z m619 -447 c21 -21 14 -66 -13 -84 -23 -15 -27 -15 -50 0 -17 11 -25 26
-25 44 0 35 16 52 50 52 14 0 31 -5 38 -12z m382 -9 c26 -47 -15 -98 -63 -80
-53 20 -35 101 23 101 19 0 33 -7 40 -21z m374 5 c30 -29 13 -75 -31 -89 -25
-7 -63 24 -63 51 0 49 59 73 94 38z m374 4 c21 -21 14 -66 -13 -84 -23 -15
-27 -15 -50 0 -25 16 -29 27 -25 56 5 38 61 55 88 28z m382 -9 c15 -27 5 -66
-19 -79 -50 -26 -103 39 -66 80 24 27 71 26 85 -1z m368 9 c7 -7 12 -27 12
-45 0 -27 -5 -35 -26 -43 -49 -19 -90 31 -64 79 12 24 58 29 78 9z"/>
<path d="M8055 12470 l330 -330 836 0 c827 0 837 0 884 -21 57 -25 101 -20
145 17 62 52 62 140 0 199 l-30 29 0 218 0 218 -40 0 -40 0 0 -214 0 -214 -35
-21 c-39 -23 -75 -75 -75 -108 l0 -23 -823 0 -822 0 -290 290 c-283 283 -291
290 -330 290 l-40 0 330 -330z m2151 -205 c21 -32 15 -56 -17 -74 -24 -13 -29
-13 -53 2 -30 20 -34 52 -9 79 23 26 59 23 79 -7z"/>
<path d="M8208 12618 l182 -183 765 -3 765 -2 0 185 0 185 -40 0 -40 0 0 -145
0 -145 -723 0 -722 0 -145 145 c-138 138 -147 145 -185 145 l-40 0 183 -182z"/>
<path d="M8350 12765 l34 -35 623 0 623 0 0 35 0 35 -657 0 -657 0 34 -35z"/>
<path d="M11870 11640 l0 -1160 57 0 58 0 407 -407 408 -408 0 40 c0 40 -6 47
-408 448 -224 224 -415 407 -425 407 -16 0 -17 67 -17 1120 l0 1120 -40 0 -40
0 0 -1160z"/>
<path d="M12170 12767 c0 -23 -8 -41 -25 -57 -31 -29 -49 -83 -41 -122 3 -17
20 -46 37 -65 l30 -35 -2 -251 -2 -251 -27 -36 c-52 -65 -51 -125 2 -185 l30
-35 -4 -254 -4 -253 -26 -31 c-15 -18 -30 -41 -33 -53 -11 -33 4 -86 33 -121
l27 -32 3 -195 3 -196 262 -262 261 -262 -13 -38 c-33 -89 5 -165 92 -187 25
-6 27 -4 27 28 0 25 -8 43 -29 64 -35 34 -32 67 5 84 19 9 24 19 24 51 0 38
-1 39 -28 34 -25 -5 -50 16 -280 242 l-252 247 0 185 0 185 43 19 c112 53 116
186 6 237 l-48 23 -1 237 0 237 44 20 c112 49 113 183 2 240 l-46 24 0 233 0
234 44 21 c25 11 52 32 61 45 49 75 15 174 -70 201 -22 7 -31 17 -33 36 -3 23
-8 27 -38 27 -32 0 -34 -2 -34 -33z m110 -128 c16 -28 5 -66 -21 -74 -33 -11
-68 3 -75 29 -9 39 11 66 51 66 25 0 37 -6 45 -21z m-6 -745 c9 -8 16 -24 16
-35 0 -23 -34 -59 -55 -59 -21 0 -55 36 -55 59 0 27 26 51 55 51 13 0 31 -7
39 -16z m-2 -751 c26 -23 23 -59 -7 -79 -32 -21 -56 -15 -74 17 -13 24 -13 29
2 53 20 30 52 34 79 9z"/>
<path d="M12460 11697 l0 -1102 170 -170 170 -170 0 40 c0 38 -7 47 -130 170
l-130 130 0 1102 0 1103 -40 0 -40 0 0 -1103z"/>
<path d="M12750 12580 l0 -220 -26 -16 c-33 -22 -54 -64 -54 -109 0 -45 21
-87 54 -109 l26 -16 0 -254 0 -253 -23 -12 c-75 -40 -73 -180 2 -221 20 -10
21 -19 21 -259 l0 -249 -40 -40 c-36 -36 -40 -44 -40 -92 0 -51 1 -54 65 -116
l65 -64 0 56 c0 49 -4 59 -30 84 -16 15 -30 33 -30 40 0 7 14 25 30 40 l30 28
0 315 c0 307 -1 316 -20 322 -33 10 -44 42 -25 71 9 14 23 28 31 31 12 4 14
55 14 318 l0 313 -29 30 c-35 34 -32 67 5 84 l24 11 0 254 0 253 -25 0 -25 0
0 -220z"/>
<path d="M11613 10095 c-45 -19 -73 -69 -73 -130 l0 -50 -283 -283 -284 -284
-35 7 c-45 9 -100 -16 -130 -58 -16 -22 -21 -43 -20 -81 l1 -52 -144 -144
-145 -145 0 -140 0 -140 610 -610 c594 -595 610 -611 619 -658 5 -26 17 -57
27 -68 41 -46 110 -62 157 -38 12 6 111 99 219 206 l197 194 26 -17 c68 -44
172 -4 196 76 10 33 9 47 -5 85 l-18 45 90 98 c50 53 111 117 136 142 37 35
46 51 46 78 0 33 -2 32 -165 -125 -163 -157 -165 -159 -204 -155 -76 7 -146
-64 -140 -142 3 -29 -6 -43 -68 -110 -39 -42 -107 -110 -151 -151 l-80 -75
-20 34 c-42 71 -117 89 -187 46 l-37 -23 -584 584 -584 584 0 140 0 140 124
124 123 123 31 -16 c113 -58 234 63 176 176 l-16 31 279 279 c181 182 283 277
293 274 86 -28 95 -29 133 -11 21 9 45 30 54 46 17 29 18 29 113 29 l95 0 407
-407 408 -408 0 40 c0 39 -7 47 -408 448 l-407 407 -92 0 -92 0 -16 30 c-32
62 -104 85 -172 55z m91 -78 c38 -28 13 -97 -35 -97 -26 0 -49 28 -49 60 0 44
47 64 84 37z m-756 -753 c12 -8 22 -26 22 -39 0 -52 -65 -74 -94 -33 -21 30
-20 44 4 68 24 24 38 25 68 4z m1517 -1514 c23 -25 13 -67 -20 -82 -52 -23
-100 46 -59 86 21 22 57 20 79 -4z m-577 -366 c24 -17 30 -62 10 -82 -37 -37
-113 12 -89 57 10 18 37 40 51 41 3 0 16 -7 28 -16z"/>
<path d="M11218 9303 l-418 -418 0 -145 0 -145 513 -513 512 -512 80 0 80 0
408 408 c400 400 407 408 407 447 l0 40 -408 -408 -407 -407 -80 0 -80 0 -479
479 -478 478 4 137 4 136 379 380 380 380 175 0 175 0 165 -165 164 -164 -12
-34 c-16 -45 -15 -72 4 -113 30 -63 99 -88 171 -62 l34 12 144 -144 145 -145
0 39 c0 35 -9 47 -126 166 l-126 128 7 44 c4 31 1 52 -12 77 -29 55 -65 76
-134 76 l-59 0 -174 174 c-201 201 -178 190 -401 191 l-139 0 -418 -417z
m1242 -43 c24 -24 25 -38 4 -68 -18 -26 -50 -28 -76 -5 -25 22 -23 59 4 77 30
21 44 20 68 -4z"/>
<path d="M11406 9191 l-228 -228 -33 10 c-47 14 -97 1 -133 -34 -70 -68 -43
-183 51 -218 25 -10 27 -14 27 -68 0 -53 3 -60 37 -95 31 -31 37 -45 35 -72
-7 -81 54 -146 138 -146 l45 0 235 -235 235 -235 90 0 90 0 362 363 363 362 0
45 0 44 -367 368 -368 368 -175 0 -175 0 -229 -229z m906 -178 l328 -328 0
-45 0 -45 -328 -328 -328 -327 -79 0 -80 0 -212 212 c-117 117 -213 218 -213
224 0 7 7 25 15 40 57 111 -72 227 -186 168 -45 -23 -59 -6 -59 73 0 58 3 69
30 99 36 42 45 72 34 122 -4 20 -8 40 -8 44 -1 4 91 100 203 213 l204 205 176
0 176 0 327 -327z m-1167 -133 c15 -16 17 -26 9 -48 -8 -22 -16 -28 -47 -30
-32 -3 -38 0 -47 24 -22 57 44 99 85 54z m195 -379 c23 -43 -1 -81 -51 -81
-38 0 -58 37 -41 75 15 32 75 36 92 6z"/>
<path d="M11644 9123 c-12 -2 -73 -57 -138 -122 l-116 -118 0 -144 0 -144 218
-218 217 -217 80 0 80 0 218 218 217 217 0 48 c0 40 -5 53 -36 87 -34 37 -35
41 -23 73 37 102 -62 201 -169 169 -36 -11 -36 -11 -117 67 l-81 78 -115 6
c-119 7 -199 7 -235 0z m406 -139 c67 -64 68 -66 57 -99 -14 -47 5 -106 45
-140 28 -24 38 -26 93 -23 81 4 95 -8 95 -76 l0 -51 -177 -177 -178 -178 -80
0 -80 0 -177 178 -177 177 -2 144 -1 145 85 83 84 83 173 0 172 0 68 -66z
m225 -104 c15 -16 17 -26 9 -48 -8 -23 -15 -27 -49 -27 -34 0 -41 4 -49 27
-12 33 14 68 49 68 12 0 30 -9 40 -20z"/>
<path d="M11687 8823 c-4 -3 -7 -56 -7 -116 l0 -109 67 -69 66 -69 89 0 88 0
65 65 c65 65 71 76 65 145 -1 16 -26 50 -68 93 l-66 67 -147 0 c-80 0 -149 -3
-152 -7z m330 -105 c27 -26 33 -40 33 -74 0 -34 -6 -49 -31 -73 -29 -30 -34
-31 -118 -31 -83 0 -89 2 -114 28 -25 26 -27 35 -27 105 l0 77 112 0 112 0 33
-32z"/>
<path d="M0 9155 c0 -38 7 -47 215 -255 212 -213 215 -217 215 -258 l0 -42
-47 0 c-29 0 -60 -7 -79 -19 -39 -24 -68 -83 -60 -124 5 -30 -2 -41 -119 -164
-108 -114 -125 -136 -125 -164 l0 -34 103 100 c189 185 182 180 208 161 13 -9
41 -16 62 -16 103 0 168 102 122 191 -14 27 -14 32 0 51 8 13 15 40 15 62 0
39 -7 47 -255 296 l-255 255 0 -40z m418 -653 c42 -53 -37 -113 -83 -62 -22
25 -13 68 18 79 26 10 47 4 65 -17z"/>
<path d="M0 8865 c0 -37 7 -47 65 -105 63 -62 65 -66 65 -115 0 -49 -2 -53
-65 -115 -58 -58 -65 -68 -65 -105 l0 -40 105 105 105 105 0 50 0 50 -105 105
-105 105 0 -40z"/>
<path d="M8122 8397 l-242 -242 0 -152 c0 -141 -1 -152 -19 -158 -27 -8 -79
-69 -87 -101 -12 -47 13 -102 62 -137 l44 -31 0 -237 0 -237 -34 -20 c-47 -28
-71 -68 -71 -117 0 -49 24 -89 71 -117 l34 -20 0 -239 0 -239 -41 -25 c-40
-26 -69 -74 -69 -115 0 -39 38 -97 75 -114 l35 -17 0 -242 0 -242 -39 -22
c-93 -53 -91 -185 4 -230 l35 -17 0 -242 0 -242 -34 -20 c-47 -28 -71 -68 -71
-117 0 -49 24 -89 71 -117 l34 -20 0 -238 0 -237 -41 -27 c-50 -34 -73 -83
-64 -138 l7 -40 -298 -299 -299 -299 -530 0 c-512 0 -531 1 -560 20 -104 69
-239 -39 -195 -156 11 -27 5 -34 -150 -189 l-160 -160 0 -116 0 -115 -30 -29
c-57 -54 -59 -136 -5 -190 39 -38 84 -48 137 -30 35 12 38 11 62 -14 20 -21
26 -37 26 -72 0 -38 -4 -49 -29 -67 -62 -45 -65 -138 -6 -195 l35 -34 0 -248
0 -248 -35 -34 c-59 -57 -57 -139 5 -198 l30 -29 0 -246 0 -246 -30 -29 c-62
-59 -62 -141 0 -200 l30 -29 0 -178 0 -178 343 0 343 0 39 -40 c33 -34 46 -40
79 -40 l41 0 -80 80 -80 80 -302 0 -303 0 0 134 0 134 35 21 c42 25 75 75 75
116 0 41 -33 91 -75 116 l-35 21 0 241 0 242 33 15 c82 38 100 140 36 206 -18
19 -41 36 -51 40 -17 5 -18 23 -18 248 l0 242 35 17 c47 22 70 61 70 117 0 56
-23 95 -70 117 -31 15 -35 21 -35 55 0 32 -8 47 -45 87 -43 46 -44 49 -39 97
7 62 -18 110 -69 137 l-37 19 0 112 0 111 138 137 137 138 52 -7 c86 -10 141
26 158 104 l7 33 511 0 511 0 321 319 c316 315 320 320 345 306 59 -34 144 -5
174 59 29 61 16 115 -38 165 l-26 24 0 245 0 245 35 38 c59 66 59 131 0 189
l-35 34 0 251 0 251 29 22 c62 45 65 138 6 195 l-35 34 0 249 0 250 35 32 c59
56 56 148 -6 194 l-29 22 0 249 0 250 35 38 c59 66 59 131 0 189 l-35 34 0
246 0 246 30 29 c62 59 64 141 5 198 l-35 34 0 159 0 159 198 198 197 197 820
0 820 0 758 -758 757 -758 0 -2283 0 -2284 -95 -96 -95 -97 0 -1142 0 -1142
40 0 40 0 0 1147 0 1148 93 93 92 92 -3 2283 -4 2282 -774 775 c-566 567 -774
781 -774 798 l0 22 -833 0 -832 0 -243 -243z m-177 -647 c21 -24 14 -65 -15
-80 -48 -26 -95 30 -65 76 19 29 55 31 80 4z m-7 -746 c26 -18 28 -50 5 -76
-32 -35 -93 -10 -93 38 0 22 33 54 55 54 6 0 21 -7 33 -16z m12 -763 c14 -27
13 -47 -6 -65 -40 -41 -105 4 -85 58 9 21 17 26 45 26 25 0 38 -6 46 -19z m-6
-747 c22 -21 20 -50 -5 -75 -22 -22 -55 -19 -76 9 -28 35 -3 82 42 82 13 0 31
-7 39 -16z m1 -754 c36 -40 -7 -100 -58 -81 -31 12 -41 49 -21 78 18 28 55 30
79 3z m9 -772 c8 -22 6 -32 -9 -48 -41 -45 -107 -3 -85 54 9 24 15 27 47 24
31 -2 39 -8 47 -30z m-1891 -736 c24 -21 21 -47 -9 -71 -27 -21 -60 -17 -77
11 -15 22 1 68 26 77 23 9 32 7 60 -17z m-379 -748 c9 -8 16 -24 16 -35 0 -23
-34 -59 -55 -59 -18 0 -55 35 -55 53 0 46 62 73 94 41z m196 -385 c16 -28 5
-66 -21 -74 -33 -11 -68 3 -75 29 -9 39 11 66 51 66 25 0 37 -6 45 -21z m-6
-745 c9 -8 16 -24 16 -35 0 -23 -34 -59 -55 -59 -20 0 -55 36 -55 57 0 44 63
69 94 37z m-6 -750 c26 -18 28 -50 5 -76 -20 -22 -51 -23 -75 -1 -22 20 -23
42 -2 71 18 26 41 28 72 6z"/>
<path d="M417 8032 c-390 -390 -417 -419 -417 -452 0 -34 14 -21 418 383 l418
417 1064 -2 1065 -3 3 -262 2 -261 -30 -22 c-44 -32 -63 -74 -57 -129 4 -38
12 -52 46 -82 l41 -37 0 -240 0 -241 -41 -38 c-31 -29 -42 -48 -46 -79 -7 -52
18 -108 58 -131 l29 -17 0 -247 0 -247 -25 -16 c-94 -62 -81 -200 23 -236 32
-11 80 -53 208 -182 l167 -167 -5 -75 c-5 -69 -8 -78 -41 -116 -32 -35 -37
-47 -37 -90 0 -44 5 -55 38 -91 l37 -42 3 -241 4 -241 -41 -42 c-36 -36 -41
-47 -41 -88 0 -54 12 -81 48 -112 l27 -23 0 -250 0 -250 -27 -23 c-36 -31 -48
-58 -48 -113 0 -46 1 -48 107 -156 l107 -108 -18 -50 c-21 -58 -15 -97 21
-140 38 -45 89 -57 152 -34 l52 18 275 -275 276 -276 -16 -31 c-63 -123 54
-244 179 -185 l36 17 117 -117 117 -117 180 0 180 0 103 -103 102 -102 0 -227
0 -227 -27 -21 c-83 -65 -85 -168 -4 -228 l31 -23 0 -240 0 -241 -41 -37 c-34
-30 -42 -44 -46 -82 -6 -55 13 -97 57 -129 l30 -21 0 -244 0 -244 -30 -21
c-44 -32 -63 -74 -57 -129 4 -38 12 -52 46 -82 28 -25 41 -45 41 -63 0 -24 4
-26 40 -26 38 0 40 2 40 30 0 23 6 33 25 42 14 6 35 27 46 45 40 64 10 169
-53 189 -17 5 -18 21 -18 252 l0 246 42 36 c37 33 41 41 46 93 l5 58 -47 44
-46 45 0 243 0 243 30 17 c80 48 80 176 0 224 l-30 17 0 231 0 230 -95 95
c-89 88 -94 96 -97 139 l-3 46 -230 3 -230 2 -97 101 c-96 98 -98 101 -98 147
0 84 -52 136 -134 135 l-51 0 -285 286 -285 286 0 50 c0 81 -62 140 -139 134
-34 -3 -65 17 -124 83 l-23 26 36 22 c48 30 69 72 62 127 -5 46 -42 97 -79
109 -17 5 -18 22 -18 253 l0 247 33 16 c37 18 67 69 67 115 0 41 -32 95 -68
113 l-32 15 0 245 0 245 30 17 c39 22 70 74 70 118 0 44 -30 95 -70 115 -29
15 -30 17 -30 92 l0 76 -171 173 -171 174 31 35 c25 29 31 45 31 81 0 56 -22
99 -60 119 l-30 16 0 248 0 248 25 11 c35 16 65 70 65 117 0 47 -30 101 -65
117 l-25 11 0 248 0 247 33 21 c41 25 57 58 57 118 0 42 -4 50 -45 89 l-45 41
0 297 0 296 -1108 0 -1107 0 -418 -418z m2631 -274 c7 -7 12 -27 12 -45 0 -26
-6 -36 -25 -45 -52 -23 -100 46 -59 86 18 19 55 21 72 4z m-7 -748 c13 -7 19
-21 19 -45 0 -50 -50 -73 -84 -39 -31 30 -10 94 30 94 9 0 24 -5 35 -10z m15
-775 c15 -23 15 -27 0 -50 -28 -43 -96 -26 -96 23 0 35 17 52 52 52 18 0 33
-8 44 -25z m374 -744 c17 -32 11 -60 -15 -77 -23 -15 -27 -15 -50 0 -27 18
-34 63 -13 84 19 19 66 15 78 -7z m-6 -747 c41 -40 -7 -109 -59 -86 -49 22
-28 102 26 102 10 0 25 -7 33 -16z m-6 -750 c49 -34 14 -104 -44 -90 -45 12
-52 79 -10 96 29 12 29 12 54 -6z m194 -381 c26 -23 23 -59 -7 -79 -51 -33
-104 21 -71 71 19 29 51 32 78 8z m750 -750 c27 -24 24 -71 -7 -85 -41 -18
-75 3 -75 46 0 52 45 73 82 39z m939 -1123 c30 -17 26 -77 -6 -92 -37 -17 -75
3 -75 39 0 32 9 48 30 56 23 8 30 8 51 -3z m-3 -756 c24 -17 30 -62 10 -82 -7
-7 -24 -12 -38 -12 -33 0 -50 17 -50 51 0 24 30 59 50 59 3 0 16 -7 28 -16z
m10 -756 c7 -7 12 -24 12 -38 0 -33 -17 -50 -50 -50 -33 0 -50 17 -50 50 0 33
17 50 50 50 14 0 31 -5 38 -12z"/>
<path d="M8272 8257 l-92 -92 -2 -2088 -3 -2087 -501 -501 -500 -500 -549 2
-548 1 -98 -98 -99 -99 0 -155 0 -155 95 -95 95 -95 2 -960 3 -960 200 -3 200
-3 186 -185 c180 -180 187 -185 223 -182 l36 3 -222 222 -223 222 -160 3 -160
3 -3 917 -2 917 -95 96 -95 97 0 160 0 161 60 60 60 60 547 -6 548 -5 538 536
537 537 0 2085 0 2086 58 57 58 57 809 0 810 0 229 -229 228 -228 -17 -33
c-25 -47 -15 -113 21 -151 46 -48 106 -55 171 -21 17 10 53 -23 306 -276 l287
-287 0 -2285 0 -2285 -90 -90 -90 -90 0 -1147 0 -1148 35 0 35 0 0 1143 0
1142 95 95 95 95 0 2285 0 2285 -310 310 -310 309 2 48 c1 81 -57 138 -142
138 l-44 0 -251 250 -251 250 -810 0 -809 0 -93 -93z m2317 -519 c15 -25 14
-29 -8 -52 -28 -30 -47 -33 -73 -9 -21 19 -24 63 -6 81 22 22 71 10 87 -20z"/>
<path d="M880 8209 c-19 -12 -39 -29 -44 -38 -5 -9 -195 -203 -422 -431 -406
-408 -414 -416 -414 -455 l0 -40 405 405 c327 326 407 402 416 390 5 -8 14
-23 20 -33 13 -23 68 -47 106 -47 42 0 90 34 113 80 20 38 22 40 69 40 47 0
50 -2 68 -37 26 -54 77 -86 129 -80 54 6 89 30 111 78 18 37 19 38 70 39 47 0
53 -2 59 -24 3 -13 21 -38 39 -56 67 -65 166 -45 208 43 18 36 21 37 70 37 51
0 52 -1 68 -39 22 -51 61 -76 119 -76 58 0 97 25 119 76 16 38 17 39 69 39 48
0 53 -2 63 -27 23 -63 90 -101 154 -89 37 7 93 58 101 93 5 20 13 23 50 23
l44 0 0 -977 0 -977 185 -186 185 -186 0 -969 0 -970 760 -760 760 -760 0
-1147 0 -1148 40 0 40 0 0 1148 0 1147 -760 760 -760 760 0 969 0 970 -185
186 -185 186 0 1017 0 1017 -93 0 c-86 0 -95 2 -116 24 -52 56 -125 58 -185 6
-29 -26 -41 -30 -95 -30 -53 0 -67 4 -99 29 -67 52 -124 53 -182 1 -30 -27
-40 -30 -100 -30 -58 0 -69 3 -90 25 -51 55 -139 54 -190 0 -21 -22 -32 -25
-95 -25 -63 0 -74 3 -94 24 -52 56 -125 58 -185 6 -29 -26 -41 -30 -95 -30
-54 0 -67 4 -101 31 -50 41 -103 47 -150 18z m92 -71 c28 -22 31 -55 9 -77
-37 -37 -91 -20 -91 29 0 50 45 76 82 48z m395 -24 c10 -26 -7 -63 -31 -70
-48 -12 -89 34 -67 75 19 34 84 31 98 -5z m354 26 c17 0 30 -50 19 -71 -24
-44 -100 -27 -100 23 0 25 38 61 57 54 8 -3 19 -6 24 -6z m375 2 c39 -26 33
-87 -10 -98 -36 -9 -66 11 -66 46 0 46 42 75 76 52z m382 -8 c45 -31 11 -103
-42 -90 -34 8 -49 37 -37 70 8 21 18 28 51 35 3 0 16 -6 28 -15z"/>
<path d="M826 7857 c-12 -9 -36 -12 -65 -10 -85 7 -148 -58 -138 -143 l4 -42
-287 -287 c-262 -262 -290 -287 -314 -281 -25 6 -26 4 -26 -33 0 -31 4 -41 20
-46 46 -15 49 -77 4 -97 l-24 -11 0 -318 c0 -309 1 -318 20 -324 46 -15 49
-72 4 -101 l-24 -16 0 -314 c0 -302 1 -314 20 -324 45 -24 47 -78 4 -100 l-24
-13 0 -318 c0 -312 0 -318 21 -324 46 -15 46 -85 -1 -100 -16 -5 -20 -15 -20
-47 0 -39 1 -40 27 -33 40 10 79 41 93 75 12 28 16 30 65 30 50 0 54 -2 73
-34 28 -47 68 -71 117 -71 49 0 89 24 117 71 19 32 23 34 74 34 52 0 54 -1 73
-38 49 -95 185 -90 236 9 13 24 22 29 54 29 l38 0 6 137 c5 99 10 139 19 142
7 2 28 19 46 37 27 27 32 39 32 78 0 58 -21 101 -59 120 -16 9 -30 21 -33 28
-2 7 -2 119 0 249 l4 237 24 11 c34 15 64 69 64 116 0 47 -30 101 -64 116 -28
13 -36 35 -36 107 l0 52 38 0 c20 -1 48 -7 62 -15 14 -8 41 -14 60 -14 19 0
46 6 60 14 35 20 206 20 253 0 45 -19 94 -19 127 0 17 10 57 14 125 14 68 0
108 -4 125 -14 33 -19 79 -19 123 0 48 20 222 20 257 0 33 -19 82 -19 124 1
19 10 44 14 58 11 13 -4 98 -82 189 -174 128 -130 167 -176 172 -202 4 -18 7
-457 7 -974 l0 -941 266 -267 c235 -238 264 -270 255 -288 -6 -11 -11 -40 -11
-65 0 -38 6 -52 33 -81 41 -45 81 -57 132 -39 23 7 45 9 54 4 9 -4 137 -130
284 -279 209 -212 267 -276 261 -289 -4 -9 -9 -35 -12 -56 -6 -56 20 -100 76
-128 44 -21 48 -21 90 -6 44 16 45 16 68 -7 18 -19 24 -35 24 -71 0 -39 -5
-53 -36 -87 -34 -37 -36 -43 -32 -94 4 -43 11 -60 36 -86 l32 -33 0 -249 0
-249 -32 -33 c-25 -26 -32 -43 -36 -86 -4 -51 -2 -57 32 -94 l36 -40 0 -256
c0 -246 -1 -257 -20 -267 -28 -15 -50 -62 -50 -107 0 -40 30 -100 55 -109 13
-5 15 -41 15 -230 l0 -224 40 0 40 0 0 215 0 214 36 17 c98 47 98 192 -1 238
l-35 17 0 242 1 242 37 17 c97 45 95 188 -3 235 l-35 17 0 242 0 242 29 12
c55 23 76 55 76 120 0 51 -4 63 -29 89 -15 16 -39 32 -52 35 -21 6 -24 12 -24
52 0 40 -5 51 -45 91 -37 39 -43 51 -38 72 17 64 -4 117 -60 152 -26 16 -42
19 -86 14 l-53 -5 -279 278 -278 279 5 50 c13 104 -75 180 -172 149 -18 -6
-61 32 -273 243 l-251 250 0 968 0 967 -180 181 -180 181 0 172 c0 168 0 172
21 172 27 0 86 58 95 93 16 65 -21 137 -81 158 l-35 13 0 241 0 240 40 17
c105 44 105 188 0 240 l-35 18 -5 192 -5 193 -806 3 c-662 2 -808 0 -823 -11z
m-31 -107 c41 -46 -29 -116 -75 -75 -24 22 -26 58 -4 79 21 22 57 20 79 -4z
m380 -4 c32 -48 -22 -104 -73 -77 -29 16 -37 48 -18 76 22 34 70 34 91 1z
m370 8 c23 -24 15 -66 -16 -83 -24 -13 -29 -13 -53 2 -30 20 -35 57 -10 81 20
21 58 20 79 0z m380 -4 c41 -46 -29 -116 -75 -75 -22 20 -27 64 -8 83 19 19
63 14 83 -8z m373 8 c17 -17 15 -64 -4 -82 -21 -22 -50 -20 -74 4 -24 24 -25
38 -4 68 17 24 62 30 82 10z m-1698 -378 c38 -38 18 -90 -35 -90 -54 0 -76 64
-33 94 30 21 44 20 68 -4z m380 0 c24 -24 25 -47 3 -72 -18 -20 -63 -24 -81
-6 -29 29 -1 98 40 98 10 0 27 -9 38 -20z m372 3 c20 -18 24 -63 6 -81 -17
-17 -64 -15 -82 4 -22 21 -20 50 4 74 24 24 47 25 72 3z m378 -3 c23 -23 26
-49 7 -74 -16 -21 -60 -24 -82 -6 -23 19 -19 66 7 84 30 21 44 20 68 -4z m380
0 c27 -27 25 -55 -6 -79 -34 -27 -40 -26 -69 4 -30 29 -31 35 -4 69 24 31 52
33 79 6z m368 4 c41 -28 22 -94 -28 -94 -55 0 -78 52 -40 90 24 24 38 25 68 4z
m-2066 -381 c35 -32 13 -93 -34 -93 -49 0 -74 56 -41 92 20 22 51 23 75 1z
m380 0 c22 -20 23 -51 1 -75 -33 -36 -93 -13 -93 37 0 49 55 72 92 38z m372 4
c11 -8 19 -26 19 -42 0 -57 -74 -74 -102 -24 -29 53 34 102 83 66z m378 -4
c35 -32 13 -93 -34 -93 -49 0 -74 56 -41 92 20 22 51 23 75 1z m388 -15 c25
-46 -16 -90 -67 -72 -22 7 -29 16 -31 44 -6 62 67 83 98 28z m364 19 c11 -8
19 -26 19 -42 0 -57 -74 -74 -102 -24 -29 53 34 102 83 66z m-2066 -379 c19
-19 14 -63 -8 -83 -46 -41 -116 29 -75 75 20 22 64 27 83 8z m382 -7 c17 -33
11 -60 -16 -78 -24 -15 -29 -15 -53 -2 -29 16 -38 48 -21 78 15 28 75 29 90 2z
m375 -1 c25 -28 10 -71 -29 -85 -25 -8 -31 -6 -52 18 -50 58 30 124 81 67z
m373 8 c29 -29 1 -98 -40 -98 -24 0 -58 35 -58 59 0 42 68 69 98 39z m376 -4
c22 -21 20 -50 -4 -74 -24 -24 -38 -25 -68 -4 -24 17 -30 62 -10 82 17 17 64
15 82 -4z m382 -9 c19 -28 11 -60 -18 -76 -51 -27 -105 29 -73 77 21 33 69 33
91 -1z m374 6 c17 -32 11 -60 -15 -77 -52 -34 -111 31 -70 76 23 26 71 26 85
1z m-2078 -368 c20 -18 24 -63 6 -81 -20 -20 -76 -15 -88 7 -15 29 -12 49 10
71 24 24 47 25 72 3z m378 -3 c24 -24 26 -53 4 -74 -18 -19 -65 -21 -82 -4
-29 29 -1 98 40 98 10 0 27 -9 38 -20z m366 12 c6 -4 16 -16 22 -28 28 -54
-57 -103 -92 -52 -21 30 -20 44 4 68 21 21 47 25 66 12z m382 -8 c41 -29 19
-94 -33 -94 -51 0 -71 54 -35 90 24 24 38 25 68 4z m382 -4 c24 -24 25 -47 3
-72 -18 -20 -63 -24 -81 -6 -29 29 -1 98 40 98 10 0 27 -9 38 -20z m372 3 c20
-18 24 -63 6 -81 -20 -20 -65 -14 -82 10 -21 30 -20 44 4 68 24 24 47 25 72 3z
m-2071 -373 c26 -15 26 -75 0 -90 -28 -14 -52 -12 -73 7 -22 20 -23 42 -2 71
16 24 44 28 75 12z m381 -7 c34 -31 11 -93 -35 -93 -27 0 -57 28 -57 53 0 48
56 73 92 40z m378 -3 c11 -11 20 -27 20 -35 0 -20 -36 -55 -56 -55 -34 0 -54
20 -54 55 0 53 52 73 90 35z m-562 -373 c21 -17 14 -65 -13 -83 -44 -29 -94 9
-81 62 10 39 57 49 94 21z m357 11 c45 -21 42 -88 -5 -103 -56 -18 -96 66 -48
99 27 19 21 19 53 4z m-553 -385 c20 -18 24 -63 6 -81 -29 -29 -98 -1 -98 40
0 23 34 58 57 58 9 0 25 -7 35 -17z m376 1 c44 -30 18 -94 -38 -94 -46 0 -66
55 -33 92 20 22 42 23 71 2z m382 -6 c24 -26 25 -37 4 -66 -17 -24 -62 -30
-82 -10 -29 29 -1 98 39 98 10 0 27 -10 39 -22z m-566 -374 c22 -21 20 -57 -4
-79 -46 -41 -116 29 -75 75 22 24 58 26 79 4z m382 -9 c20 -30 11 -62 -21 -77
-52 -23 -99 46 -59 86 23 24 61 20 80 -9z m2632 -1498 c15 -12 16 -59 0 -75
-37 -37 -113 12 -89 57 21 38 54 45 89 18z m753 -758 c11 -11 18 -27 15 -36
-3 -8 -6 -19 -6 -24 0 -5 -12 -14 -26 -20 -38 -14 -74 11 -74 51 0 49 54 66
91 29z m187 -372 c15 -12 16 -59 0 -75 -7 -7 -24 -12 -38 -12 -33 0 -50 17
-50 51 0 48 48 67 88 36z m0 -749 c21 -21 14 -66 -13 -84 -23 -15 -27 -15 -50
0 -17 11 -25 26 -25 44 0 35 16 52 50 52 14 0 31 -5 38 -12z m-4 -754 c26 -25
20 -72 -9 -86 -31 -14 -74 3 -76 29 -4 63 46 97 85 57z"/>
<path d="M12428 7243 l-368 -367 0 -2143 c0 -2033 -1 -2144 -17 -2149 -42 -12
-88 -41 -106 -66 -22 -30 -26 -102 -8 -135 8 -17 4 -26 -24 -53 l-35 -34 0
-1148 0 -1148 40 0 40 0 0 1149 c0 952 2 1150 14 1160 7 6 38 10 68 10 30 -1
63 3 74 9 72 39 93 121 50 194 l-26 45 2 2157 3 2156 333 333 c312 312 333
336 330 365 -3 31 -16 19 -370 -335z m-344 -4759 c35 -34 11 -84 -40 -84 -28
0 -36 5 -45 26 -20 54 45 99 85 58z"/>
<path d="M12573 7098 l-223 -223 0 -276 c0 -239 -2 -278 -16 -290 -51 -42 -55
-124 -10 -184 l26 -34 0 -256 0 -256 -26 -34 c-45 -60 -41 -142 10 -184 14
-12 16 -50 16 -274 l0 -260 -26 -34 c-45 -60 -41 -140 10 -182 14 -12 16 -50
16 -281 0 -231 -2 -269 -16 -281 -51 -42 -55 -124 -10 -184 l26 -34 0 -259 c0
-223 -2 -261 -16 -273 -57 -47 -57 -151 0 -198 14 -12 16 -54 16 -319 l0 -305
-91 -93 c-89 -90 -92 -94 -94 -143 -2 -37 -9 -58 -28 -80 -48 -58 -47 -125 4
-182 l30 -34 -3 -257 -3 -257 -27 -28 c-50 -52 -46 -133 7 -183 l25 -23 0
-252 0 -252 -30 -38 c-50 -63 -49 -128 3 -183 21 -23 22 -34 25 -248 l4 -224
34 0 34 0 0 213 1 212 42 20 c50 24 87 75 87 120 0 45 -38 97 -87 120 l-43 19
0 239 c0 218 1 238 18 243 64 19 101 60 108 120 7 56 -21 103 -80 132 l-46 23
0 234 0 234 44 20 c56 24 81 62 81 121 0 59 -25 97 -81 121 -40 18 -44 23 -44
56 0 33 10 47 95 134 l95 96 0 292 0 291 40 16 c114 46 114 202 0 248 l-40 16
0 239 0 239 30 7 c36 8 86 63 95 104 13 62 -30 133 -91 150 l-29 7 -3 240 -2
239 42 20 c56 27 83 65 83 120 0 54 -27 93 -83 120 l-41 20 -1 237 0 238 37
15 c21 9 45 23 55 32 25 22 41 79 34 118 -8 42 -55 91 -96 100 l-30 7 0 243 0
243 30 7 c41 9 88 58 96 100 7 39 -9 96 -34 118 -10 9 -34 23 -55 32 l-37 15
0 263 0 262 186 186 c180 180 185 187 182 223 l-3 36 -222 -222z m-101 -864
c8 -18 7 -29 -6 -49 -31 -46 -101 -22 -94 34 6 50 79 61 100 15z m-7 -744 c37
-41 -14 -107 -64 -81 -26 14 -36 52 -21 80 14 27 61 28 85 1z m-5 -750 c11
-11 20 -27 20 -35 0 -20 -36 -55 -57 -55 -23 0 -53 30 -53 53 0 26 28 57 52
57 10 0 27 -9 38 -20z m12 -766 c8 -18 7 -29 -6 -49 -31 -46 -101 -22 -94 34
6 50 79 61 100 15z m-3 -748 c18 -21 6 -60 -21 -73 -46 -21 -88 19 -73 68 13
40 63 42 94 5z m-187 -1131 c17 -38 -3 -75 -41 -75 -50 0 -74 38 -51 81 17 30
77 26 92 -6z m-8 -741 c9 -8 16 -24 16 -35 0 -23 -34 -59 -55 -59 -20 0 -55
36 -55 57 0 44 63 69 94 37z m-6 -750 c26 -18 28 -50 5 -76 -32 -35 -93 -10
-93 38 0 22 33 54 55 54 6 0 21 -7 33 -16z"/>
<path d="M12743 7085 c-46 -20 -74 -69 -72 -125 2 -30 -4 -55 -16 -73 -17 -26
-17 -115 -11 -2215 l7 -2187 -95 -95 -96 -95 0 -1147 0 -1148 40 0 40 0 0
1148 0 1147 90 90 90 90 0 936 c0 515 3 990 6 1057 l7 120 24 -9 c39 -14 43
-11 43 30 0 31 -4 41 -21 46 -45 14 -44 86 1 100 19 6 20 15 20 320 l0 313
-30 30 c-16 17 -30 36 -30 42 0 7 14 25 30 40 l30 28 0 311 c0 299 -1 311 -20
321 -45 24 -46 91 -1 105 21 6 21 12 21 324 l0 318 -24 11 c-45 20 -42 82 4
97 16 5 20 15 20 46 0 43 -7 46 -57 24z"/>
<path d="M1261 5953 c-19 -10 -43 -29 -53 -43 -18 -25 -19 -56 -18 -625 l0
-599 -112 -113 -113 -113 -414 0 -413 0 -39 -39 c-35 -34 -39 -44 -39 -87 1
-56 13 -83 53 -114 l27 -21 0 -245 0 -245 -40 -38 c-36 -34 -40 -43 -40 -85 0
-55 19 -96 54 -120 l26 -16 0 -250 0 -250 -26 -16 c-35 -24 -54 -65 -54 -120
0 -42 4 -51 40 -85 l40 -38 0 -108 0 -109 -70 -69 -70 -69 0 -293 c0 -275 1
-292 18 -298 46 -14 47 -86 2 -100 -19 -6 -20 -15 -20 -322 l0 -315 30 -28
c25 -23 29 -32 22 -52 -5 -12 -19 -27 -30 -33 -22 -10 -22 -12 -22 -331 l0
-321 24 -11 c37 -17 40 -50 5 -83 -26 -24 -29 -33 -29 -88 0 -48 3 -61 15 -61
9 0 15 9 15 21 0 12 21 41 50 68 45 43 50 51 50 92 0 50 -27 101 -62 120 -13
7 -26 17 -30 23 -4 6 -8 118 -8 248 l0 237 30 16 c64 33 89 124 53 186 -10 16
-20 29 -24 29 -3 0 -18 11 -33 25 l-26 24 0 235 0 234 35 22 c88 55 86 180 -4
233 l-31 18 0 231 0 231 95 96 95 97 0 101 0 101 35 22 c48 30 69 72 62 129
-4 39 -12 52 -51 87 l-46 40 0 234 0 234 46 40 c36 33 47 49 51 82 7 53 -18
107 -63 135 l-34 21 0 242 0 242 31 18 c42 25 69 73 69 124 l0 42 322 0 322 0
153 152 153 152 0 508 0 508 38 0 c55 0 104 30 127 79 19 40 21 41 70 41 47 0
51 -2 70 -37 29 -52 68 -78 120 -78 52 0 91 26 120 78 19 34 23 37 67 37 44 0
47 -2 72 -44 59 -101 184 -98 237 6 l19 38 88 0 c86 0 89 -1 120 -33 l32 -33
0 -969 0 -970 765 -765 765 -765 0 -1143 0 -1142 40 0 40 0 0 1142 0 1143
-765 765 -765 765 0 966 0 967 -64 68 -63 69 -107 6 c-98 6 -108 9 -126 32
-44 56 -137 59 -189 6 -28 -28 -37 -30 -96 -30 -59 0 -70 3 -101 30 -61 54
-125 54 -180 0 -30 -29 -39 -32 -98 -32 -62 -1 -69 2 -100 32 -42 41 -96 50
-145 24z m93 -79 c37 -37 1 -103 -49 -90 -14 4 -31 17 -37 31 -23 52 46 100
86 59z m381 -8 c34 -51 -30 -111 -75 -71 -24 22 -26 52 -3 77 23 25 59 23 78
-6z m366 14 c26 -15 26 -75 0 -90 -41 -21 -81 1 -81 45 0 44 40 66 81 45z
m-1873 -1512 c15 -15 15 -61 0 -76 -21 -21 -66 -14 -84 13 -15 23 -15 27 0 50
18 27 63 34 84 13z m-4 -754 c41 -40 -7 -109 -59 -86 -19 9 -25 19 -25 45 0
18 5 38 12 45 17 17 54 15 72 -4z m-6 -750 c38 -27 20 -94 -27 -94 -48 0 -73
69 -35 97 23 17 35 16 62 -3z"/>
<path d="M8286 3800 l-114 -112 -34 12 c-104 38 -206 -65 -168 -168 l12 -35
-279 -279 -279 -279 -50 12 c-43 10 -56 9 -87 -6 -64 -30 -97 -119 -66 -177 9
-16 7 -24 -12 -44 l-22 -24 -504 0 -503 0 0 -113 0 -112 95 -95 95 -95 0 -195
c0 -234 -4 -263 -36 -281 -57 -30 -81 -118 -49 -179 8 -15 30 -38 50 -50 l35
-22 0 -234 0 -235 -26 -24 c-15 -14 -30 -25 -34 -25 -4 0 -15 -15 -25 -34 -13
-24 -16 -46 -13 -80 6 -50 26 -79 70 -102 26 -14 28 -18 28 -84 l0 -69 53 -3
c46 -3 52 -5 49 -23 -20 -126 -12 -157 51 -195 38 -24 82 -25 121 -5 l30 16
231 -231 c223 -223 231 -230 270 -230 l40 0 -250 250 -250 250 0 59 c0 49 -4
64 -25 86 -39 42 -77 58 -124 51 -37 -5 -45 -2 -78 29 -46 43 -51 84 -13 109
67 44 73 147 11 203 l-36 33 0 250 0 250 26 16 c74 49 72 157 -3 217 -23 18
-23 21 -23 249 l0 231 -95 96 -95 97 0 72 0 72 459 0 459 0 48 44 c40 38 51
43 71 35 38 -14 75 -11 110 11 58 35 77 85 59 158 -7 31 -4 37 71 113 43 45
170 170 283 279 l206 198 40 -10 c34 -10 47 -8 80 8 70 34 100 108 70 174 -4
11 20 43 84 108 l90 92 1262 -2 1263 -3 3 -617 2 -618 -37 -15 c-80 -34 -113
-92 -93 -166 11 -41 11 -43 -24 -78 l-36 -37 0 -1147 0 -1147 40 0 40 0 0
1148 c0 1086 1 1150 18 1165 13 12 26 14 55 7 84 -18 157 33 164 117 4 40 0
55 -21 85 l-25 38 -3 664 c-2 365 -6 668 -11 672 -4 4 -588 10 -1297 12
l-1290 5 -114 -113z m-151 -190 c37 -41 -14 -107 -64 -81 -47 26 -30 101 24
101 12 0 30 -9 40 -20z m-755 -752 c25 -27 25 -43 0 -68 -53 -53 -124 16 -73
72 22 24 48 23 73 -4z m3574 -374 c40 -40 -7 -109 -59 -86 -32 15 -41 47 -21
77 19 29 57 33 80 9z m-4528 -742 c39 -26 33 -87 -10 -98 -45 -11 -73 16 -66
66 3 30 50 50 76 32z m13 -768 c19 -25 19 -45 -2 -71 -12 -16 -59 -17 -75 -1
-29 29 -1 98 39 98 10 0 27 -12 38 -26z m185 -370 c32 -31 10 -94 -33 -94 -29
0 -53 25 -53 55 0 48 54 72 86 39z"/>
<path d="M2375 3686 l-40 -25 -947 -1 -948 0 0 -589 0 -589 -95 -96 -95 -97 0
-1144 0 -1145 40 0 40 0 0 1148 0 1147 95 95 95 95 0 547 0 548 895 0 894 0
11 -39 c19 -71 100 -116 164 -91 29 11 32 8 312 -271 l282 -282 -5 -52 c-7
-62 13 -106 60 -136 26 -16 42 -19 87 -14 l55 5 203 -203 202 -203 0 -1147 0
-1147 40 0 40 0 0 1147 0 1147 -226 227 c-204 204 -225 229 -215 247 17 32 13
94 -8 128 -34 56 -94 73 -176 49 -16 -5 -75 49 -297 272 l-277 278 11 42 c34
122 -90 216 -197 149z m109 -72 c41 -40 -7 -109 -59 -86 -19 9 -25 19 -25 45
0 18 5 38 12 45 17 17 54 15 72 -4z m742 -742 c56 -37 17 -117 -47 -97 -52 17
-34 105 21 105 8 0 20 -4 26 -8z"/>
<path d="M8403 3690 c-35 -21 -63 -66 -63 -102 0 -17 -139 -162 -540 -563
l-540 -540 0 -1155 0 -1155 88 -88 c80 -80 91 -87 127 -87 l40 0 -90 90 -90
90 0 1150 0 1150 510 510 509 509 35 -26 c62 -48 157 -31 191 32 12 23 20 25
76 25 59 0 63 -2 88 -35 52 -68 145 -68 205 1 28 31 35 34 88 34 54 0 60 -2
86 -35 55 -69 149 -69 205 1 25 32 31 34 88 34 54 0 62 -3 74 -25 20 -38 60
-59 110 -59 50 0 90 21 110 59 12 22 20 25 74 25 57 0 63 -2 88 -34 56 -70
150 -70 205 -1 26 33 32 35 86 35 53 0 60 -3 88 -34 60 -69 153 -69 205 -1 26
34 28 35 95 35 l69 0 0 -528 0 -527 -90 -90 -90 -90 0 -1147 0 -1148 35 0 35
0 0 1143 0 1142 95 95 95 95 0 567 0 568 -107 0 -108 0 -17 30 c-21 37 -74 70
-111 70 -44 0 -94 -28 -118 -66 -19 -32 -24 -34 -74 -34 -49 0 -54 2 -76 35
-27 39 -73 65 -116 65 -37 0 -90 -33 -111 -70 -16 -28 -21 -30 -74 -30 -54 0
-58 2 -73 30 -20 40 -71 70 -115 70 -44 0 -95 -30 -115 -70 -15 -28 -19 -30
-73 -30 -53 0 -58 2 -74 30 -21 37 -74 70 -111 70 -44 0 -94 -28 -118 -66 -19
-32 -24 -34 -74 -34 -50 0 -55 2 -74 34 -24 38 -74 66 -118 66 -37 0 -90 -33
-111 -70 -16 -28 -21 -30 -74 -30 -54 0 -58 2 -73 30 -20 40 -71 70 -115 70
-19 0 -49 -9 -67 -20z m101 -73 c37 -27 13 -97 -33 -97 -24 0 -51 32 -51 61 0
43 47 63 84 36z m380 -3 c24 -23 20 -61 -9 -80 -31 -20 -63 -10 -76 23 -20 53
45 97 85 57z m382 -9 c33 -50 -20 -104 -71 -71 -29 19 -32 51 -8 78 23 26 59
23 79 -7z m368 12 c38 -28 13 -97 -34 -97 -28 0 -52 25 -52 55 0 30 24 55 52
55 9 0 24 -6 34 -13z m380 -3 c40 -40 -7 -109 -59 -86 -32 15 -41 47 -21 77
19 29 57 33 80 9z m374 4 c7 -7 12 -27 12 -45 0 -26 -6 -36 -25 -45 -52 -23
-100 46 -59 86 18 19 55 21 72 4z"/>
<path d="M733 3351 c-2 -10 -20 -25 -39 -34 -97 -47 -96 -188 1 -234 l35 -17
0 -242 0 -242 -37 -19 c-52 -27 -76 -75 -69 -139 6 -49 5 -51 -39 -94 -39 -38
-45 -50 -45 -85 0 -37 -3 -43 -35 -58 -47 -22 -70 -61 -70 -117 0 -56 23 -95
70 -117 l35 -17 0 -242 c0 -225 -1 -243 -18 -248 -10 -4 -33 -21 -51 -40 -64
-66 -46 -168 36 -206 l33 -15 0 -242 0 -241 -35 -21 c-42 -25 -75 -75 -75
-116 0 -41 33 -91 75 -116 l35 -21 0 -214 0 -214 40 0 40 0 0 218 0 218 30 29
c62 59 62 141 0 200 l-30 29 0 246 0 246 30 29 c62 59 64 141 5 198 l-35 34 0
248 0 248 35 34 c59 57 56 150 -6 195 -25 18 -29 29 -29 67 0 35 6 51 26 72
24 25 27 26 65 12 137 -47 234 121 129 222 l-30 29 0 251 0 251 30 29 c48 46
55 94 25 168 -7 16 33 17 756 17 l764 0 358 -358 c280 -280 357 -363 357 -382
0 -36 185 -220 221 -220 14 0 35 -10 47 -23 21 -22 22 -33 22 -189 0 -91 -3
-192 -6 -226 -6 -58 -8 -60 -45 -75 -107 -42 -104 -211 5 -247 l34 -11 7 -104
c4 -58 4 -168 0 -245 -7 -119 -10 -140 -24 -140 -23 0 -73 -35 -87 -62 -8 -13
-13 -44 -14 -70 0 -55 32 -100 84 -119 l34 -12 7 -113 c4 -62 4 -171 0 -242
l-7 -129 -34 -12 c-51 -19 -84 -64 -84 -117 0 -25 7 -58 15 -74 15 -30 61 -60
90 -60 10 0 15 -10 15 -30 0 -28 2 -30 40 -30 38 0 40 1 40 33 0 19 12 50 30
76 43 63 37 138 -14 180 -14 12 -16 50 -16 276 0 226 2 264 16 276 51 42 57
117 14 180 l-30 44 0 254 0 254 27 36 c22 28 28 47 28 87 0 40 -6 58 -28 87
l-27 36 0 239 0 239 -59 56 c-45 43 -67 57 -89 57 -40 0 -132 96 -132 137 0
23 -64 91 -398 425 l-397 398 -824 0 c-793 0 -823 -1 -828 -19z m67 -147 c0
-57 -65 -80 -91 -32 -25 47 20 97 69 75 16 -8 22 -19 22 -43z m-7 -725 c10
-13 12 -30 8 -47 -6 -21 -14 -28 -40 -30 -39 -4 -61 12 -61 44 0 50 65 73 93
33z m-183 -378 c23 -43 -1 -81 -51 -81 -38 0 -58 37 -41 75 15 32 75 36 92 6z
m2808 -367 c38 -27 20 -94 -27 -94 -52 0 -76 81 -28 100 30 12 30 12 55 -6z
m-2816 -381 c10 -9 18 -24 18 -35 0 -22 -34 -58 -55 -58 -21 0 -55 36 -55 59
0 45 57 66 92 34z m2816 -369 c40 -28 22 -94 -27 -94 -51 0 -72 50 -36 86 28
28 33 29 63 8z m-2818 -384 c26 -26 25 -55 -2 -74 -29 -20 -47 -20 -70 1 -22
20 -23 42 -2 71 19 27 48 28 74 2z m2828 -372 c7 -7 12 -24 12 -38 0 -34 -17
-50 -52 -50 -18 0 -33 8 -44 25 -15 23 -15 27 0 50 18 27 63 34 84 13z"/>
<path d="M8246 3330 c-79 -24 -119 -117 -80 -192 l16 -30 -316 -317 -316 -317
0 -1148 0 -1149 87 -88 c81 -83 89 -89 127 -89 l41 0 -88 88 -87 87 0 1150 0
1150 300 300 299 299 46 -3 c79 -5 127 39 141 129 l7 40 953 0 954 0 0 -140 0
-139 -27 -15 c-104 -54 -109 -187 -10 -239 l37 -19 0 -101 0 -101 -95 -97 -95
-96 0 -231 0 -230 -35 -21 c-96 -56 -98 -177 -5 -230 l40 -22 0 -243 0 -242
-35 -17 c-95 -45 -97 -177 -4 -230 l39 -22 0 -240 0 -240 -39 -22 c-39 -22
-71 -73 -71 -112 0 -42 29 -90 69 -117 29 -19 41 -34 41 -50 0 -21 5 -24 40
-24 39 0 40 1 40 33 0 25 7 39 29 55 35 25 55 81 47 126 -4 18 -21 47 -41 66
l-35 34 0 249 0 250 35 34 c59 57 56 150 -6 195 l-29 22 0 251 0 251 30 29
c62 59 62 141 0 200 l-30 29 0 236 0 235 95 95 95 95 0 105 c0 105 0 107 30
135 59 57 59 149 0 199 l-30 25 0 179 0 179 -212 7 c-117 4 -582 6 -1033 6
-538 0 -832 3 -855 10 -19 5 -35 10 -35 9 0 0 -13 -5 -29 -9z m88 -113 c8 -12
8 -22 0 -34 -35 -56 -99 -45 -99 17 0 62 64 73 99 17z m2047 -347 c13 -7 19
-21 19 -43 0 -38 -15 -57 -46 -57 -48 0 -70 55 -37 92 18 20 36 23 64 8z
m-171 -1152 c18 -33 7 -58 -33 -72 -51 -18 -88 45 -50 86 24 26 64 19 83 -14z
m-10 -738 c24 -24 26 -53 4 -74 -32 -33 -94 -10 -94 35 0 23 34 59 55 59 8 0
24 -9 35 -20z m4 -756 c33 -32 9 -86 -39 -86 -30 0 -55 24 -55 53 0 25 27 49
55 49 13 0 31 -7 39 -16z"/>
<path d="M1028 2775 l-3 -295 -92 -93 -93 -92 0 -1148 0 -1147 40 0 40 0 0
1147 0 1148 93 92 92 93 3 255 4 255 636 0 637 0 207 -207 c156 -156 208 -214
208 -232 0 -18 33 -58 120 -146 l120 -121 0 -1142 0 -1142 40 0 40 0 0 1142 0
1141 -120 122 c-88 88 -120 128 -120 146 0 18 -58 82 -248 272 l-247 247 -677
0 -677 0 -3 -295z"/>
<path d="M8166 2801 c-218 -218 -219 -219 -268 -223 -36 -4 -57 -13 -78 -33
-62 -59 -64 -129 -5 -194 l35 -38 -3 -246 -2 -246 -27 -28 c-59 -62 -60 -129
-1 -193 l35 -40 -4 -247 -4 -248 -31 -33 c-34 -35 -50 -86 -38 -122 4 -12 21
-38 38 -57 l32 -36 0 -253 0 -253 -32 -33 c-39 -40 -49 -83 -33 -132 18 -55
65 -86 132 -86 47 0 58 -4 83 -30 23 -24 37 -30 69 -30 l40 0 -48 49 -48 49
16 30 c34 65 9 138 -60 178 l-44 26 0 233 0 234 42 23 c102 57 101 185 -2 238
l-40 21 2 237 3 237 25 12 c77 37 111 127 71 190 -11 18 -38 44 -61 58 l-40
25 0 194 c0 253 3 277 43 296 69 34 94 112 58 181 l-22 42 193 194 193 193
822 0 823 0 0 -232 0 -233 -92 -93 -93 -92 -3 -1145 -2 -1145 40 0 40 0 0
1143 0 1142 95 95 95 95 0 272 0 273 -863 0 -862 0 -219 -219z m-221 -321 c37
-41 -14 -107 -63 -81 -29 16 -37 47 -18 76 20 30 56 32 81 5z m-7 -746 c45
-31 11 -103 -42 -90 -34 8 -49 37 -37 70 8 21 18 28 51 35 3 0 16 -6 28 -15z
m2 -754 c36 -36 16 -90 -35 -90 -62 0 -73 82 -15 103 25 9 29 8 50 -13z m4
-756 c9 -8 16 -23 16 -33 0 -54 -80 -75 -102 -26 -23 52 46 100 86 59z"/>
<path d="M1326 2743 c-3 -21 -6 -90 -6 -153 l0 -115 -92 -93 -93 -92 -3 -1145
-2 -1145 40 0 40 0 0 1142 0 1142 95 97 95 96 0 112 0 111 493 0 494 0 63 -66
63 -65 -6 -70 c-3 -39 -1 -82 4 -97 24 -63 87 -97 153 -82 25 5 41 3 55 -7 21
-14 21 -15 21 -1164 l0 -1149 40 0 40 0 0 1145 0 1145 -36 40 c-33 37 -35 42
-25 71 15 45 14 69 -7 108 -23 43 -74 71 -127 71 -38 0 -47 6 -140 100 l-100
100 -526 0 -526 0 -7 -37z m1349 -263 c15 -16 17 -26 9 -48 -8 -23 -15 -27
-49 -27 -34 0 -41 4 -49 27 -12 33 14 68 49 68 12 0 30 -9 40 -20z"/>
<path d="M8270 2605 l-130 -129 0 -1150 0 -1151 87 -87 88 -88 657 0 658 0 0
214 0 214 35 22 c20 12 42 35 50 50 34 65 7 154 -54 181 l-31 14 0 245 0 245
33 18 c90 49 88 185 -3 232 l-30 16 0 244 0 244 29 16 c78 40 97 135 40 199
-16 19 -39 38 -50 41 -15 5 -19 16 -19 53 0 46 2 49 95 142 l95 95 0 105 c0
58 -4 111 -8 117 -6 10 -166 14 -710 20 l-702 6 -130 -128z m1468 -39 l3 -78
-96 -99 c-92 -95 -95 -99 -95 -143 0 -40 -5 -50 -37 -80 -36 -33 -38 -38 -38
-96 0 -58 2 -63 38 -96 l37 -34 0 -250 c0 -241 -1 -250 -21 -260 -31 -17 -59
-71 -59 -115 0 -42 19 -77 57 -108 23 -18 23 -20 23 -267 l0 -250 -26 -16
c-72 -48 -72 -170 0 -218 l26 -16 0 -215 0 -215 -582 0 -583 0 -82 82 -83 83
0 1155 0 1155 85 83 85 82 673 -2 672 -3 3 -79z m-91 -472 c14 -22 14 -26 -1
-49 -22 -34 -69 -34 -91 -1 -13 19 -14 29 -6 45 24 44 70 47 98 5z m-2 -748
c13 -19 13 -28 4 -50 -28 -61 -113 -33 -100 34 9 46 70 56 96 16z m-19 -734
c39 -26 33 -87 -10 -98 -45 -11 -73 16 -66 66 3 30 50 50 76 32z"/>
<path d="M1498 2361 l-68 -70 0 -244 c0 -232 -1 -245 -20 -262 -48 -43 -47
-137 0 -180 19 -17 20 -32 20 -282 l0 -264 -26 -34 c-40 -53 -42 -101 -5 -155
l31 -45 0 -257 0 -257 -31 -50 c-37 -60 -36 -102 6 -156 16 -22 25 -47 25 -69
0 -35 1 -36 40 -36 36 0 40 3 40 25 0 19 8 28 37 40 21 9 45 23 55 32 25 22
41 79 34 118 -8 42 -55 91 -96 100 l-30 7 0 244 c0 219 2 244 16 244 30 0 82
40 99 76 33 69 3 143 -71 175 l-44 20 0 239 0 238 29 7 c29 6 70 44 90 82 30
58 -5 135 -76 168 l-43 19 0 232 0 232 31 26 31 26 407 0 407 0 30 -31 29 -30
3 -1145 2 -1144 35 0 35 0 0 1148 0 1148 -68 67 -68 67 -409 0 -409 0 -68 -69z
m46 -633 c9 -12 16 -29 16 -37 0 -21 -30 -51 -52 -51 -22 0 -58 34 -58 55 0
21 36 55 59 55 11 0 27 -10 35 -22z m-4 -748 c36 -36 16 -90 -35 -90 -62 0
-73 82 -15 103 25 9 29 8 50 -13z m4 -756 c9 -8 16 -23 16 -33 0 -55 -81 -75
-101 -25 -20 54 45 99 85 58z"/>
<path d="M12771 2304 c-20 -25 -21 -39 -21 -255 0 -222 -1 -228 -21 -243 -76
-53 -78 -171 -5 -220 l26 -16 0 -249 0 -249 -41 -41 c-41 -40 -41 -42 -37 -98
4 -50 9 -61 41 -89 l37 -31 0 -251 c0 -243 -1 -252 -21 -262 -32 -18 -59 -71
-59 -119 0 -37 6 -49 40 -83 28 -29 40 -49 40 -69 0 -24 4 -29 25 -29 24 0 25
3 25 61 0 55 -3 64 -29 88 -35 33 -32 66 5 83 l24 11 0 321 c0 319 0 321 -22
331 -11 6 -25 21 -30 33 -7 20 -3 29 22 52 l30 28 0 315 c0 310 0 316 -21 322
-42 14 -44 79 -3 97 l24 11 0 289 c0 158 -2 288 -4 288 -3 0 -14 -12 -25 -26z"/>
</g>
</svg>
