<?xml version="1.0" standalone="no"?>
<!DOCTYPE svg PUBLIC "-//W3C//DTD SVG 20010904//EN"
 "http://www.w3.org/TR/2001/REC-SVG-20010904/DTD/svg10.dtd">
<svg version="1.0" xmlns="http://www.w3.org/2000/svg"
 width="5423.000000pt" height="5423.000000pt" viewBox="0 0 5423.000000 5423.000000"
 preserveAspectRatio="xMidYMid meet">
<g transform="translate(0.000000,5423.000000) scale(0.100000,-0.100000)"
fill="#414141" stroke="none">
<path d="M0 53974 l0 -255 48 6 c229 32 402 186 447 402 24 114 51 103 -240
103 l-255 0 0 -256z"/>
<path d="M620 54198 c-1 -63 -30 -171 -67 -247 -45 -90 -158 -211 -243 -258
-72 -41 -167 -71 -246 -79 l-64 -7 0 -1303 0 -1304 48 0 c94 1 193 37 273 101
95 75 181 258 210 445 l12 81 56 6 c185 20 319 114 378 267 28 73 25 333 -5
470 -59 264 -158 526 -349 926 l-125 263 87 87 87 87 131 -63 c554 -264 793
-355 1087 -417 119 -25 354 -25 430 0 156 52 257 187 276 371 l6 62 97 16
c323 55 510 217 528 456 l6 72 -1307 0 -1306 0 0 -32z"/>
<path d="M14844 54166 c18 -179 108 -303 282 -387 78 -38 265 -89 327 -89 26
0 27 -2 27 -47 1 -150 88 -301 209 -362 67 -35 149 -51 256 -51 294 0 673 122
1249 403 l209 102 88 -87 87 -88 -119 -250 c-145 -304 -202 -440 -267 -630
-107 -315 -142 -549 -107 -714 28 -130 90 -219 193 -274 61 -33 164 -62 219
-62 36 0 33 6 54 -115 37 -218 143 -396 275 -463 102 -52 284 -69 400 -38 199
53 322 216 376 501 l23 115 30 0 c16 0 59 7 94 15 221 53 331 203 331 455 0
286 -115 645 -392 1224 l-115 240 43 37 c24 20 62 59 86 86 l43 49 205 -99
c564 -272 924 -393 1207 -405 139 -5 221 7 299 45 65 32 135 102 169 170 26
53 55 164 55 216 0 21 5 27 23 27 12 0 63 9 112 19 274 58 428 179 480 376 8
33 15 79 15 102 l0 43 -1305 0 -1305 0 0 -27 c-1 -61 -32 -173 -71 -252 -131
-266 -453 -402 -739 -312 -229 72 -405 284 -428 515 l-7 71 -1309 3 -1309 2 7
-64z"/>
<path d="M17570 54197 c0 -18 7 -59 15 -92 65 -248 308 -412 559 -376 234 33
416 221 439 454 l5 47 -509 0 -509 0 0 -33z"/>
<path d="M32920 54193 c0 -58 28 -161 57 -215 37 -68 127 -150 211 -192 77
-39 216 -80 306 -91 l54 -7 11 -73 c27 -184 111 -299 258 -356 72 -27 244 -37
365 -20 271 39 602 158 1087 393 l213 103 88 -88 88 -88 -107 -222 c-421 -870
-508 -1372 -275 -1587 72 -66 205 -119 300 -120 l31 0 17 -92 c66 -366 234
-538 525 -538 115 0 196 19 270 63 133 80 229 255 265 484 l12 77 74 12 c404
64 486 392 263 1054 -55 162 -145 372 -282 657 l-103 212 88 86 87 86 36 -15
c20 -8 120 -55 224 -105 268 -130 447 -205 647 -271 257 -85 361 -105 550
-105 138 0 161 3 213 23 146 59 240 193 254 363 l6 66 80 12 c318 49 510 200
546 431 6 36 11 73 11 83 0 16 -69 17 -1310 17 l-1310 0 0 -43 c0 -62 -25
-151 -67 -237 -50 -104 -168 -222 -273 -274 -181 -88 -373 -87 -559 5 -181 89
-300 260 -332 475 l-11 74 -1304 0 -1304 0 0 -37z"/>
<path d="M35650 54192 c0 -159 122 -339 283 -417 142 -68 305 -68 445 1 70 34
168 126 212 200 35 59 68 164 69 222 l1 32 -505 0 -505 0 0 -38z"/>
<path d="M50995 54173 c15 -128 52 -212 129 -288 91 -91 243 -158 423 -186
l80 -12 6 -66 c10 -122 71 -243 154 -306 74 -57 142 -77 274 -83 297 -12 659
100 1255 387 127 61 233 111 236 111 4 0 45 -39 93 -86 l87 -86 -98 -202
c-217 -447 -325 -729 -378 -989 -92 -446 20 -678 353 -731 l75 -12 13 -79 c57
-345 235 -545 485 -545 l48 0 0 1305 0 1305 -32 0 c-62 1 -169 29 -246 66
-106 51 -224 168 -275 274 -42 86 -67 175 -67 237 l0 43 -1311 0 -1310 0 6
-57z"/>
<path d="M53724 54174 c25 -216 189 -394 406 -440 111 -23 100 -50 100 241 l0
255 -256 0 -257 0 7 -56z"/>
<path d="M8785 54133 c-2116 -55 -4174 -883 -5750 -2314 -1415 -1285 -2382
-2978 -2759 -4834 -108 -533 -165 -1047 -179 -1602 l-2 -113 125 0 c135 0 396
14 580 30 1529 138 2954 643 4220 1498 754 509 1436 1139 2002 1852 1009 1270
1650 2778 1862 4380 45 339 76 748 76 998 l0 112 -37 -2 c-21 -1 -83 -3 -138
-5z"/>
<path d="M9115 54129 c-5 -7 12 -454 20 -554 105 -1263 392 -2302 930 -3375
355 -706 778 -1329 1313 -1935 150 -170 592 -610 757 -754 1549 -1355 3403
-2114 5445 -2231 96 -5 226 -10 288 -10 l112 0 0 119 c0 65 -5 199 -10 297
-103 1789 -717 3464 -1792 4892 -415 551 -944 1099 -1498 1553 -1441 1179
-3278 1892 -5130 1989 -250 13 -431 17 -435 9z"/>
<path d="M26860 54133 c-52 -1 -176 -7 -275 -13 -1853 -109 -3610 -787 -5065
-1954 -1088 -871 -1971 -2007 -2546 -3273 -223 -491 -428 -1084 -548 -1583
-148 -614 -226 -1202 -251 -1882 l-5 -158 117 0 c148 0 440 16 648 36 2493
234 4767 1500 6284 3497 266 350 496 702 699 1069 694 1253 1072 2624 1118
4056 l7 212 -44 -2 c-24 -1 -87 -3 -139 -5z"/>
<path d="M27193 54127 c-11 -18 17 -546 42 -802 66 -668 202 -1301 420 -1950
359 -1074 893 -2029 1627 -2907 338 -405 812 -871 1225 -1205 1383 -1119 3042
-1794 4813 -1958 215 -19 487 -35 628 -35 l112 0 0 98 c0 126 -17 423 -35 632
-148 1647 -750 3214 -1745 4545 -429 574 -952 1119 -1516 1581 -1451 1187
-3264 1891 -5134 1993 -269 15 -431 18 -437 8z"/>
<path d="M44945 54134 c-1705 -54 -3291 -557 -4698 -1491 -1165 -773 -2133
-1810 -2838 -3040 -109 -191 -344 -664 -429 -863 -450 -1053 -694 -2148 -727
-3252 l-6 -218 120 0 c163 0 448 17 688 41 1866 185 3592 936 5018 2181 194
170 639 612 796 793 929 1064 1552 2215 1927 3554 187 670 305 1480 315 2161
l2 135 -39 1 c-21 0 -79 -1 -129 -2z"/>
<path d="M45273 53908 c7 -255 18 -410 48 -683 258 -2361 1459 -4531 3329
-6017 1271 -1009 2777 -1650 4380 -1862 322 -43 753 -76 998 -76 l112 0 -5 68
c-2 37 -7 144 -10 239 -21 690 -152 1468 -366 2184 -825 2763 -2967 4980
-5703 5904 -819 277 -1702 439 -2506 460 -107 3 -215 8 -239 10 l-44 5 6 -232z"/>
<path d="M27107 51574 c-20 -445 -99 -954 -217 -1399 -451 -1687 -1549 -3140
-3050 -4037 -933 -558 -2043 -894 -3086 -935 -90 -3 -163 -8 -161 -9 2 -2 86
-8 188 -14 2000 -117 3804 -1088 5007 -2695 793 -1060 1256 -2351 1320 -3685
l7 -155 8 140 c18 335 56 655 112 950 428 2255 1987 4138 4130 4987 626 249
1305 404 1960 448 94 7 204 15 245 20 l75 7 -90 2 c-49 1 -169 8 -265 16
-1174 97 -2278 486 -3240 1143 -854 583 -1580 1376 -2081 2274 -501 897 -776
1844 -842 2903 l-13 200 -7 -161z"/>
<path d="M9027 51556 c-16 -400 -89 -886 -197 -1311 -409 -1610 -1412 -3018
-2805 -3940 -1003 -664 -2176 -1049 -3362 -1104 l-158 -7 100 -7 c55 -4 165
-12 245 -18 1100 -77 2225 -462 3165 -1084 1574 -1040 2634 -2674 2934 -4525
45 -274 79 -614 82 -809 l2 -86 7 80 c5 44 13 154 20 245 131 1899 1112 3689
2658 4853 950 716 2057 1160 3242 1301 113 14 203 21 505 43 l100 7 -155 8
c-471 22 -968 102 -1434 229 -2319 633 -4139 2486 -4730 4817 -107 424 -168
822 -196 1282 -6 102 -13 186 -14 187 -2 2 -6 -71 -9 -161z"/>
<path d="M45188 51660 c-4 -14 -8 -54 -8 -90 -1 -166 -41 -530 -90 -819 -437
-2546 -2339 -4639 -4839 -5321 -479 -130 -1085 -224 -1500 -232 l-86 -1 90 -8
c50 -5 182 -16 293 -24 603 -47 1240 -191 1822 -413 1187 -453 2229 -1243
2997 -2273 664 -891 1095 -1935 1253 -3038 32 -222 59 -510 61 -631 1 -107 17
-138 18 -34 1 110 18 317 42 514 207 1714 1073 3287 2414 4385 892 730 1957
1218 3090 1415 275 48 460 69 870 97 l110 7 -158 7 c-1322 61 -2620 531 -3692
1336 -1589 1194 -2576 3041 -2673 5003 -4 88 -10 135 -14 120z"/>
<path d="M95 45111 c-4 -8 11 -421 20 -551 174 -2399 1289 -4605 3120 -6172
733 -627 1581 -1141 2475 -1498 917 -367 1855 -574 2860 -630 96 -5 224 -10
284 -10 l109 0 -6 228 c-46 1646 -585 3307 -1523 4695 -638 943 -1457 1763
-2394 2399 -674 458 -1414 825 -2185 1084 -615 206 -1274 348 -1925 413 -285
29 -826 56 -835 42z"/>
<path d="M17699 45109 c-852 -34 -1660 -182 -2474 -453 -781 -260 -1527 -630
-2205 -1094 -1766 -1208 -3050 -3016 -3600 -5069 -186 -693 -284 -1379 -303
-2122 l-3 -124 220 6 c892 26 1809 197 2654 493 1778 624 3308 1787 4392 3339
883 1264 1422 2739 1565 4290 19 205 35 500 35 638 l0 107 -47 -2 c-27 0 -132
-5 -234 -9z"/>
<path d="M18173 45104 c-7 -19 15 -477 32 -684 95 -1101 393 -2173 880 -3165
551 -1123 1346 -2132 2313 -2938 1297 -1081 2873 -1771 4542 -1991 331 -43
758 -76 998 -76 l102 0 0 103 c0 239 -33 666 -76 997 -285 2170 -1368 4167
-3037 5602 -1492 1284 -3370 2044 -5307 2147 -346 19 -441 20 -447 5z"/>
<path d="M35775 45109 c-1519 -60 -3012 -513 -4302 -1305 -860 -528 -1623
-1193 -2256 -1968 -802 -979 -1391 -2123 -1716 -3331 -183 -680 -277 -1320
-306 -2097 l-6 -158 119 0 c564 0 1371 108 2002 269 2355 599 4355 2119 5571
4234 723 1259 1127 2687 1175 4160 l7 207 -49 -2 c-27 0 -134 -5 -239 -9z"/>
<path d="M36253 44886 c14 -469 67 -940 162 -1424 275 -1400 879 -2705 1773
-3832 222 -279 413 -492 691 -770 862 -861 1876 -1528 3006 -1980 945 -377
1996 -596 3015 -627 l219 -6 -5 129 c-20 536 -58 919 -135 1359 -328 1866
-1262 3604 -2642 4914 -1284 1219 -2872 2023 -4602 2330 -425 76 -873 120
-1359 134 l-129 4 6 -231z"/>
<path d="M53945 45113 c-2397 -71 -4648 -1095 -6291 -2860 -877 -943 -1544
-2076 -1947 -3308 -261 -799 -410 -1648 -434 -2472 l-6 -223 119 0 c334 0 890
52 1289 120 1747 298 3331 1083 4622 2289 1611 1505 2612 3556 2803 5741 18
213 30 439 30 583 l0 137 -47 -2 c-27 -1 -88 -3 -138 -5z"/>
<path d="M0 38080 l0 -1310 43 0 c63 0 159 -26 230 -61 382 -193 464 -692 162
-994 -102 -103 -222 -159 -388 -180 l-47 -6 0 -1305 0 -1304 38 0 c20 0 66 7
101 15 211 50 342 231 395 549 l12 71 64 6 c195 17 328 125 376 304 18 67 18
250 -1 355 -50 282 -159 579 -379 1034 -58 120 -106 222 -106 225 0 4 38 45
85 93 l85 87 208 -101 c490 -237 804 -350 1087 -393 355 -53 557 51 620 318 8
34 15 76 15 94 0 29 3 33 38 38 103 16 255 58 320 90 131 65 225 174 258 299
21 78 18 241 -6 318 -37 120 -117 211 -242 274 -80 40 -212 80 -298 90 -34 4
-63 12 -65 18 -1 6 -8 45 -14 86 -41 268 -238 395 -560 361 -288 -30 -622
-147 -1147 -400 l-212 -102 -86 86 c-47 48 -86 88 -86 91 0 3 50 109 111 237
200 419 295 663 355 922 25 105 28 140 28 285 1 150 -1 170 -22 223 -59 147
-192 240 -363 254 l-67 6 -6 56 c-20 164 -91 341 -177 435 -76 84 -221 145
-341 146 -17 0 -18 -69 -18 -1310z"/>
<path d="M17951 39374 c-200 -43 -326 -188 -386 -446 -14 -57 -27 -120 -30
-140 -6 -37 -7 -38 -48 -38 -103 0 -232 -56 -301 -130 -119 -127 -143 -313
-80 -613 53 -251 157 -525 363 -954 l112 -233 -38 -32 c-47 -41 -60 -54 -101
-102 l-33 -38 -242 115 c-326 156 -450 208 -657 277 -445 149 -734 154 -890
13 -83 -75 -140 -198 -140 -304 0 -54 10 -48 -110 -69 -348 -59 -531 -244
-530 -534 1 -288 193 -466 566 -526 l71 -11 6 -67 c9 -122 71 -244 155 -306
164 -120 437 -112 859 25 172 56 380 144 667 282 l239 114 89 -89 88 -89 -46
-92 c-409 -814 -543 -1333 -414 -1606 62 -130 210 -221 363 -221 26 0 47 -2
47 -4 0 -2 7 -43 15 -92 62 -363 239 -544 530 -544 208 0 360 93 450 276 34
69 77 219 90 315 l6 46 55 2 c70 1 165 33 231 77 183 119 219 383 109 786 -66
239 -151 451 -334 833 -55 116 -102 215 -104 220 -1 6 36 49 84 96 l86 87 227
-110 c400 -192 654 -291 905 -352 494 -119 749 -2 795 366 6 45 8 48 43 53
104 16 251 58 320 92 89 44 185 133 219 203 49 101 68 268 42 379 -47 207
-240 349 -536 395 l-77 12 -12 74 c-40 235 -154 350 -373 380 -179 24 -447
-28 -776 -150 -157 -59 -261 -105 -552 -244 l-222 -106 -89 88 -89 88 45 90
c222 439 363 795 428 1079 36 157 41 384 10 478 -51 156 -190 259 -368 274
-61 5 -68 8 -68 27 0 12 -9 62 -20 113 -36 173 -106 313 -194 389 -110 97
-287 135 -455 98z m324 -2634 c181 -60 331 -211 392 -395 22 -68 26 -97 26
-190 0 -93 -4 -122 -27 -190 -65 -191 -203 -332 -388 -396 -228 -79 -467 -22
-638 150 -127 127 -181 259 -181 440 0 168 61 312 180 432 167 166 412 224
636 149z"/>
<path d="M17953 36645 c-228 -62 -382 -260 -383 -490 0 -142 46 -250 150 -356
102 -103 211 -149 356 -149 282 0 504 222 506 507 0 95 -13 147 -59 236 -104
199 -355 310 -570 252z"/>
<path d="M36050 39380 c-163 -29 -276 -122 -354 -291 -33 -73 -68 -199 -81
-291 l-6 -48 -43 0 c-58 0 -150 -25 -209 -57 -215 -117 -261 -384 -141 -813
67 -241 155 -461 332 -830 l108 -225 -87 -88 -87 -87 -169 81 c-244 118 -392
185 -528 239 -478 190 -822 233 -1025 130 -91 -46 -168 -160 -191 -281 -25
-135 -15 -121 -104 -136 -365 -60 -545 -237 -545 -533 0 -208 90 -355 272
-445 65 -31 217 -75 319 -90 36 -5 37 -6 43 -65 19 -168 104 -299 231 -355
266 -118 722 -8 1479 359 l216 105 87 -87 88 -87 -126 -265 c-256 -535 -363
-863 -376 -1150 -6 -145 4 -211 48 -299 61 -122 197 -204 353 -213 l50 -3 22
-110 c39 -196 85 -296 179 -391 93 -93 198 -134 348 -134 207 1 357 92 446
273 42 86 76 202 89 302 l7 60 65 6 c194 17 324 119 376 294 26 85 23 267 -6
405 -60 292 -161 559 -395 1045 l-87 179 59 56 c32 30 70 70 85 87 l26 33 251
-120 c294 -140 441 -203 623 -265 396 -136 672 -159 845 -72 55 29 132 106
161 164 26 51 52 150 52 201 l0 40 98 17 c165 30 271 72 369 147 128 98 192
281 164 469 -38 245 -220 391 -551 443 l-75 12 -7 63 c-13 119 -57 217 -125
282 -90 85 -178 113 -348 112 -287 -1 -664 -124 -1251 -407 l-200 -97 -88 87
-87 88 120 250 c150 314 210 457 277 662 127 384 143 658 48 821 -66 111 -202
184 -364 196 l-34 2 -13 84 c-17 108 -65 250 -109 322 -42 70 -126 148 -190
178 -93 44 -224 60 -334 41z m307 -2642 c91 -32 199 -104 258 -171 25 -29 63
-86 85 -128 127 -243 83 -526 -110 -719 -128 -129 -263 -184 -445 -183 -459 3
-749 477 -544 893 76 155 227 278 399 325 87 24 266 15 357 -17z"/>
<path d="M36033 36646 c-223 -54 -383 -258 -384 -492 -2 -143 48 -261 151
-363 95 -94 214 -141 356 -141 233 0 430 155 489 385 67 262 -101 540 -370
610 -70 18 -170 18 -242 1z"/>
<path d="M54104 39375 c-124 -27 -232 -105 -299 -215 -43 -71 -91 -214 -108
-321 l-13 -84 -64 -7 c-201 -20 -337 -132 -381 -315 -7 -26 -12 -100 -12 -163
1 -150 35 -318 113 -550 69 -207 121 -331 276 -656 l115 -240 -87 -88 -88 -87
-210 102 c-452 218 -714 317 -995 376 -159 33 -334 37 -426 9 -171 -50 -271
-180 -293 -377 l-7 -63 -84 -13 c-107 -17 -250 -65 -321 -108 -159 -96 -246
-280 -225 -474 29 -267 195 -414 538 -476 l97 -17 0 -34 c0 -100 48 -221 117
-295 156 -167 435 -171 918 -12 182 60 343 128 648 274 l248 118 32 -37 c18
-20 56 -60 85 -87 l54 -51 -116 -243 c-194 -404 -271 -601 -336 -857 -86 -335
-71 -553 47 -684 74 -83 166 -127 288 -138 l70 -7 7 -56 c11 -86 46 -215 77
-283 82 -178 214 -275 399 -293 l62 -6 0 1306 0 1306 -47 6 c-166 22 -284 76
-387 178 -86 85 -138 174 -166 282 -55 215 5 438 159 594 104 104 271 180 399
181 l42 0 0 1310 0 1310 -32 -1 c-18 0 -60 -7 -94 -14z"/>
<path d="M0 36155 l0 -505 38 0 c211 2 421 192 462 420 46 254 -127 515 -381
575 -35 8 -76 15 -91 15 l-28 0 0 -505z"/>
<path d="M54101 36644 c-371 -100 -501 -549 -243 -836 77 -86 226 -158 328
-158 l44 0 0 505 0 505 -37 -1 c-21 0 -62 -7 -92 -15z"/>
<path d="M8655 36053 c-126 -5 -467 -32 -615 -49 -1433 -162 -2790 -660 -3985
-1462 -1824 -1225 -3149 -3102 -3683 -5217 -169 -669 -264 -1362 -273 -1995
l-2 -135 49 -3 c69 -5 478 15 674 33 1513 139 2916 637 4174 1479 1285 860
2320 2033 3016 3416 212 423 346 746 496 1195 275 828 425 1667 451 2523 l6
222 -114 -2 c-63 -1 -150 -3 -194 -5z"/>
<path d="M9115 35923 c29 -695 79 -1115 207 -1708 280 -1309 900 -2605 1751
-3665 374 -465 802 -902 1262 -1287 1212 -1014 2714 -1701 4270 -1953 405 -66
759 -100 1194 -116 l184 -7 -6 224 c-43 1490 -475 2968 -1250 4274 -783 1318
-1906 2422 -3258 3201 -162 93 -586 309 -764 389 -912 409 -1891 663 -2885
750 -176 15 -546 35 -653 35 l-58 0 6 -137z"/>
<path d="M26730 36053 c-126 -5 -467 -32 -610 -49 -1039 -117 -2006 -399
-2945 -859 -1910 -936 -3450 -2558 -4283 -4510 -444 -1042 -677 -2095 -718
-3254 l-7 -194 204 7 c2183 73 4218 911 5815 2394 1508 1401 2487 3282 2768
5317 43 312 69 622 82 973 l7 182 -119 -2 c-66 -1 -153 -3 -194 -5z"/>
<path d="M27194 35854 c57 -1689 564 -3274 1496 -4674 342 -514 662 -903 1124
-1366 455 -454 831 -765 1347 -1110 688 -461 1370 -796 2149 -1055 844 -280
1636 -421 2569 -455 l184 -7 -7 199 c-47 1310 -352 2537 -916 3679 -1316 2663
-3868 4507 -6795 4909 -323 44 -616 69 -969 82 l-189 7 7 -209z"/>
<path d="M44729 36049 c-1918 -102 -3739 -809 -5219 -2028 -1728 -1422 -2865
-3445 -3174 -5646 -49 -346 -86 -811 -86 -1072 l0 -113 88 0 c107 0 402 16
577 30 1829 152 3567 865 4980 2044 454 379 888 822 1260 1286 1089 1359 1753
2996 1919 4730 19 198 35 467 37 640 l2 135 -114 1 c-63 1 -184 -2 -270 -7z"/>
<path d="M45273 35829 c34 -1270 368 -2573 957 -3734 693 -1365 1734 -2540
3005 -3390 364 -244 634 -400 1030 -595 915 -451 1837 -725 2870 -855 242 -30
738 -64 942 -65 l61 0 -4 123 c-20 551 -62 969 -144 1414 -202 1101 -614 2166
-1206 3116 -582 932 -1341 1759 -2229 2427 -1068 803 -2320 1362 -3625 1619
-488 95 -948 148 -1474 167 l-189 7 6 -234z"/>
<path d="M27107 33510 c-83 -1586 -687 -3040 -1748 -4205 -1088 -1195 -2590
-1965 -4184 -2144 -194 -22 -424 -40 -545 -42 -50 -1 -25 -5 75 -10 1275 -69
2414 -446 3449 -1142 1206 -811 2134 -2023 2600 -3396 205 -603 316 -1187 354
-1871 l8 -125 7 164 c61 1268 493 2512 1235 3553 402 566 904 1078 1466 1497
1068 797 2339 1250 3696 1319 l145 7 -160 8 c-946 46 -1873 291 -2710 717
-1468 748 -2605 1994 -3210 3519 -271 683 -424 1398 -463 2156 l-7 140 -8
-145z"/>
<path d="M9030 33557 c0 -241 -52 -689 -121 -1037 -205 -1038 -663 -2027
-1327 -2865 -225 -283 -605 -680 -865 -903 -1129 -967 -2474 -1520 -3947
-1622 -80 -5 -176 -11 -215 -11 -44 -1 -16 -5 75 -10 1534 -87 2870 -611 4027
-1579 216 -181 578 -540 765 -760 479 -560 862 -1193 1140 -1885 168 -417 323
-978 393 -1425 40 -260 75 -624 75 -787 0 -48 2 -84 4 -82 3 2 10 87 16 189 6
102 20 266 31 365 231 2125 1476 4018 3344 5087 912 522 1952 825 3000 875
l160 7 -200 12 c-227 14 -437 35 -635 65 -1740 262 -3297 1191 -4363 2604
-799 1058 -1256 2308 -1337 3655 -6 102 -13 187 -16 189 -2 2 -4 -34 -4 -82z"/>
<path d="M45188 33590 c-4 -14 -8 -56 -8 -95 0 -164 -42 -541 -90 -820 -235
-1359 -884 -2608 -1865 -3590 -334 -335 -669 -607 -1065 -867 -251 -165 -421
-263 -700 -401 -636 -316 -1260 -515 -1950 -621 -266 -41 -604 -73 -800 -77
-49 -1 -24 -5 75 -10 991 -54 1861 -284 2724 -719 1527 -770 2716 -2118 3289
-3726 216 -605 353 -1282 379 -1869 3 -77 9 -149 13 -159 4 -11 10 50 13 135
29 694 199 1459 479 2154 681 1687 2052 3046 3753 3720 671 266 1423 428 2140
462 l160 7 -200 12 c-960 58 -1831 292 -2665 715 -1819 922 -3130 2635 -3540
4623 -65 315 -114 698 -128 1001 -4 90 -10 140 -14 125z"/>
<path d="M96 26888 c43 -1339 343 -2557 919 -3723 441 -893 994 -1664 1700
-2370 914 -915 2004 -1616 3210 -2065 916 -340 1821 -516 2864 -556 l174 -7
-6 234 c-29 1007 -248 2055 -627 3004 -730 1826 -2046 3367 -3735 4375 -1156
689 -2448 1107 -3785 1224 -186 17 -538 36 -651 36 l-67 0 4 -152z"/>
<path d="M17665 27033 c-118 -5 -451 -31 -605 -49 -1587 -178 -3094 -776
-4365 -1732 -1132 -852 -2037 -1942 -2660 -3207 -292 -593 -494 -1144 -655
-1784 -160 -641 -241 -1240 -263 -1968 l-4 -123 81 0 c118 0 434 18 636 36
1511 133 2962 649 4220 1501 1883 1276 3226 3246 3715 5447 131 593 215 1284
215 1779 l0 107 -117 -2 c-65 -1 -154 -3 -198 -5z"/>
<path d="M18174 26833 c50 -1474 449 -2889 1173 -4152 1098 -1915 2859 -3359
4943 -4051 461 -153 803 -239 1330 -334 324 -59 797 -105 1243 -122 l177 -7 0
84 c0 123 -18 439 -35 634 -173 1911 -917 3648 -2190 5112 -166 191 -627 652
-818 818 -1366 1188 -2992 1924 -4750 2150 -313 40 -776 74 -1011 75 l-69 0 7
-207z"/>
<path d="M35667 27029 c-1791 -98 -3490 -716 -4912 -1789 -349 -263 -597 -481
-941 -824 -271 -271 -404 -418 -603 -661 -950 -1162 -1588 -2530 -1865 -3996
-85 -448 -135 -907 -152 -1391 l-7 -198 79 0 c104 0 436 17 594 31 2012 170
3891 1005 5365 2385 1614 1511 2612 3563 2800 5754 14 168 35 554 35 653 l0
47 -122 -1 c-68 -1 -190 -6 -271 -10z"/>
<path d="M36253 26814 c39 -1393 431 -2808 1118 -4041 1248 -2239 3405 -3847
5892 -4392 551 -121 1065 -184 1675 -207 l183 -7 -5 99 c-3 55 -8 164 -11 244
-29 780 -183 1612 -441 2395 -789 2387 -2568 4348 -4869 5368 -1066 472 -2148
718 -3359 763 l-189 7 6 -229z"/>
<path d="M53820 27033 c-488 -20 -1072 -98 -1570 -210 -2239 -500 -4210 -1859
-5491 -3783 -920 -1382 -1439 -3006 -1486 -4647 l-6 -223 79 0 c129 0 454 19
679 40 2574 236 4929 1591 6445 3709 664 929 1147 1983 1415 3094 147 608 245
1368 245 1892 l0 135 -117 -2 c-65 -1 -152 -3 -193 -5z"/>
<path d="M0 20006 l0 -1305 48 -6 c165 -21 285 -77 387 -180 261 -261 241
-681 -42 -915 -98 -81 -244 -139 -350 -140 l-43 0 0 -1310 c0 -1241 1 -1310
18 -1310 120 1 265 62 341 146 86 94 157 271 177 435 l6 56 67 6 c171 14 304
107 363 254 21 53 23 73 22 223 0 145 -3 180 -28 285 -61 259 -156 508 -355
923 -61 127 -111 233 -111 236 0 2 39 44 87 91 l86 87 220 -107 c535 -259 871
-374 1174 -400 156 -13 313 30 402 110 55 50 108 159 122 255 6 41 13 80 14
86 2 6 31 14 65 18 89 10 224 52 302 93 180 95 258 226 258 437 0 167 -39 266
-143 362 -93 86 -209 136 -390 169 l-97 17 0 32 c0 17 -7 59 -15 94 -56 239
-225 346 -515 328 -291 -17 -631 -133 -1202 -409 l-198 -95 -85 86 c-47 48
-85 89 -85 93 0 3 44 98 99 210 213 440 310 694 372 974 26 116 36 336 19 414
-42 188 -192 312 -394 323 l-50 3 -17 97 c-32 180 -84 300 -171 393 -31 34
-79 73 -106 88 -54 29 -157 57 -214 57 l-38 0 0 -1304z"/>
<path d="M17933 21295 c-209 -57 -337 -231 -388 -529 -8 -49 -15 -89 -15 -90
0 -1 -25 -3 -56 -4 -73 -3 -167 -35 -231 -78 -300 -204 -206 -764 297 -1764
l40 -79 -89 -89 -88 -88 -239 114 c-445 212 -690 304 -966 363 -151 32 -358
33 -448 1 -36 -12 -86 -38 -111 -56 -84 -62 -147 -186 -156 -308 l-6 -67 -46
-6 c-155 -21 -314 -79 -412 -151 -142 -104 -206 -293 -168 -500 40 -218 231
-369 524 -414 44 -7 86 -14 93 -16 7 -2 12 -22 12 -53 0 -106 57 -229 140
-304 156 -141 445 -136 890 13 207 69 331 121 657 277 l242 115 33 -38 c40
-45 43 -49 97 -97 l42 -38 -112 -232 c-206 -429 -311 -705 -363 -953 -63 -301
-39 -487 80 -614 69 -74 198 -130 301 -130 46 0 41 9 63 -118 47 -269 172
-440 365 -498 88 -27 259 -24 340 5 192 69 308 245 355 539 l12 72 42 0 c58 0
150 25 209 57 243 133 270 446 83 1000 -56 168 -138 360 -274 643 l-108 225
87 88 88 87 241 -115 c133 -64 295 -138 361 -166 528 -222 904 -279 1119 -169
89 46 168 161 191 281 25 134 15 121 104 136 361 60 545 238 545 525 0 156
-40 260 -134 353 -96 94 -252 159 -458 190 -35 5 -37 8 -43 53 -19 148 -75
263 -162 326 -146 107 -382 112 -722 16 -252 -71 -435 -145 -820 -330 l-223
-108 -86 87 c-48 47 -85 91 -84 96 2 6 49 105 104 220 183 382 268 594 334
833 89 327 82 563 -21 704 -65 89 -201 157 -321 159 l-53 2 -6 46 c-13 98 -56
246 -92 319 -44 89 -135 187 -203 220 -108 51 -275 67 -387 37z m337 -2631
c289 -93 469 -394 416 -694 -42 -237 -228 -436 -461 -495 -86 -22 -225 -19
-315 6 -211 58 -381 231 -435 444 -20 79 -20 227 0 307 52 198 218 373 419
438 109 35 255 33 376 -6z"/>
<path d="M17930 18561 c-91 -29 -142 -61 -210 -130 -104 -106 -150 -214 -150
-356 0 -135 49 -253 145 -351 228 -233 609 -195 787 80 53 82 78 169 78 271 0
230 -146 423 -369 489 -73 22 -210 20 -281 -3z"/>
<path d="M36015 21296 c-83 -20 -146 -56 -211 -121 -92 -91 -139 -194 -178
-390 l-22 -110 -50 -3 c-153 -9 -293 -92 -353 -211 -112 -218 -38 -638 209
-1196 32 -71 100 -217 152 -324 l93 -194 -87 -88 -88 -87 -213 103 c-493 239
-819 356 -1100 394 -368 51 -578 -84 -613 -391 -6 -57 -7 -58 -43 -63 -330
-50 -521 -179 -576 -390 -17 -67 -20 -218 -4 -284 47 -207 240 -349 536 -395
l77 -12 12 -74 c43 -249 158 -357 414 -385 132 -15 436 46 694 140 163 59 313
124 593 259 l222 106 89 -89 89 -88 -35 -69 c-85 -166 -237 -497 -286 -622
-156 -395 -216 -716 -172 -915 40 -179 183 -298 378 -314 61 -5 68 -8 68 -27
0 -34 37 -197 59 -259 70 -201 209 -322 399 -349 214 -30 404 53 507 222 43
71 91 214 108 321 13 83 13 84 42 87 168 14 295 79 361 184 95 150 91 406 -12
747 -72 237 -155 437 -338 817 l-87 180 87 88 88 87 200 -97 c587 -283 962
-405 1251 -407 89 -1 136 4 180 17 173 52 271 178 293 377 l7 63 75 12 c341
53 520 203 552 462 21 164 -26 316 -128 417 -90 88 -221 146 -406 180 l-98 17
0 42 c0 56 -31 164 -62 217 -139 237 -454 260 -996 74 -182 -62 -329 -125
-623 -265 l-251 -119 -26 32 c-15 18 -53 57 -85 87 l-59 56 117 243 c63 133
138 296 166 362 235 560 286 956 147 1150 -18 26 -46 58 -63 71 -66 55 -179
97 -273 101 -34 1 -44 5 -47 22 -2 11 -9 52 -16 90 -48 281 -180 456 -384 510
-70 18 -209 18 -280 1z m250 -2611 c231 -41 432 -229 490 -460 19 -76 19 -212
0 -294 -20 -82 -82 -202 -140 -268 -59 -67 -167 -139 -258 -171 -96 -33 -253
-42 -347 -18 -118 30 -207 80 -295 170 -96 97 -145 188 -171 316 -75 376 213
728 606 738 19 1 71 -5 115 -13z"/>
<path d="M36027 18569 c-148 -35 -293 -164 -349 -311 -109 -287 70 -614 370
-677 266 -55 534 115 597 380 61 259 -89 521 -343 599 -69 21 -204 26 -275 9z"/>
<path d="M54103 21299 c-218 -42 -372 -255 -411 -564 l-7 -59 -45 -3 c-124 -8
-235 -57 -310 -140 -122 -133 -137 -347 -51 -687 66 -255 146 -459 341 -866
l112 -234 -59 -56 c-32 -30 -70 -69 -85 -87 l-26 -32 -258 123 c-307 146 -444
204 -619 263 -481 162 -774 162 -933 2 -68 -69 -122 -199 -122 -295 l0 -42
-97 -17 c-166 -30 -272 -72 -370 -147 -217 -165 -230 -550 -25 -739 91 -85
237 -146 409 -173 l78 -12 7 -63 c21 -191 120 -322 283 -373 143 -46 395 -21
672 66 230 72 414 149 759 315 l210 102 88 -87 87 -88 -120 -250 c-150 -315
-210 -458 -276 -661 -162 -492 -146 -784 52 -929 57 -42 147 -74 234 -84 l63
-7 12 -78 c39 -252 142 -426 298 -502 61 -30 160 -55 219 -55 16 0 17 69 17
1310 l0 1310 -42 0 c-151 1 -345 102 -446 232 -88 114 -132 241 -132 384 0
306 218 562 523 612 l97 15 0 1304 0 1303 -42 -1 c-24 -1 -62 -5 -85 -10z"/>
<path d="M0 18075 l0 -505 28 0 c97 1 237 61 315 136 169 162 210 384 110 594
-76 158 -256 280 -415 280 l-38 0 0 -505z"/>
<path d="M54070 18557 c-251 -85 -395 -341 -335 -595 49 -207 224 -364 434
-388 l61 -7 0 507 0 506 -47 0 c-27 0 -77 -11 -113 -23z"/>
<path d="M8515 17969 c-2082 -123 -4057 -971 -5579 -2394 -1601 -1498 -2597
-3519 -2800 -5685 -21 -224 -35 -456 -37 -630 l-2 -145 159 3 c1140 23 2344
294 3401 768 1493 668 2768 1725 3711 3076 975 1395 1539 3100 1589 4801 l6
217 -154 -1 c-85 -1 -217 -6 -294 -10z"/>
<path d="M9114 17878 c3 -57 8 -170 11 -253 28 -739 181 -1580 426 -2331 480
-1477 1346 -2814 2501 -3861 1603 -1453 3626 -2260 5807 -2316 l124 -3 -6 225
c-14 478 -79 1030 -177 1506 -422 2043 -1547 3874 -3180 5180 -1193 954 -2615
1590 -4100 1835 -426 70 -961 119 -1298 120 l-113 0 5 -102z"/>
<path d="M26595 17969 c-2039 -120 -3970 -931 -5484 -2303 -1202 -1090 -2103
-2513 -2561 -4046 -228 -765 -346 -1494 -376 -2323 l-7 -187 144 5 c418 17
680 38 994 80 1506 204 2939 794 4160 1713 361 271 630 506 965 841 1142 1144
1947 2565 2340 4131 157 627 240 1227 266 1918 l7 182 -154 -1 c-85 -1 -217
-6 -294 -10z"/>
<path d="M27194 17773 c58 -1738 612 -3410 1596 -4818 1023 -1465 2434 -2578
4095 -3230 894 -351 1947 -572 2860 -600 99 -3 211 -8 249 -10 l69 -5 -7 202
c-47 1355 -378 2634 -985 3813 -1310 2541 -3749 4306 -6566 4749 -385 61 -901
106 -1209 106 l-109 0 7 -207z"/>
<path d="M44750 17973 c-398 -18 -958 -89 -1365 -173 -2054 -425 -3887 -1554
-5197 -3200 -1016 -1277 -1663 -2808 -1868 -4419 -40 -317 -70 -725 -70 -958
l0 -113 138 5 c272 11 511 26 700 46 1044 106 2074 401 3016 864 2749 1350
4623 4012 4955 7040 29 263 41 425 47 650 2 110 7 215 9 233 l4 32 -152 -2
c-84 -1 -181 -3 -217 -5z"/>
<path d="M45273 17748 c35 -1252 352 -2507 923 -3658 633 -1276 1547 -2367
2704 -3227 623 -463 1365 -870 2101 -1154 949 -365 1984 -570 2994 -591 l140
-3 -3 145 c-24 1166 -299 2377 -783 3448 -857 1895 -2341 3432 -4204 4352
-1095 541 -2250 842 -3485 910 -102 5 -232 10 -289 10 l-104 0 6 -232z"/>
<path d="M27107 15435 c-36 -687 -168 -1349 -393 -1968 -704 -1941 -2267
-3456 -4224 -4095 -512 -167 -1056 -276 -1560 -311 -80 -6 -190 -14 -245 -18
l-100 -7 160 -8 c1481 -69 2908 -644 4055 -1632 137 -118 465 -441 590 -581
754 -843 1262 -1803 1530 -2888 103 -420 160 -813 188 -1307 l8 -125 7 160
c102 2142 1227 4103 3032 5287 992 651 2154 1031 3325 1086 l155 8 -85 7 c-47
4 -152 11 -235 17 -855 61 -1724 302 -2505 696 -1582 798 -2785 2186 -3345
3859 -210 625 -318 1225 -348 1915 -1 30 -6 -12 -10 -95z"/>
<path d="M9031 15484 c-3 -198 -42 -585 -87 -848 -379 -2253 -1881 -4159
-3987 -5060 -709 -304 -1466 -480 -2256 -526 -96 -6 -176 -12 -178 -13 -2 -2
68 -7 154 -10 465 -19 1006 -108 1482 -243 2298 -656 4075 -2480 4670 -4794
107 -416 182 -916 198 -1316 3 -90 7 -163 9 -161 1 1 8 85 14 187 28 460 89
858 196 1282 657 2589 2813 4557 5449 4972 269 43 592 74 785 77 l85 2 -70 8
c-38 4 -149 13 -245 19 -1007 66 -2052 396 -2940 928 -745 446 -1417 1052
-1936 1747 -765 1022 -1227 2254 -1314 3505 -7 91 -15 203 -20 250 l-7 85 -2
-91z"/>
<path d="M45188 15500 c-4 -19 -10 -93 -13 -165 -12 -266 -59 -626 -121 -930
-185 -903 -547 -1743 -1081 -2507 -405 -579 -935 -1122 -1513 -1550 -1009
-747 -2266 -1212 -3485 -1289 -99 -6 -209 -14 -245 -19 l-65 -7 87 -2 c349 -5
941 -89 1349 -191 2473 -620 4397 -2599 4933 -5075 79 -363 144 -854 147
-1110 1 -106 17 -128 18 -25 1 103 25 382 46 545 167 1286 679 2457 1505 3450
1023 1228 2464 2056 4035 2319 275 46 645 84 844 87 l86 2 -70 8 c-38 4 -149
13 -245 19 -1142 76 -2294 477 -3265 1138 -696 473 -1306 1081 -1777 1772
-707 1036 -1111 2256 -1161 3505 -2 52 -3 56 -9 25z"/>
<path d="M96 8828 c9 -246 25 -502 40 -658 165 -1693 806 -3296 1857 -4640
388 -495 869 -988 1361 -1394 1342 -1107 2967 -1795 4691 -1986 260 -28 415
-40 635 -45 107 -3 214 -8 238 -10 l42 -5 0 128 c0 367 -57 942 -136 1377
-253 1395 -809 2670 -1656 3796 -1460 1941 -3648 3209 -6045 3504 -294 36
-703 65 -920 65 l-112 0 5 -132z"/>
<path d="M17615 8953 c-1055 -53 -2100 -294 -3070 -707 -220 -94 -646 -304
-852 -420 -548 -307 -1042 -658 -1543 -1094 -175 -152 -613 -588 -772 -767
-813 -920 -1419 -1965 -1803 -3110 -280 -833 -440 -1753 -457 -2615 l-3 -145
145 3 c1703 35 3384 576 4815 1550 637 433 1253 987 1767 1587 628 734 1140
1580 1498 2475 391 977 605 1998 637 3038 l6 212 -154 -2 c-85 -1 -181 -3
-214 -5z"/>
<path d="M18174 8758 c50 -1455 430 -2824 1133 -4083 557 -997 1321 -1897
2223 -2620 1359 -1089 2996 -1753 4730 -1919 190 -19 460 -34 640 -38 l135 -2
3 49 c5 77 -16 484 -38 714 -139 1483 -641 2891 -1474 4135 -1452 2168 -3785
3599 -6366 3905 -305 36 -657 61 -879 61 l-114 0 7 -202z"/>
<path d="M35695 8953 c-792 -46 -1449 -161 -2168 -377 -662 -200 -1341 -499
-1943 -857 -1471 -874 -2661 -2145 -3431 -3663 -591 -1167 -912 -2429 -959
-3763 l-7 -202 154 5 c233 8 583 32 784 55 1538 173 3014 750 4271 1670 622
456 1217 1025 1700 1629 1106 1381 1779 3060 1929 4810 14 168 35 554 35 653
l0 47 -157 -2 c-87 -1 -180 -3 -208 -5z"/>
<path d="M36253 8733 c10 -354 40 -680 98 -1058 197 -1294 690 -2550 1427
-3640 329 -486 657 -881 1091 -1315 354 -353 595 -564 956 -835 1412 -1059
3082 -1671 4840 -1774 193 -12 442 -17 449 -11 7 8 -13 477 -29 665 -144 1687
-747 3271 -1758 4617 -275 366 -484 606 -837 958 -266 267 -411 399 -658 602
-803 659 -1735 1181 -2721 1524 -790 276 -1614 438 -2456 484 -104 5 -239 10
-299 10 l-109 0 6 -227z"/>
<path d="M53685 8949 c-1746 -103 -3435 -721 -4832 -1770 -361 -272 -635 -510
-964 -838 -621 -621 -1112 -1277 -1539 -2056 -656 -1195 -1037 -2598 -1076
-3962 l-7 -232 134 5 c250 9 504 25 659 40 1915 186 3709 982 5140 2280 172
156 505 491 655 658 1030 1151 1763 2587 2079 4076 120 564 196 1213 196 1673
l0 137 -152 -1 c-84 -1 -216 -6 -293 -10z"/>
<path d="M0 1926 l0 -1303 64 -7 c79 -8 174 -38 246 -79 85 -47 198 -168 243
-258 37 -76 66 -184 67 -246 l0 -33 1305 0 1305 0 0 48 c-1 151 -91 300 -232
380 -71 41 -214 88 -314 103 l-82 12 -6 62 c-20 198 -133 338 -306 380 -103
25 -294 17 -455 -20 -221 -50 -500 -152 -785 -288 -63 -30 -173 -82 -243 -116
-71 -33 -131 -61 -133 -61 -3 0 -43 39 -91 86 l-85 86 122 256 c190 397 285
646 347 910 24 103 27 137 27 282 0 184 -6 214 -70 307 -62 91 -183 155 -318
169 l-62 6 -13 81 c-17 108 -55 229 -98 305 -82 149 -229 241 -385 242 l-48 0
0 -1304z"/>
<path d="M17910 3211 c-79 -25 -117 -47 -172 -99 -90 -84 -162 -238 -188 -400
-19 -116 -17 -112 -53 -112 -55 0 -158 -29 -219 -62 -202 -108 -255 -354 -159
-743 62 -249 152 -480 341 -877 l119 -248 -88 -87 -88 -88 -209 102 c-576 281
-955 403 -1249 403 -156 0 -255 -32 -341 -112 -69 -64 -124 -195 -124 -300 0
-46 -1 -48 -27 -48 -60 0 -247 -51 -325 -88 -173 -82 -266 -208 -284 -388 l-7
-64 1309 2 1309 3 7 71 c35 349 389 604 738 530 272 -57 457 -266 495 -558 l6
-48 1305 0 1304 0 0 38 c0 57 -28 160 -57 214 -37 68 -127 150 -211 192 -77
39 -216 80 -307 91 l-54 7 -6 47 c-36 283 -183 411 -470 411 -308 0 -765 -155
-1388 -471 l-68 -35 -89 89 -89 89 46 91 c460 916 573 1462 354 1700 -68 73
-214 136 -317 137 l-31 0 -17 93 c-53 292 -169 456 -367 518 -81 25 -251 25
-329 0z"/>
<path d="M35999 3216 c-196 -54 -317 -218 -371 -501 l-23 -115 -31 0 c-47 0
-182 -37 -223 -61 -234 -140 -263 -437 -94 -954 69 -211 128 -350 345 -805
l55 -115 -47 -39 c-26 -22 -64 -60 -86 -86 l-39 -46 -267 128 c-533 254 -861
362 -1140 375 -199 9 -298 -18 -392 -107 -29 -27 -65 -75 -80 -106 -27 -55
-55 -165 -56 -215 0 -24 -4 -26 -81 -38 -151 -23 -285 -75 -382 -149 -92 -70
-167 -219 -167 -333 l0 -49 1305 0 1305 0 0 28 c1 60 32 172 71 251 123 249
407 384 684 326 221 -47 412 -233 470 -460 8 -32 15 -79 15 -102 l0 -43 1310
0 c1241 0 1310 1 1310 18 0 9 -5 46 -11 82 -21 134 -103 254 -224 325 -73 43
-212 89 -321 106 l-81 12 -6 66 c-14 170 -108 304 -254 362 -52 21 -75 23
-213 24 -184 0 -288 -19 -529 -97 -197 -64 -398 -148 -687 -287 -127 -61 -233
-111 -237 -111 -3 0 -44 39 -92 86 l-86 87 100 208 c262 542 367 843 402 1154
29 264 -60 454 -248 525 -32 12 -92 27 -133 34 l-74 12 -12 77 c-44 285 -170
468 -365 528 -72 22 -246 25 -320 5z"/>
<path d="M54070 3214 c-195 -52 -325 -236 -373 -529 l-13 -79 -75 -12 c-207
-33 -331 -139 -370 -317 -20 -87 -15 -242 10 -373 55 -286 155 -556 381 -1020
l102 -212 -87 -86 c-48 -47 -89 -86 -92 -86 -3 0 -107 49 -233 109 -376 181
-553 252 -810 326 -243 70 -496 85 -622 36 -145 -56 -241 -192 -255 -362 l-6
-66 -80 -12 c-318 -49 -510 -200 -546 -431 -6 -36 -11 -73 -11 -82 0 -17 69
-18 1310 -18 l1310 0 0 43 c0 62 25 151 67 237 50 104 168 222 273 274 74 36
185 65 248 66 l32 0 0 1305 0 1305 -52 -1 c-29 0 -78 -7 -108 -15z"/>
<path d="M0 255 l0 -255 255 0 c291 0 264 -11 240 103 -41 194 -198 351 -394
393 -112 23 -101 50 -101 -241z"/>
<path d="M17990 500 c-217 -38 -394 -225 -417 -441 l-6 -59 507 0 506 0 0 43
c0 24 -7 68 -16 98 -72 244 -325 402 -574 359z"/>
<path d="M36060 499 c-71 -12 -184 -67 -245 -121 -88 -78 -154 -206 -169 -330
l-6 -48 510 0 510 0 0 25 c0 109 -67 251 -160 338 -78 74 -147 111 -245 132
-77 16 -113 17 -195 4z"/>
<path d="M54121 494 c-90 -19 -162 -57 -231 -120 -97 -90 -152 -195 -166 -318
l-7 -56 257 0 256 0 0 255 0 255 -22 -1 c-13 0 -52 -7 -87 -15z"/>
</g>
</svg>
