<?xml version="1.0" standalone="no"?>
<!DOCTYPE svg PUBLIC "-//W3C//DTD SVG 20010904//EN"
 "http://www.w3.org/TR/2001/REC-SVG-20010904/DTD/svg10.dtd">
<svg version="1.0" xmlns="http://www.w3.org/2000/svg"
 width="1212.000000pt" height="1280.000000pt" viewBox="0 0 1212.000000 1280.000000"
 preserveAspectRatio="xMidYMid meet">
<g transform="translate(0.000000,1280.000000) scale(0.100000,-0.100000)"
fill="#1b1b1b" stroke="none">
<path d="M167 12642 c-91 -86 -165 -159 -165 -162 0 -3 74 -76 165 -162 l166
-157 163 156 c90 86 164 159 164 163 0 4 -74 77 -164 163 l-164 157 -165 -158z"/>
<path d="M1500 12639 l-165 -159 165 -159 164 -159 136 128 c74 70 148 142
164 159 l30 31 -40 41 c-21 22 -95 94 -164 159 l-126 118 -164 -159z"/>
<path d="M2832 12641 c-89 -86 -163 -159 -162 -162 0 -3 74 -76 164 -162 l163
-156 164 159 164 158 -80 82 c-44 45 -118 117 -165 160 l-85 78 -163 -157z"/>
<path d="M4160 12639 l-165 -159 165 -158 165 -159 30 25 c17 13 92 85 167
158 l138 135 -138 133 c-75 73 -150 145 -167 158 l-30 25 -165 -158z"/>
<path d="M5492 12640 l-164 -159 153 -148 c83 -81 159 -153 168 -159 13 -10
43 14 180 148 l164 158 -163 158 c-89 86 -166 158 -169 159 -3 1 -79 -70 -169
-157z"/>
<path d="M6828 12643 c-90 -87 -164 -160 -164 -163 -1 -3 72 -76 163 -162
l165 -157 164 156 c90 87 164 160 164 163 0 4 -74 77 -164 163 l-165 157 -163
-157z"/>
<path d="M8159 12640 l-164 -160 164 -159 165 -160 158 151 c87 83 161 155
164 160 8 12 -5 25 -177 189 l-146 138 -164 -159z"/>
<path d="M9492 12641 c-90 -86 -163 -159 -162 -162 0 -4 73 -77 163 -162 l163
-156 165 159 164 158 -60 62 c-33 34 -107 106 -165 160 l-105 98 -163 -157z"/>
<path d="M10820 12639 l-165 -159 165 -159 165 -158 40 35 c22 19 97 91 166
159 l127 124 -132 128 c-72 71 -147 142 -166 158 l-35 30 -165 -158z"/>
<path d="M830 12000 l-164 -159 164 -159 165 -159 35 30 c19 16 95 88 168 159
l132 129 -161 157 c-89 86 -164 158 -168 159 -3 1 -80 -70 -171 -157z"/>
<path d="M2162 12000 l-163 -159 138 -134 c76 -74 152 -146 168 -159 l30 -25
165 159 164 159 -163 157 c-90 86 -167 158 -170 159 -3 1 -79 -70 -169 -157z"/>
<path d="M3496 12002 l-165 -157 166 -162 166 -162 163 157 c90 86 164 159
164 163 0 3 -74 77 -164 163 l-164 156 -166 -158z"/>
<path d="M4830 12000 l-165 -160 165 -159 164 -159 163 155 c90 86 163 158
163 162 0 6 -100 105 -260 259 l-66 62 -164 -160z"/>
<path d="M6160 11999 l-165 -158 165 -159 165 -159 115 107 c63 60 137 131
165 159 l49 51 -79 81 c-44 44 -118 116 -165 159 l-85 78 -165 -159z"/>
<path d="M7490 11999 l-165 -158 165 -159 165 -159 45 40 c25 22 100 94 167
159 l121 120 -142 139 c-79 76 -154 147 -167 158 l-24 18 -165 -158z"/>
<path d="M8821 12000 l-163 -159 147 -143 c168 -163 180 -172 199 -161 7 4 82
75 166 156 l153 148 -163 157 c-90 86 -166 158 -169 159 -3 1 -80 -70 -170
-157z"/>
<path d="M10158 12003 c-90 -86 -164 -159 -164 -162 -1 -3 72 -77 163 -163
l165 -157 164 157 c90 86 164 160 164 163 0 3 -74 76 -164 162 l-165 157 -163
-157z"/>
<path d="M11489 12000 l-164 -160 164 -159 165 -159 163 155 c90 86 163 159
163 162 0 6 -52 58 -251 249 l-75 73 -165 -161z"/>
<path d="M199 11360 l-164 -160 164 -159 165 -159 163 156 c90 85 163 158 163
161 0 6 -102 107 -261 259 l-65 63 -165 -161z"/>
<path d="M1532 11363 c-89 -85 -162 -158 -162 -162 0 -4 73 -78 163 -163 l163
-156 165 158 164 158 -80 82 c-44 45 -118 117 -165 160 l-86 78 -162 -155z"/>
<path d="M2860 11359 l-165 -158 40 -39 c22 -21 97 -93 166 -160 l125 -122
167 161 166 160 -143 139 c-79 77 -154 148 -167 159 l-24 19 -165 -159z"/>
<path d="M4191 11360 l-164 -158 148 -144 c81 -78 156 -149 166 -156 24 -17
30 -13 211 164 l140 136 -162 156 c-90 87 -166 158 -169 159 -3 1 -80 -69
-170 -157z"/>
<path d="M5523 11361 l-162 -159 122 -119 c67 -66 142 -138 167 -160 l45 -41
165 160 165 160 -165 158 c-91 88 -167 159 -170 159 -3 0 -78 -71 -167 -158z"/>
<path d="M6858 11362 l-165 -157 41 -43 c23 -24 97 -97 166 -161 l125 -118
165 158 164 158 -19 21 c-11 12 -86 85 -166 161 l-147 139 -164 -158z"/>
<path d="M8192 11363 c-89 -85 -162 -158 -162 -163 0 -4 73 -77 163 -163 l162
-155 165 158 165 158 -70 72 c-38 39 -113 111 -166 160 l-95 89 -162 -156z"/>
<path d="M9520 11360 l-165 -159 45 -44 c25 -24 99 -96 166 -160 l120 -116
166 159 167 160 -132 129 c-73 70 -148 142 -167 158 l-35 31 -165 -158z"/>
<path d="M10851 11360 l-165 -158 165 -160 164 -160 40 36 c22 19 98 91 168
160 l128 124 -162 157 c-89 86 -164 157 -168 158 -3 1 -80 -69 -170 -157z"/>
<path d="M861 10721 l-163 -158 139 -136 c76 -74 151 -145 166 -157 l27 -21
27 21 c15 12 90 83 166 157 l139 136 -162 156 c-90 86 -166 157 -169 158 -3 1
-80 -69 -170 -156z"/>
<path d="M2192 10720 l-162 -158 166 -161 167 -160 161 155 c89 86 162 159
164 164 2 6 -321 321 -329 320 -2 -1 -77 -72 -167 -160z"/>
<path d="M3528 10722 l-165 -157 31 -33 c17 -19 92 -91 166 -162 l135 -127
165 158 165 158 -40 41 c-22 23 -97 95 -166 161 l-127 119 -164 -158z"/>
<path d="M4862 10724 c-89 -86 -162 -159 -162 -163 0 -4 73 -78 163 -163 l163
-156 164 158 165 159 -90 91 c-49 50 -124 122 -166 160 l-75 69 -162 -155z"/>
<path d="M6190 10720 l-165 -158 164 -159 c91 -87 166 -157 169 -157 2 1 78
72 168 158 l164 157 -145 140 c-79 77 -154 149 -167 159 l-23 18 -165 -158z"/>
<path d="M7521 10721 l-165 -159 149 -143 c81 -79 156 -150 167 -157 23 -16
35 -7 221 176 l127 126 -161 155 c-89 86 -165 157 -168 158 -3 1 -80 -69 -170
-156z"/>
<path d="M8853 10721 l-163 -158 123 -120 c174 -171 203 -196 220 -186 8 4 84
75 168 157 l153 148 -164 159 c-91 87 -167 158 -170 158 -3 0 -78 -71 -167
-158z"/>
<path d="M10187 10723 l-165 -158 42 -43 c22 -24 97 -97 166 -161 l125 -118
165 158 164 158 -29 32 c-17 17 -91 89 -167 160 l-136 129 -165 -157z"/>
<path d="M11522 10724 c-89 -86 -162 -159 -162 -164 0 -4 73 -77 163 -162
l162 -155 165 158 165 158 -70 71 c-38 39 -113 112 -166 160 l-96 89 -161
-155z"/>
<path d="M198 10083 c-120 -115 -162 -161 -155 -171 5 -6 80 -79 166 -161
l156 -148 165 158 165 158 -60 61 c-33 34 -108 106 -167 161 l-106 99 -164
-157z"/>
<path d="M1529 10080 l-164 -159 164 -158 c91 -87 165 -158 167 -158 1 0 76
71 167 158 l165 157 -132 129 c-72 70 -147 142 -167 159 l-36 31 -164 -159z"/>
<path d="M2860 10081 l-165 -159 159 -153 c88 -85 165 -154 173 -154 7 0 85
69 173 153 l160 154 -161 156 c-89 87 -164 158 -168 159 -3 1 -80 -69 -171
-156z"/>
<path d="M4191 10081 l-164 -158 134 -130 c74 -72 149 -143 167 -158 l32 -27
43 37 c23 21 97 92 165 158 l123 121 -162 156 c-89 85 -165 156 -168 157 -3 1
-80 -69 -170 -156z"/>
<path d="M5522 10081 l-163 -158 162 -157 c89 -86 166 -156 171 -156 9 0 320
296 326 310 2 6 -321 321 -329 319 -2 0 -77 -71 -167 -158z"/>
<path d="M6857 10083 l-165 -158 22 -24 c11 -12 86 -85 166 -161 l145 -137
165 158 164 159 -39 41 c-22 22 -97 94 -167 160 l-126 119 -165 -157z"/>
<path d="M8191 10084 c-88 -86 -161 -159 -161 -163 0 -4 73 -77 163 -163 l162
-155 165 158 165 158 -90 91 c-49 50 -124 123 -166 161 l-76 69 -162 -156z"/>
<path d="M9520 10080 l-165 -158 164 -159 c91 -87 166 -158 167 -158 2 0 78
71 168 158 l166 158 -152 147 c-83 81 -158 152 -167 159 -14 9 -41 -12 -181
-147z"/>
<path d="M10850 10081 l-164 -158 148 -144 c82 -79 157 -150 168 -157 22 -16
34 -6 231 186 l118 116 -162 155 c-89 86 -165 157 -168 158 -3 1 -80 -69 -171
-156z"/>
<path d="M862 9442 l-163 -157 123 -121 c68 -67 142 -138 166 -159 l42 -37 43
37 c23 21 97 92 165 159 l123 121 -163 157 c-90 86 -165 157 -168 157 -3 0
-78 -71 -168 -157z"/>
<path d="M2192 9441 l-163 -158 163 -157 c89 -86 166 -156 171 -156 8 0 319
297 325 311 3 6 -313 312 -326 316 -4 1 -80 -69 -170 -156z"/>
<path d="M3526 9443 l-165 -158 162 -157 c89 -87 167 -157 172 -157 6 0 82 70
170 154 l159 155 -59 61 c-33 33 -108 105 -167 160 l-107 100 -165 -158z"/>
<path d="M4859 9440 l-164 -159 160 -155 c88 -85 164 -155 169 -155 4 -1 81
69 171 155 l163 155 -131 128 c-73 70 -148 142 -168 159 l-36 32 -164 -160z"/>
<path d="M6190 9441 l-165 -158 159 -154 c88 -85 165 -154 172 -154 7 0 85 69
174 153 l160 154 -161 156 c-89 87 -164 158 -168 159 -3 2 -80 -69 -171 -156z"/>
<path d="M7521 9441 l-164 -157 134 -131 c74 -72 149 -143 167 -158 l32 -27
78 70 c42 39 116 110 165 159 l87 89 -164 157 c-90 86 -166 157 -168 157 -2
-1 -77 -72 -167 -159z"/>
<path d="M8852 9441 l-164 -158 163 -156 c90 -87 167 -157 171 -157 8 0 320
298 326 310 2 7 -322 321 -329 319 -2 0 -77 -71 -167 -158z"/>
<path d="M10186 9443 l-166 -158 162 -157 c90 -87 168 -157 174 -155 6 1 82
71 170 155 l158 152 -49 51 c-28 28 -103 100 -167 160 l-117 110 -165 -158z"/>
<path d="M11518 9441 l-163 -160 160 -155 c88 -85 165 -155 170 -155 6 0 82
69 170 154 l160 154 -90 91 c-49 50 -124 123 -167 161 l-76 69 -164 -159z"/>
<path d="M230 8800 l-164 -159 163 -158 c91 -87 167 -158 171 -158 4 0 81 71
170 158 l163 159 -163 156 c-90 87 -166 158 -169 159 -3 1 -80 -70 -171 -157z"/>
<path d="M1562 8800 l-162 -158 161 -159 c88 -87 164 -158 168 -158 4 0 81 71
172 158 l164 158 -165 159 c-91 88 -167 159 -170 159 -3 0 -78 -71 -168 -159z"/>
<path d="M2897 8802 l-164 -162 164 -160 165 -160 164 156 c90 86 164 159 164
163 0 6 -119 124 -267 265 l-62 60 -164 -162z"/>
<path d="M4229 8800 l-164 -160 164 -159 165 -160 105 99 c58 54 133 126 166
159 l59 61 -99 101 c-55 55 -130 127 -166 160 l-67 59 -163 -160z"/>
<path d="M5563 8804 c-90 -86 -163 -159 -163 -164 0 -4 74 -78 164 -164 l165
-157 164 161 164 160 -159 158 c-87 86 -162 158 -166 159 -4 1 -80 -68 -169
-153z"/>
<path d="M6890 8800 l-165 -159 164 -158 c91 -87 168 -158 172 -158 4 0 80 71
169 159 l161 158 -162 157 c-89 86 -164 157 -168 158 -3 1 -80 -70 -171 -157z"/>
<path d="M8222 8800 l-164 -159 162 -158 c90 -87 166 -158 170 -158 3 0 80 71
171 158 l164 158 -165 159 c-91 87 -167 159 -170 159 -3 0 -79 -72 -168 -159z"/>
<path d="M9554 8800 l-162 -159 164 -161 164 -162 165 158 c91 86 165 161 165
165 0 7 -316 312 -328 316 -4 1 -80 -69 -168 -157z"/>
<path d="M10888 8801 l-163 -160 70 -71 c39 -39 113 -111 165 -160 l96 -88
164 158 165 158 -80 82 c-44 45 -119 117 -167 161 l-87 80 -163 -160z"/>
<path d="M900 8158 l-165 -159 164 -159 165 -159 95 89 c53 49 127 120 165
159 l70 70 -20 22 c-10 12 -84 83 -164 159 l-145 138 -165 -160z"/>
<path d="M2230 8159 l-165 -160 165 -158 165 -159 30 25 c16 14 91 85 166 158
l137 133 -112 108 c-61 60 -136 132 -166 161 l-55 51 -165 -159z"/>
<path d="M4899 8163 c-90 -87 -164 -161 -164 -164 0 -4 73 -77 162 -164 l163
-157 165 158 c91 87 164 161 163 165 -2 3 -76 77 -164 163 l-162 156 -163
-157z"/>
<path d="M6227 8157 l-166 -162 166 -158 165 -157 161 153 c88 84 162 158 164
163 2 5 -70 80 -160 166 l-164 156 -166 -161z"/>
<path d="M7560 8160 l-165 -158 70 -72 c39 -39 113 -111 166 -160 l95 -89 162
155 c89 86 162 159 162 164 0 4 -73 77 -163 163 l-162 155 -165 -158z"/>
<path d="M8890 8159 l-165 -160 165 -159 165 -158 40 35 c22 20 97 91 166 159
l126 123 -106 103 c-58 57 -133 129 -166 160 l-60 56 -165 -159z"/>
<path d="M10220 8158 l-165 -160 165 -158 c91 -88 168 -158 171 -157 4 1 79
72 167 158 l162 156 -123 120 c-67 66 -142 138 -167 160 l-45 41 -165 -160z"/>
<path d="M3558 8155 c-87 -84 -158 -155 -158 -157 0 -2 74 -75 165 -162 l165
-158 163 157 c89 87 162 160 162 164 0 12 -316 311 -328 311 -7 -1 -83 -70
-169 -155z"/>
<path d="M11552 8158 c-86 -84 -157 -156 -157 -160 0 -3 73 -77 162 -163 l163
-157 165 159 c91 87 164 160 163 164 -7 15 -318 309 -327 309 -6 0 -82 -69
-169 -152z"/>
<path d="M199 7519 l-164 -159 165 -160 164 -160 71 67 c177 171 255 248 255
254 0 3 -73 76 -163 162 l-163 155 -165 -159z"/>
<path d="M1530 7519 l-165 -159 165 -159 164 -159 96 88 c52 49 126 120 165
159 l69 71 -39 41 c-22 22 -96 94 -165 159 l-125 118 -165 -159z"/>
<path d="M2860 7518 l-165 -159 165 -158 165 -158 30 25 c17 13 92 84 167 157
l137 133 -117 115 c-64 62 -139 134 -167 159 l-50 46 -165 -160z"/>
<path d="M4191 7518 l-164 -159 163 -157 c90 -86 166 -157 170 -157 4 0 80 71
169 157 l163 157 -145 141 c-80 78 -156 149 -169 159 l-23 18 -164 -159z"/>
<path d="M5529 7522 c-90 -86 -164 -160 -164 -163 0 -3 73 -76 163 -162 l163
-157 165 157 c90 87 163 161 162 164 -2 4 -76 78 -164 163 l-162 156 -163
-158z"/>
<path d="M6857 7519 l-166 -159 166 -160 166 -160 160 153 c89 84 162 158 164
163 2 6 -70 81 -160 166 l-164 156 -166 -159z"/>
<path d="M8190 7519 l-165 -159 165 -159 164 -159 116 108 c63 60 137 131 164
159 59 60 75 33 -134 231 l-145 138 -165 -159z"/>
<path d="M9520 7519 l-165 -160 165 -158 165 -159 40 36 c22 19 97 90 166 158
l126 123 -116 113 c-64 62 -138 134 -166 160 l-50 46 -165 -159z"/>
<path d="M10850 7518 l-164 -159 164 -157 c90 -86 166 -157 170 -157 4 0 80
71 169 157 l162 156 -133 130 c-73 71 -149 143 -168 159 l-35 30 -165 -159z"/>
<path d="M861 6879 l-164 -160 163 -157 c90 -86 166 -157 170 -157 4 0 80 71
170 157 l163 158 -163 157 c-89 87 -165 159 -169 160 -3 1 -80 -70 -170 -158z"/>
<path d="M2198 6883 c-90 -87 -163 -160 -163 -163 0 -3 73 -76 163 -163 l163
-157 165 157 c90 86 164 160 164 163 0 3 -74 76 -164 163 l-165 157 -163 -157z"/>
<path d="M3529 6880 l-164 -160 164 -160 164 -160 160 153 c89 85 162 158 164
164 2 5 -70 80 -160 166 l-164 156 -164 -159z"/>
<path d="M4860 6879 l-165 -159 165 -159 164 -159 116 108 c63 60 137 131 165
159 l49 51 -39 41 c-22 22 -96 94 -165 159 l-125 118 -165 -159z"/>
<path d="M6190 6879 l-165 -159 165 -159 165 -159 40 36 c22 19 97 90 166 158
l126 124 -116 113 c-64 63 -138 134 -166 159 l-50 46 -165 -159z"/>
<path d="M7521 6878 l-164 -158 163 -158 c90 -86 167 -157 170 -157 4 0 80 71
169 157 l162 158 -145 141 c-80 77 -155 148 -168 158 l-23 18 -164 -159z"/>
<path d="M8858 6883 c-90 -86 -163 -160 -163 -163 0 -4 73 -77 163 -163 l163
-157 165 157 c90 87 163 161 162 165 -2 3 -76 77 -165 162 l-161 156 -164
-157z"/>
<path d="M10187 6879 l-166 -160 166 -159 166 -159 163 156 c90 86 164 159
164 163 0 4 -74 77 -164 163 l-164 156 -165 -160z"/>
<path d="M11520 6879 l-165 -159 165 -159 164 -159 126 118 c69 65 143 137
164 159 l40 41 -30 31 c-16 17 -90 89 -164 159 l-136 128 -164 -159z"/>
<path d="M231 6240 l-164 -160 164 -159 c137 -133 167 -157 180 -147 9 6 85
78 168 159 l153 148 -162 157 c-90 86 -165 158 -169 159 -3 1 -80 -70 -170
-157z"/>
<path d="M1568 6243 c-90 -87 -163 -160 -163 -163 0 -3 73 -76 163 -163 l163
-157 165 157 c90 87 164 160 164 163 0 3 -74 76 -164 163 l-165 157 -163 -157z"/>
<path d="M2899 6240 l-164 -160 164 -160 164 -159 163 156 c90 86 164 159 164
163 0 4 -74 78 -164 164 l-163 156 -164 -160z"/>
<path d="M4230 6239 l-165 -159 165 -159 164 -159 136 128 c74 70 148 142 164
159 l30 31 -40 41 c-21 22 -95 94 -164 159 l-126 118 -164 -159z"/>
<path d="M5562 6242 c-89 -87 -162 -160 -162 -163 0 -3 74 -76 164 -162 l164
-156 164 159 165 159 -126 123 c-69 68 -144 140 -166 160 l-40 36 -163 -156z"/>
<path d="M6890 6239 l-164 -158 164 -159 165 -159 30 25 c17 13 92 85 168 159
l138 133 -145 141 c-80 77 -155 148 -168 158 l-23 18 -165 -158z"/>
<path d="M8228 6244 c-90 -87 -163 -160 -163 -164 0 -3 73 -77 163 -164 l163
-157 162 157 c89 86 163 159 164 163 2 3 -71 77 -162 164 l-164 158 -163 -157z"/>
<path d="M9557 6242 c-91 -86 -165 -159 -165 -162 0 -3 74 -76 165 -162 l166
-157 163 156 c90 86 164 160 164 163 0 4 -74 77 -164 163 l-164 157 -165 -158z"/>
<path d="M10889 6239 l-164 -159 165 -159 164 -159 158 150 c87 83 161 155
164 160 8 12 -16 37 -187 198 l-135 129 -165 -160z"/>
<path d="M902 5603 c-89 -85 -162 -158 -162 -163 0 -4 73 -77 163 -163 l163
-155 164 158 165 158 -60 62 c-33 34 -107 106 -165 160 l-106 98 -162 -155z"/>
<path d="M2232 5601 c-89 -86 -162 -158 -162 -161 0 -3 74 -76 164 -162 l163
-157 166 160 166 159 -132 129 c-73 70 -148 142 -167 158 l-35 31 -163 -157z"/>
<path d="M3561 5600 l-165 -159 165 -159 164 -159 30 25 c17 13 92 85 168 159
l138 134 -162 157 c-89 86 -164 158 -168 159 -3 1 -80 -70 -170 -157z"/>
<path d="M4892 5600 l-162 -159 132 -129 c73 -71 149 -143 168 -159 l35 -30
165 159 164 159 -164 159 c-91 87 -167 159 -170 159 -3 0 -78 -71 -168 -159z"/>
<path d="M6227 5600 l-166 -160 166 -159 166 -160 163 157 c90 86 164 159 164
163 0 4 -74 77 -164 163 l-164 156 -165 -160z"/>
<path d="M7559 5599 l-164 -159 165 -159 165 -159 158 150 c86 83 160 155 163
160 7 12 -30 51 -197 208 l-125 119 -165 -160z"/>
<path d="M8892 5602 c-89 -86 -163 -160 -162 -163 0 -3 74 -76 163 -161 l164
-157 165 159 165 159 -126 123 c-69 68 -144 140 -166 160 l-40 37 -163 -157z"/>
<path d="M10220 5599 l-165 -158 165 -159 165 -159 40 35 c22 19 97 91 167
159 l128 124 -152 147 c-83 81 -158 152 -167 158 -13 10 -43 -15 -181 -147z"/>
<path d="M11552 5600 l-164 -159 145 -140 c79 -78 155 -149 168 -160 l24 -18
164 159 164 159 -163 157 c-89 86 -166 158 -169 159 -3 1 -79 -69 -169 -157z"/>
<path d="M231 4960 l-164 -158 153 -149 c84 -81 159 -152 166 -156 19 -11 40
7 207 170 l139 135 -163 157 c-89 86 -165 157 -168 158 -3 1 -80 -69 -170
-157z"/>
<path d="M1563 4961 l-162 -158 122 -120 c67 -66 142 -138 167 -160 l45 -41
165 160 165 160 -165 158 c-91 88 -167 159 -170 159 -3 0 -78 -71 -167 -158z"/>
<path d="M2898 4962 l-165 -157 51 -53 c28 -30 103 -102 166 -161 l115 -108
165 158 164 158 -19 21 c-11 12 -86 85 -166 161 l-147 139 -164 -158z"/>
<path d="M4232 4964 c-89 -86 -162 -159 -162 -164 0 -4 73 -77 163 -163 l162
-155 165 158 165 158 -70 72 c-38 39 -113 111 -166 160 l-95 89 -162 -155z"/>
<path d="M5562 4961 c-90 -86 -163 -158 -162 -161 0 -3 73 -76 163 -162 l164
-156 166 159 166 159 -132 129 c-73 70 -148 142 -167 158 l-35 31 -163 -157z"/>
<path d="M6890 4960 l-164 -158 164 -160 165 -160 40 36 c22 19 98 91 168 160
l128 124 -162 157 c-89 86 -164 157 -168 158 -3 1 -80 -69 -171 -157z"/>
<path d="M8222 4960 l-163 -158 133 -130 c153 -149 194 -185 207 -180 5 1 80
72 167 156 l158 154 -165 158 c-90 88 -166 159 -169 159 -3 0 -78 -71 -168
-159z"/>
<path d="M9556 4963 l-166 -158 167 -162 166 -162 163 157 c90 86 164 160 164
163 0 4 -74 77 -164 163 l-164 156 -166 -157z"/>
<path d="M10890 4960 l-165 -160 165 -159 164 -159 163 156 c90 85 163 158
163 161 0 6 -123 128 -265 264 l-61 57 -164 -160z"/>
<path d="M900 4319 l-165 -159 164 -160 164 -160 56 49 c31 27 105 99 166 160
l110 111 -70 71 c-39 39 -113 110 -165 159 l-96 88 -164 -159z"/>
<path d="M2230 4319 l-165 -160 165 -159 c91 -88 168 -158 172 -157 3 1 78 72
166 159 l159 156 -146 144 c-80 79 -155 151 -166 160 -19 15 -27 9 -185 -143z"/>
<path d="M3560 4319 l-165 -160 165 -159 c91 -87 168 -158 171 -157 4 1 79 73
169 159 l162 157 -162 158 c-89 87 -165 159 -169 160 -3 1 -80 -70 -171 -158z"/>
<path d="M4892 4319 l-163 -161 162 -157 c89 -86 164 -157 168 -158 3 -1 80
70 171 157 l165 159 -164 158 c-90 87 -167 159 -170 160 -3 1 -79 -70 -169
-158z"/>
<path d="M6227 4320 l-164 -160 159 -158 c88 -86 163 -157 168 -157 11 0 330
304 330 315 0 4 -74 78 -164 164 l-165 157 -164 -161z"/>
<path d="M7559 4320 l-164 -158 100 -102 c55 -56 130 -128 166 -161 l67 -59
163 159 164 159 -50 52 c-27 28 -102 101 -166 160 l-116 109 -164 -159z"/>
<path d="M8890 4320 l-165 -158 50 -52 c28 -28 103 -101 168 -162 l117 -111
163 161 163 161 -130 128 c-72 71 -147 143 -166 160 l-35 31 -165 -158z"/>
<path d="M10220 4319 l-165 -160 165 -159 c91 -87 168 -158 171 -157 4 1 79
72 168 159 l162 156 -162 159 c-88 87 -164 159 -167 160 -4 1 -81 -70 -172
-158z"/>
<path d="M11551 4319 l-164 -161 163 -157 c90 -86 166 -156 170 -156 4 0 80
71 171 157 l164 157 -164 158 c-90 87 -166 159 -170 160 -3 1 -80 -70 -170
-158z"/>
<path d="M265 3674 l-160 -155 164 -159 163 -160 67 59 c36 33 111 105 166
161 l100 101 -160 154 c-88 85 -164 154 -170 154 -5 0 -82 -70 -170 -155z"/>
<path d="M1595 3674 l-160 -156 164 -158 c141 -136 167 -157 181 -147 10 7 85
78 169 159 l151 146 -161 154 c-88 84 -166 154 -172 155 -7 1 -84 -68 -172
-153z"/>
<path d="M2933 3678 c-87 -83 -159 -155 -161 -158 -1 -4 72 -78 163 -164 l165
-158 166 159 166 158 -163 158 c-90 86 -166 157 -171 157 -4 0 -79 -68 -165
-152z"/>
<path d="M4260 3673 l-162 -158 166 -158 166 -159 165 158 c91 86 164 160 163
163 -6 14 -319 311 -327 311 -5 0 -82 -71 -171 -157z"/>
<path d="M5592 3673 l-162 -158 165 -159 165 -158 138 130 c75 72 150 144 166
161 l29 30 -158 153 c-87 84 -163 154 -169 156 -6 1 -84 -69 -174 -155z"/>
<path d="M6923 3674 l-161 -155 131 -128 c73 -70 148 -142 168 -159 l36 -32
164 160 164 159 -160 155 c-88 85 -164 155 -170 155 -5 0 -83 -70 -172 -155z"/>
<path d="M8255 3674 l-160 -156 164 -158 164 -159 25 20 c14 10 89 82 168 158
l143 140 -163 155 c-90 86 -167 156 -172 155 -5 0 -81 -70 -169 -155z"/>
<path d="M9592 3678 c-86 -83 -158 -155 -160 -159 -3 -7 316 -314 327 -314 4
0 81 70 170 156 l162 156 -163 157 c-89 86 -166 156 -171 156 -5 0 -79 -68
-165 -152z"/>
<path d="M10922 3678 c-88 -84 -160 -156 -161 -159 -1 -3 73 -76 164 -163
l165 -158 165 158 c91 87 165 160 164 163 -2 9 -313 304 -325 308 -6 2 -83
-65 -172 -149z"/>
<path d="M2267 3039 l-167 -160 152 -147 c83 -81 158 -152 167 -159 14 -9 41
13 181 147 l165 158 -35 34 c-19 19 -94 91 -165 161 l-130 126 -168 -160z"/>
<path d="M3600 3039 l-165 -158 90 -91 c50 -50 124 -123 166 -161 l76 -69 162
156 c88 86 161 159 161 163 0 4 -73 77 -163 163 l-162 155 -165 -158z"/>
<path d="M4930 3038 l-165 -160 164 -158 165 -158 30 25 c17 14 92 85 167 158
l137 133 -92 88 c-50 49 -125 121 -166 161 l-75 71 -165 -160z"/>
<path d="M10258 3039 l-166 -159 132 -129 c72 -70 147 -142 167 -159 l35 -31
162 155 c89 86 162 159 162 163 0 4 -73 77 -163 163 l-163 155 -166 -158z"/>
<path d="M11590 3039 l-165 -160 164 -159 164 -159 36 31 c20 17 95 88 167
159 l131 128 -86 83 c-47 46 -122 118 -166 160 l-80 76 -165 -159z"/>
<path d="M932 3038 c-88 -84 -160 -155 -161 -158 0 -3 73 -76 164 -163 l165
-159 165 158 c91 86 164 160 163 164 -6 13 -318 310 -326 310 -5 0 -81 -69
-170 -152z"/>
<path d="M6262 3039 c-86 -84 -158 -155 -160 -159 -1 -4 72 -78 163 -164 l165
-158 165 159 166 158 -162 158 c-89 86 -166 157 -171 157 -5 0 -80 -68 -166
-151z"/>
<path d="M7592 3038 c-88 -84 -160 -155 -161 -158 -1 -3 73 -76 164 -163 l165
-159 165 158 c91 87 164 161 163 164 -6 13 -320 310 -327 310 -5 0 -81 -69
-169 -152z"/>
<path d="M8922 3034 l-162 -156 161 -156 c89 -87 164 -158 168 -159 3 -1 80
69 171 156 l165 159 -159 153 c-87 85 -164 155 -170 157 -6 1 -84 -68 -174
-154z"/>
<path d="M270 2399 l-165 -158 70 -71 c39 -39 113 -112 166 -160 l96 -89 161
155 c89 86 162 159 162 164 0 4 -73 77 -163 162 l-162 155 -165 -158z"/>
<path d="M1600 2398 l-165 -159 165 -159 164 -158 31 25 c16 14 91 85 166 158
l137 133 -102 98 c-55 55 -130 127 -166 161 l-65 61 -165 -160z"/>
<path d="M5597 2397 l-167 -162 166 -158 166 -158 161 154 c89 85 162 159 162
165 0 6 -72 80 -161 165 l-161 156 -166 -162z"/>
<path d="M6930 2400 l-165 -159 90 -91 c50 -50 124 -122 166 -160 l75 -69 162
155 c89 86 162 159 162 163 0 4 -73 78 -163 163 l-163 156 -164 -158z"/>
<path d="M8260 2399 l-165 -160 165 -159 164 -159 41 36 c22 20 97 91 166 159
l126 123 -96 93 c-53 51 -127 123 -166 160 l-70 66 -165 -159z"/>
<path d="M9593 2400 c-90 -86 -163 -159 -163 -162 0 -3 74 -76 165 -163 l165
-157 164 158 164 159 -71 73 c-40 41 -115 113 -167 161 l-95 88 -162 -157z"/>
<path d="M2933 2399 c-87 -83 -159 -155 -161 -159 -1 -3 72 -77 163 -164 l165
-158 163 157 c89 86 163 160 163 164 2 8 -307 303 -324 309 -6 2 -83 -65 -169
-149z"/>
<path d="M4262 2398 c-88 -84 -159 -156 -158 -160 0 -4 74 -77 163 -163 l163
-157 165 158 c91 87 164 161 163 164 -6 14 -318 310 -327 310 -6 0 -82 -69
-169 -152z"/>
<path d="M10922 2398 c-86 -84 -158 -155 -160 -158 -1 -3 72 -76 163 -163
l165 -159 165 159 c91 87 164 160 163 163 -8 15 -319 310 -328 310 -6 0 -81
-69 -168 -152z"/>
<path d="M939 1763 c-90 -87 -164 -161 -164 -164 0 -4 73 -77 162 -164 l163
-157 165 158 c91 87 164 161 163 165 -2 3 -76 77 -164 163 l-162 156 -163
-157z"/>
<path d="M2267 1757 l-166 -162 166 -158 165 -157 161 153 c88 84 162 158 164
163 2 5 -71 80 -161 166 l-163 157 -166 -162z"/>
<path d="M3600 1760 l-165 -158 70 -72 c39 -39 113 -111 166 -160 l95 -89 162
156 c89 85 162 158 162 163 0 4 -73 77 -163 163 l-162 155 -165 -158z"/>
<path d="M4930 1759 l-165 -160 165 -159 165 -158 40 35 c22 20 97 91 166 159
l126 123 -101 98 c-56 54 -130 126 -166 160 l-65 61 -165 -159z"/>
<path d="M6260 1758 l-165 -160 165 -158 c91 -88 168 -158 171 -157 4 1 79 72
167 158 l161 157 -122 119 c-67 66 -142 138 -167 160 l-45 41 -165 -160z"/>
<path d="M8927 1757 l-166 -162 165 -158 165 -158 165 157 c90 86 164 160 164
163 0 3 -74 77 -164 163 l-163 157 -166 -162z"/>
<path d="M10259 1760 l-164 -158 80 -82 c44 -45 118 -117 165 -160 l86 -78
162 155 c89 85 162 158 162 162 0 4 -73 78 -163 163 l-163 156 -165 -158z"/>
<path d="M11590 1758 l-165 -159 165 -159 164 -158 86 78 c47 43 121 115 165
159 l79 81 -29 31 c-17 17 -91 88 -165 159 l-135 127 -165 -159z"/>
<path d="M7593 1758 c-87 -84 -158 -156 -158 -159 0 -4 73 -78 162 -164 l163
-157 165 159 c91 87 164 161 163 164 -7 14 -319 309 -328 309 -5 0 -81 -69
-167 -152z"/>
<path d="M300 1119 l-165 -159 165 -159 165 -159 85 78 c47 43 121 115 165
159 l79 81 -39 41 c-22 22 -96 94 -165 159 l-125 118 -165 -159z"/>
<path d="M1630 1118 l-165 -159 165 -158 165 -158 30 25 c17 13 92 84 167 157
l136 133 -121 120 c-67 65 -142 137 -167 159 l-45 40 -165 -159z"/>
<path d="M4297 1122 c-91 -86 -164 -159 -163 -163 0 -3 74 -76 164 -162 l163
-158 164 157 c91 87 165 160 165 163 0 3 -74 77 -164 163 l-164 157 -165 -157z"/>
<path d="M5629 1119 l-164 -159 164 -160 165 -161 75 73 c198 190 251 243 251
249 0 3 -73 76 -163 162 l-164 155 -164 -159z"/>
<path d="M6960 1119 l-165 -159 165 -159 164 -159 106 98 c58 54 132 126 165
159 l59 61 -29 31 c-17 17 -91 88 -165 159 l-135 128 -165 -159z"/>
<path d="M8290 1119 l-165 -160 165 -158 165 -159 35 31 c19 16 94 87 166 157
l131 128 -116 114 c-64 62 -138 134 -166 160 l-50 46 -165 -159z"/>
<path d="M9620 1118 l-164 -159 164 -157 c90 -86 166 -157 170 -157 4 0 80 71
169 157 l162 157 -138 134 c-76 74 -151 146 -168 159 l-30 25 -165 -159z"/>
<path d="M10958 1123 c-89 -87 -163 -160 -163 -163 0 -3 73 -77 162 -164 l163
-158 165 158 c91 87 164 161 163 165 -2 4 -76 77 -165 163 l-161 156 -164
-157z"/>
<path d="M2962 1118 c-86 -83 -157 -155 -157 -159 0 -4 73 -78 163 -164 l162
-157 163 157 c89 86 162 160 162 164 0 11 -313 311 -325 311 -6 0 -82 -68
-168 -152z"/>
<path d="M967 482 c-91 -86 -164 -159 -163 -162 0 -3 75 -77 164 -163 l164
-157 164 157 c90 86 164 159 164 163 0 3 -74 76 -164 163 l-164 157 -165 -158z"/>
<path d="M2299 479 l-164 -159 164 -160 165 -159 160 153 c88 84 161 157 163
163 2 5 -70 80 -160 166 l-163 156 -165 -160z"/>
<path d="M3630 480 l-165 -158 20 -22 c11 -12 86 -85 166 -161 l146 -138 164
159 164 158 -50 52 c-27 28 -102 100 -165 160 l-115 108 -165 -158z"/>
<path d="M4960 479 l-165 -159 165 -159 165 -158 35 30 c19 16 94 87 166 158
l131 128 -121 119 c-66 65 -141 137 -166 159 l-45 40 -165 -158z"/>
<path d="M6291 478 l-164 -158 163 -158 c90 -86 166 -157 170 -157 4 0 80 71
169 157 l163 157 -153 148 c-83 81 -159 153 -168 159 -13 10 -43 -14 -180
-148z"/>
<path d="M7628 483 c-90 -87 -163 -160 -163 -163 0 -3 73 -76 163 -163 l163
-157 165 157 c90 87 164 160 164 163 0 3 -74 76 -164 163 l-165 157 -163 -157z"/>
<path d="M8959 480 l-164 -160 164 -160 164 -160 163 156 c90 86 164 160 164
164 0 4 -74 77 -164 163 l-163 156 -164 -159z"/>
<path d="M10290 479 l-165 -159 165 -159 164 -159 126 118 c69 65 143 137 164
159 l40 41 -30 31 c-16 17 -90 89 -164 159 l-136 128 -164 -159z"/>
<path d="M11620 479 l-165 -159 165 -159 165 -159 45 41 c25 22 99 93 166 159
l121 118 -116 113 c-64 63 -138 134 -166 159 l-50 46 -165 -159z"/>
</g>
</svg>
