<?xml version="1.0" standalone="no"?>
<!DOCTYPE svg PUBLIC "-//W3C//DTD SVG 20010904//EN"
 "http://www.w3.org/TR/2001/REC-SVG-20010904/DTD/svg10.dtd">
<svg version="1.0" xmlns="http://www.w3.org/2000/svg"
 width="1280.000000pt" height="1280.000000pt" viewBox="0 0 1280.000000 1280.000000"
 preserveAspectRatio="xMidYMid meet">
<g transform="translate(0.000000,1280.000000) scale(0.100000,-0.100000)"
fill="#414141" stroke="none">
<path d="M0 12400 l0 -400 232 2 233 3 227 394 c126 217 228 396 228 398 0 1
-207 3 -460 3 l-460 0 0 -400z"/>
<path d="M2280 12797 c0 -2 102 -181 228 -398 l227 -394 465 0 465 0 227 394
c126 217 228 396 228 398 0 1 -414 3 -920 3 -506 0 -920 -2 -920 -3z"/>
<path d="M5480 12797 c0 -2 102 -181 228 -398 l227 -394 465 0 465 0 227 394
c126 217 228 396 228 398 0 1 -414 3 -920 3 -506 0 -920 -2 -920 -3z"/>
<path d="M8680 12797 c0 -2 102 -181 228 -398 l227 -394 465 0 465 0 227 394
c126 217 228 396 228 398 0 1 -414 3 -920 3 -506 0 -920 -2 -920 -3z"/>
<path d="M11880 12797 c0 -2 102 -181 228 -398 l227 -394 233 -3 232 -2 0 400
0 400 -460 0 c-253 0 -460 -2 -460 -3z"/>
<path d="M910 11609 c-124 -215 -226 -396 -228 -402 -1 -7 100 -190 225 -407
l228 -395 465 0 465 0 228 395 c125 217 226 400 225 406 -2 7 -104 188 -228
403 l-225 390 -465 0 -465 0 -225 -390z"/>
<path d="M4110 11609 c-124 -215 -226 -396 -228 -402 -1 -7 100 -190 225 -407
l228 -395 465 0 465 0 228 395 c125 217 226 400 225 406 -2 7 -104 188 -228
403 l-225 390 -465 0 -465 0 -225 -390z"/>
<path d="M7310 11609 c-124 -215 -226 -396 -228 -402 -1 -7 100 -190 225 -407
l228 -395 465 0 465 0 228 395 c125 217 226 400 225 406 -2 7 -104 188 -228
403 l-225 390 -465 0 -465 0 -225 -390z"/>
<path d="M10510 11609 c-124 -215 -226 -396 -228 -402 -1 -7 100 -190 225
-407 l228 -395 465 0 465 0 228 395 c125 217 226 400 225 406 -2 7 -104 188
-228 403 l-225 390 -465 0 -465 0 -225 -390z"/>
<path d="M0 9600 l0 -800 232 2 233 3 228 395 c125 217 226 400 225 407 -2 6
-104 187 -228 402 l-225 390 -232 1 -233 0 0 -800z"/>
<path d="M2510 10009 c-124 -215 -226 -396 -228 -402 -1 -7 100 -190 225 -407
l228 -395 465 0 465 0 228 395 c125 217 226 400 225 407 -2 6 -104 187 -228
402 l-225 390 -465 0 -465 1 -225 -391z"/>
<path d="M5710 10009 c-124 -215 -226 -396 -228 -402 -1 -7 100 -190 225 -407
l228 -395 465 0 465 0 228 395 c125 217 226 400 225 407 -2 6 -104 187 -228
402 l-225 390 -465 0 -465 0 -225 -390z"/>
<path d="M8910 10009 c-124 -215 -226 -396 -228 -402 -1 -7 100 -190 225 -407
l228 -395 465 0 465 0 228 395 c125 217 226 400 225 407 -2 6 -104 187 -228
402 l-225 391 -465 -1 -465 0 -225 -390z"/>
<path d="M12110 10009 c-124 -215 -226 -396 -228 -402 -1 -7 100 -190 225
-407 l228 -395 233 -3 232 -2 0 800 0 800 -232 0 -233 -1 -225 -390z"/>
<path d="M910 8409 c-124 -215 -226 -396 -228 -402 -1 -7 100 -190 225 -407
l228 -395 465 0 465 0 228 395 c125 217 226 400 225 407 -2 6 -104 187 -228
402 l-225 390 -465 0 -465 1 -225 -391z"/>
<path d="M4110 8409 c-124 -215 -226 -396 -228 -402 -1 -7 100 -190 225 -407
l228 -395 465 0 465 0 228 395 c125 217 226 400 225 407 -2 6 -104 187 -228
402 l-225 390 -465 0 -465 1 -225 -391z"/>
<path d="M7310 8409 c-124 -215 -226 -396 -228 -402 -1 -7 100 -190 225 -407
l228 -395 465 0 465 0 228 395 c125 217 226 400 225 407 -2 6 -104 187 -228
402 l-225 390 -465 0 -465 0 -225 -390z"/>
<path d="M10510 8409 c-124 -215 -226 -396 -228 -402 -1 -7 100 -190 225 -407
l228 -395 465 0 465 0 228 395 c125 217 226 400 225 407 -2 6 -104 187 -228
402 l-225 391 -465 -1 -465 0 -225 -390z"/>
<path d="M0 6400 l0 -800 233 0 232 1 225 390 c124 215 226 396 228 403 1 6
-100 189 -225 406 l-228 395 -233 3 -232 2 0 -800z"/>
<path d="M2726 7178 c-65 -101 -446 -775 -444 -784 2 -7 104 -188 228 -403
l225 -390 465 0 465 0 225 390 c124 215 226 396 228 403 1 6 -100 189 -225
406 l-228 395 -462 3 -462 2 -15 -22z"/>
<path d="M5926 7178 c-64 -100 -446 -775 -444 -784 2 -6 104 -188 228 -403
l225 -390 465 0 465 0 225 390 c124 215 226 397 228 403 1 7 -100 189 -225
406 l-228 395 -462 3 -462 2 -15 -22z"/>
<path d="M9126 7178 c-65 -101 -446 -775 -444 -784 2 -7 104 -188 228 -403
l225 -390 465 0 465 0 225 390 c124 215 226 397 228 403 1 7 -100 189 -225
406 l-228 395 -462 3 -462 2 -15 -22z"/>
<path d="M12326 7178 c-65 -101 -446 -775 -444 -784 2 -7 104 -188 228 -403
l225 -390 233 -1 232 0 0 800 0 800 -230 0 c-227 0 -230 0 -244 -22z"/>
<path d="M1126 5578 c-65 -101 -446 -775 -444 -784 2 -7 104 -188 228 -403
l225 -390 465 0 465 0 225 390 c124 215 226 397 228 403 1 7 -100 189 -225
406 l-228 395 -462 3 -462 2 -15 -22z"/>
<path d="M4326 5578 c-64 -100 -446 -775 -444 -784 2 -6 104 -188 228 -403
l225 -390 465 0 465 0 225 390 c124 215 226 396 228 403 1 6 -100 189 -225
406 l-228 395 -462 3 -462 2 -15 -22z"/>
<path d="M7526 5578 c-64 -100 -446 -775 -444 -784 2 -7 104 -188 228 -403
l225 -390 465 0 465 0 225 390 c124 215 226 396 228 403 1 6 -100 189 -225
406 l-228 395 -462 3 -462 2 -15 -22z"/>
<path d="M10726 5578 c-65 -101 -446 -775 -444 -784 2 -7 104 -188 228 -403
l225 -390 465 0 465 0 225 390 c124 215 226 396 228 403 1 6 -100 189 -225
406 l-228 395 -462 3 -462 2 -15 -22z"/>
<path d="M0 3200 l0 -800 233 0 232 1 225 390 c124 215 226 396 228 403 1 6
-100 189 -225 406 l-228 395 -233 3 -232 2 0 -800z"/>
<path d="M2726 3978 c-62 -97 -446 -775 -444 -784 2 -7 104 -188 228 -403
l225 -390 465 0 465 0 225 390 c124 215 226 396 228 403 1 6 -100 189 -225
406 l-228 395 -462 3 -462 2 -15 -22z"/>
<path d="M5926 3978 c-62 -96 -446 -775 -444 -784 2 -7 104 -188 228 -403
l225 -390 465 0 465 0 225 390 c124 215 226 396 228 403 1 6 -100 189 -225
406 l-228 395 -462 3 -462 2 -15 -22z"/>
<path d="M9126 3978 c-61 -95 -446 -775 -444 -784 2 -6 104 -188 228 -403
l225 -390 465 0 465 0 225 390 c124 215 226 397 228 403 1 7 -100 189 -225
406 l-228 395 -462 3 -462 2 -15 -22z"/>
<path d="M12326 3978 c-62 -97 -446 -775 -444 -784 2 -7 104 -188 228 -403
l225 -390 233 -1 232 0 0 800 0 800 -230 0 c-227 0 -230 0 -244 -22z"/>
<path d="M1126 2378 c-62 -97 -446 -775 -444 -784 2 -7 104 -188 228 -403
l225 -390 465 0 465 0 225 390 c124 215 226 397 228 403 1 7 -100 189 -225
406 l-228 395 -462 3 -462 2 -15 -22z"/>
<path d="M4326 2378 c-61 -96 -446 -775 -444 -784 2 -6 104 -188 228 -403
l225 -390 465 0 465 0 225 390 c124 215 226 396 228 403 1 6 -100 189 -225
406 l-228 395 -462 3 -462 2 -15 -22z"/>
<path d="M7526 2378 c-64 -100 -446 -775 -444 -784 2 -7 104 -188 228 -403
l225 -390 465 0 465 0 225 390 c124 215 226 396 228 403 1 6 -100 189 -225
406 l-228 395 -462 3 -462 2 -15 -22z"/>
<path d="M10726 2378 c-62 -97 -446 -775 -444 -784 2 -7 104 -188 228 -403
l225 -390 465 0 465 0 225 390 c124 215 226 396 228 403 1 6 -100 189 -225
406 l-228 395 -462 3 -462 2 -15 -22z"/>
<path d="M0 400 l0 -400 460 0 c253 0 460 2 460 3 0 2 -102 181 -228 398
l-227 394 -233 3 -232 2 0 -400z"/>
<path d="M2726 778 c-22 -34 -446 -771 -446 -775 0 -1 414 -3 920 -3 506 0
920 2 920 3 0 2 -102 181 -228 398 l-227 394 -462 3 -462 2 -15 -22z"/>
<path d="M5926 778 c-22 -34 -446 -771 -446 -775 0 -1 414 -3 920 -3 506 0
920 2 920 3 0 2 -102 181 -228 398 l-227 394 -462 3 -462 2 -15 -22z"/>
<path d="M9126 778 c-22 -34 -446 -771 -446 -775 0 -1 414 -3 920 -3 506 0
920 2 920 3 0 2 -102 181 -228 398 l-227 394 -462 3 -462 2 -15 -22z"/>
<path d="M12326 778 c-22 -34 -446 -771 -446 -775 0 -1 207 -3 460 -3 l460 0
0 400 0 400 -230 0 c-227 0 -230 0 -244 -22z"/>
</g>
</svg>
