<?xml version="1.0" standalone="no"?>
<!DOCTYPE svg PUBLIC "-//W3C//DTD SVG 20010904//EN"
 "http://www.w3.org/TR/2001/REC-SVG-20010904/DTD/svg10.dtd">
<svg version="1.0" xmlns="http://www.w3.org/2000/svg"
 width="1280.000000pt" height="1280.000000pt" viewBox="0 0 1280.000000 1280.000000"
 preserveAspectRatio="xMidYMid meet">
<g transform="translate(0.000000,1280.000000) scale(0.100000,-0.100000)"
fill="#1f1f1f" stroke="none">
<path d="M0 6400 l0 -6400 6400 0 6400 0 0 6400 0 6400 -6400 0 -6400 0 0
-6400z m12010 -5 l0 -5655 -5640 0 -5640 0 0 5648 c0 3107 3 5652 7 5655 3 4
2541 7 5640 7 l5633 0 0 -5655z"/>
<path d="M1330 6395 l0 -5085 5080 0 5080 0 0 5085 0 5085 -5080 0 -5080 0 0
-5085z m1058 4809 c42 -8 115 -34 162 -56 120 -58 240 -178 298 -298 53 -109
74 -200 73 -320 0 -180 -54 -304 -191 -441 -70 -70 -103 -95 -171 -128 -121
-58 -199 -74 -339 -68 -135 5 -238 34 -339 95 -198 120 -310 301 -319 517 -5
131 15 224 73 343 135 272 444 419 753 356z m8337 -9 c233 -64 421 -250 481
-476 22 -84 22 -234 0 -319 -59 -230 -222 -401 -456 -480 -92 -31 -262 -38
-362 -16 -257 57 -460 260 -514 516 -19 88 -14 247 10 321 75 239 260 407 511
465 75 17 247 11 330 -11z m-3785 -44 c652 -80 1282 -288 1835 -606 371 -213
747 -506 1051 -816 1173 -1203 1623 -2875 1212 -4504 -264 -1049 -899 -1999
-1773 -2655 -740 -556 -1606 -881 -2527 -951 -202 -15 -684 -6 -873 16 -769
90 -1490 354 -2120 774 -1288 860 -2092 2287 -2143 3806 -8 221 0 523 17 685
44 408 157 867 307 1248 58 147 211 463 293 607 703 1226 1927 2095 3311 2349
326 59 532 75 925 71 241 -3 361 -9 485 -24z m-4471 -8286 c208 -71 383 -251
436 -451 21 -77 21 -230 0 -319 -70 -306 -342 -524 -653 -525 -387 -1 -692
300 -692 685 0 302 218 559 534 631 101 23 273 13 375 -21z m8259 2 c108 -38
176 -82 268 -172 207 -205 248 -478 112 -755 -33 -67 -58 -101 -127 -170 -128
-128 -253 -187 -417 -197 -319 -20 -607 199 -684 518 -74 309 67 602 355 741
110 53 187 68 315 64 81 -2 122 -9 178 -29z"/>
<path d="M6190 10669 c-1358 -65 -2594 -772 -3346 -1914 -376 -572 -591 -1164
-681 -1875 -13 -102 -17 -216 -17 -465 -1 -355 9 -477 60 -765 256 -1432 1206
-2632 2536 -3201 1231 -527 2676 -426 3823 267 493 298 946 719 1283 1191 441
618 716 1371 782 2143 14 162 14 572 0 725 -40 442 -152 897 -317 1285 -597
1407 -1882 2387 -3382 2580 -125 17 -536 44 -576 38 -5 0 -80 -4 -165 -9z
m345 -280 c73 -39 113 -78 183 -182 97 -144 155 -249 233 -426 82 -185 90
-197 136 -216 50 -21 84 -9 194 65 110 75 251 144 339 166 146 37 299 -5 350
-96 22 -40 25 -56 24 -150 0 -119 -16 -184 -71 -294 -105 -209 -346 -516 -629
-801 -161 -161 -205 -225 -225 -327 -21 -104 28 -158 141 -158 69 0 112 20
190 89 210 187 402 284 673 340 313 65 352 40 352 -229 0 -122 -3 -143 -29
-220 -53 -159 -118 -315 -222 -533 -57 -120 -111 -243 -120 -273 -17 -60 -22
-146 -10 -182 10 -30 61 -52 119 -52 66 0 195 36 256 73 88 51 207 178 300
317 218 326 504 660 615 717 97 50 296 93 369 79 32 -6 41 -14 61 -55 35 -68
60 -199 53 -280 -9 -119 -71 -313 -146 -466 -71 -142 -91 -208 -91 -294 0 -45
4 -52 48 -93 70 -65 138 -109 222 -143 132 -53 241 -122 404 -254 80 -64 126
-136 126 -197 0 -50 -53 -138 -138 -226 -79 -84 -127 -116 -313 -214 -174 -92
-316 -183 -363 -232 -26 -28 -28 -36 -23 -75 9 -67 41 -130 95 -190 61 -67
148 -242 193 -386 28 -92 31 -114 27 -186 -7 -104 -25 -140 -86 -168 -61 -28
-224 -30 -322 -3 -147 40 -354 158 -550 314 -121 96 -376 346 -492 482 -103
120 -153 163 -221 186 -90 30 -149 -2 -162 -90 -11 -69 10 -120 133 -326 166
-278 199 -347 223 -465 24 -119 29 -276 10 -322 -17 -41 -52 -53 -159 -53
-235 0 -506 87 -776 249 -157 94 -228 121 -275 106 -34 -11 -62 -79 -68 -166
-5 -66 -2 -91 22 -166 51 -166 122 -271 212 -316 43 -22 538 -496 629 -602 41
-49 49 -66 66 -143 10 -48 21 -141 25 -207 5 -105 4 -123 -11 -138 -25 -25
-133 -55 -248 -68 -89 -10 -114 -10 -188 5 -99 20 -244 86 -307 141 -56 48
-181 105 -231 105 -65 0 -144 -70 -158 -139 -17 -89 -109 -305 -175 -412 -24
-39 -55 -90 -69 -114 -14 -24 -34 -53 -45 -65 -80 -90 -281 -52 -342 64 -8 16
-35 53 -59 82 -61 76 -98 136 -193 313 -97 183 -157 270 -187 271 -40 0 -222
-68 -270 -103 -68 -48 -133 -79 -252 -121 -117 -41 -203 -59 -359 -77 -125
-14 -192 -5 -243 31 -67 48 -98 203 -66 330 44 171 211 399 392 536 189 142
402 419 488 635 61 151 59 211 -6 245 -48 25 -107 13 -222 -44 -138 -69 -355
-164 -446 -195 -232 -80 -527 -101 -544 -39 -29 107 10 392 84 615 32 93 92
222 140 297 17 26 38 82 49 130 53 226 34 281 -87 250 -119 -29 -217 -97 -418
-285 -187 -175 -368 -401 -476 -595 -65 -116 -128 -182 -211 -220 -105 -49
-237 -60 -308 -24 -30 15 -92 82 -112 121 -31 59 -57 166 -57 233 0 136 101
433 208 613 68 115 102 189 102 226 0 15 -14 48 -30 73 -48 73 -96 104 -255
164 -251 96 -546 297 -585 399 -20 51 44 134 215 279 136 115 318 215 460 252
135 34 282 112 304 160 16 36 5 108 -27 168 -15 26 -59 82 -99 123 -41 41 -87
95 -104 119 -84 123 -139 295 -158 500 -14 144 -8 187 33 257 39 66 77 81 169
68 142 -21 221 -68 348 -210 235 -264 678 -634 998 -834 185 -116 257 -149
313 -145 42 3 43 4 46 40 4 50 -31 116 -108 203 -145 164 -310 514 -365 773
-20 97 -19 145 4 190 42 82 91 102 247 102 78 0 121 -6 185 -24 157 -46 310
-122 396 -197 76 -66 284 -168 345 -169 17 0 31 7 38 19 15 29 12 275 -5 354
-35 168 -142 366 -253 472 -41 39 -100 102 -132 141 -62 74 -193 270 -229 341
-58 116 -85 375 -44 431 29 39 104 64 178 57 139 -12 337 -81 477 -167 122
-75 199 -115 235 -123 29 -6 35 -3 62 35 17 23 45 79 63 124 85 209 284 573
345 629 50 47 124 87 158 87 17 0 48 -10 70 -21z m-2590 -1025 c202 -52 336
-254 304 -456 -29 -180 -168 -320 -347 -349 -264 -42 -513 211 -464 472 45
243 274 394 507 333z m5135 -58 c98 -49 180 -146 215 -254 26 -82 18 -210 -18
-284 -95 -194 -323 -266 -533 -169 -84 39 -138 91 -176 169 -31 62 -33 74 -33
167 0 92 3 105 32 165 51 105 134 180 244 220 79 30 194 24 269 -14z m-39
-5069 c115 -56 207 -182 230 -315 29 -165 -65 -351 -222 -437 -50 -28 -62 -30
-154 -30 -88 0 -107 3 -158 27 -159 75 -259 246 -243 417 10 115 95 252 193
312 105 65 253 76 354 26z m-5047 -47 c75 -12 172 -57 225 -105 22 -21 55 -67
73 -103 30 -61 33 -75 33 -162 0 -86 -3 -101 -32 -162 -115 -243 -402 -321
-615 -168 -67 47 -131 139 -154 218 -24 82 -16 203 19 274 49 101 151 177 271
203 76 17 105 17 180 5z"/>
<path d="M6276 8533 c-23 -701 -121 -1118 -336 -1422 -267 -378 -674 -514
-1632 -546 l-198 -7 0 -128 0 -127 188 -7 c628 -22 1095 -132 1385 -326 88
-59 202 -176 261 -268 209 -323 307 -747 334 -1442 l7 -175 128 -3 127 -3 0
83 c1 395 62 850 149 1117 107 325 242 514 481 674 351 233 756 330 1465 350
l80 2 3 128 3 127 -63 0 c-157 1 -582 21 -711 35 -378 40 -627 111 -813 234
-105 69 -164 129 -239 245 -218 334 -327 789 -351 1469 l-7 197 -127 0 -127 0
-7 -207z m205 -1753 c133 -25 256 -122 299 -238 31 -81 25 -212 -12 -295 -31
-66 -111 -155 -174 -192 -205 -120 -471 -32 -577 193 -29 61 -32 76 -32 162 0
88 3 101 33 162 79 160 267 245 463 208z"/>
</g>
</svg>
