<?xml version="1.0" standalone="no"?>
<!DOCTYPE svg PUBLIC "-//W3C//DTD SVG 20010904//EN"
 "http://www.w3.org/TR/2001/REC-SVG-20010904/DTD/svg10.dtd">
<svg version="1.0" xmlns="http://www.w3.org/2000/svg"
 width="1280.000000pt" height="1280.000000pt" viewBox="0 0 1280.000000 1280.000000"
 preserveAspectRatio="xMidYMid meet">
<g transform="translate(0.000000,1280.000000) scale(0.100000,-0.100000)"
fill="#414141" stroke="none">
<path d="M0 12403 c0 -337 2 -395 14 -383 7 8 142 187 300 398 l286 382 -300
0 -300 0 0 -397z"/>
<path d="M1296 12405 c163 -217 300 -395 304 -395 4 0 141 178 304 395 l296
395 -600 0 -600 0 296 -395z"/>
<path d="M2896 12405 c163 -217 300 -395 304 -395 4 0 141 178 304 395 l296
395 -600 0 -600 0 296 -395z"/>
<path d="M4496 12405 c163 -217 300 -395 304 -395 4 0 141 178 304 395 l296
395 -600 0 -600 0 296 -395z"/>
<path d="M6096 12405 c163 -217 300 -395 304 -395 4 0 141 178 304 395 l296
395 -600 0 -600 0 296 -395z"/>
<path d="M7696 12405 c163 -217 300 -395 304 -395 4 0 141 178 304 395 l296
395 -600 0 -600 0 296 -395z"/>
<path d="M9296 12405 c163 -217 300 -395 304 -395 4 0 141 178 304 395 l296
395 -600 0 -600 0 296 -395z"/>
<path d="M10896 12405 c163 -217 300 -395 304 -395 4 0 141 178 304 395 l296
395 -600 0 -600 0 296 -395z"/>
<path d="M12486 12418 c158 -211 293 -390 300 -398 12 -12 14 46 14 383 l0
397 -300 0 -300 0 286 -382z"/>
<path d="M496 12395 l-296 -395 296 -395 c163 -217 300 -395 304 -395 4 0 141
178 304 395 l296 395 -296 395 c-163 217 -300 395 -304 395 -4 0 -141 -178
-304 -395z"/>
<path d="M2096 12395 l-296 -395 296 -395 c163 -217 300 -395 304 -395 4 0
141 178 304 395 l296 395 -296 395 c-163 217 -300 395 -304 395 -4 0 -141
-178 -304 -395z"/>
<path d="M3696 12395 l-296 -395 296 -395 c163 -217 300 -395 304 -395 4 0
141 178 304 395 l296 395 -296 395 c-163 217 -300 395 -304 395 -4 0 -141
-178 -304 -395z"/>
<path d="M5296 12395 l-296 -395 296 -395 c163 -217 300 -395 304 -395 4 0
141 178 304 395 l296 395 -296 395 c-163 217 -300 395 -304 395 -4 0 -141
-178 -304 -395z"/>
<path d="M6896 12395 l-296 -395 296 -395 c163 -217 300 -395 304 -395 4 0
141 178 304 395 l296 395 -296 395 c-163 217 -300 395 -304 395 -4 0 -141
-178 -304 -395z"/>
<path d="M8496 12395 l-296 -395 296 -395 c163 -217 300 -395 304 -395 4 0
141 178 304 395 l296 395 -296 395 c-163 217 -300 395 -304 395 -4 0 -141
-178 -304 -395z"/>
<path d="M10096 12395 l-296 -395 296 -395 c163 -217 300 -395 304 -395 4 0
141 178 304 395 l296 395 -296 395 c-163 217 -300 395 -304 395 -4 0 -141
-178 -304 -395z"/>
<path d="M11696 12395 l-296 -395 296 -395 c163 -217 300 -395 304 -395 4 0
141 178 304 395 l296 395 -296 395 c-163 217 -300 395 -304 395 -4 0 -141
-178 -304 -395z"/>
<path d="M0 11200 c0 -674 2 -792 14 -780 7 8 142 187 300 398 l286 382 -286
383 c-158 210 -293 389 -300 397 -12 12 -14 -106 -14 -780z"/>
<path d="M1296 11595 l-296 -395 296 -395 c163 -217 300 -395 304 -395 4 0
141 178 304 395 l296 395 -296 395 c-163 217 -300 395 -304 395 -4 0 -141
-178 -304 -395z"/>
<path d="M2896 11595 l-296 -395 296 -395 c163 -217 300 -395 304 -395 4 0
141 178 304 395 l296 395 -296 395 c-163 217 -300 395 -304 395 -4 0 -141
-178 -304 -395z"/>
<path d="M4496 11595 l-296 -395 296 -395 c163 -217 300 -395 304 -395 4 0
141 178 304 395 l296 395 -296 395 c-163 217 -300 395 -304 395 -4 0 -141
-178 -304 -395z"/>
<path d="M6096 11595 l-296 -395 296 -395 c163 -217 300 -395 304 -395 4 0
141 178 304 395 l296 395 -296 395 c-163 217 -300 395 -304 395 -4 0 -141
-178 -304 -395z"/>
<path d="M7696 11595 l-296 -395 296 -395 c163 -217 300 -395 304 -395 4 0
141 178 304 395 l296 395 -296 395 c-163 217 -300 395 -304 395 -4 0 -141
-178 -304 -395z"/>
<path d="M9296 11595 l-296 -395 296 -395 c163 -217 300 -395 304 -395 4 0
141 178 304 395 l296 395 -296 395 c-163 217 -300 395 -304 395 -4 0 -141
-178 -304 -395z"/>
<path d="M10896 11595 l-296 -395 296 -395 c163 -217 300 -395 304 -395 4 0
141 178 304 395 l296 395 -296 395 c-163 217 -300 395 -304 395 -4 0 -141
-178 -304 -395z"/>
<path d="M12497 11597 l-297 -397 297 -397 298 -396 3 396 c1 218 1 576 0 794
l-3 396 -298 -396z"/>
<path d="M496 10795 l-296 -395 296 -395 c163 -217 300 -395 304 -395 4 0 141
178 304 395 l296 395 -296 395 c-163 217 -300 395 -304 395 -4 0 -141 -178
-304 -395z"/>
<path d="M2096 10795 l-296 -395 296 -395 c163 -217 300 -395 304 -395 4 0
141 178 304 395 l296 395 -296 395 c-163 217 -300 395 -304 395 -4 0 -141
-178 -304 -395z"/>
<path d="M3696 10795 l-296 -395 296 -395 c163 -217 300 -395 304 -395 4 0
141 178 304 395 l296 395 -296 395 c-163 217 -300 395 -304 395 -4 0 -141
-178 -304 -395z"/>
<path d="M5296 10795 l-296 -395 296 -395 c163 -217 300 -395 304 -395 4 0
141 178 304 395 l296 395 -296 395 c-163 217 -300 395 -304 395 -4 0 -141
-178 -304 -395z"/>
<path d="M6896 10795 l-296 -395 296 -395 c163 -217 300 -395 304 -395 4 0
141 178 304 395 l296 395 -296 395 c-163 217 -300 395 -304 395 -4 0 -141
-178 -304 -395z"/>
<path d="M8496 10795 l-296 -395 296 -395 c163 -217 300 -395 304 -395 4 0
141 178 304 395 l296 395 -296 395 c-163 217 -300 395 -304 395 -4 0 -141
-178 -304 -395z"/>
<path d="M10096 10795 l-296 -395 296 -395 c163 -217 300 -395 304 -395 4 0
141 178 304 395 l296 395 -296 395 c-163 217 -300 395 -304 395 -4 0 -141
-178 -304 -395z"/>
<path d="M11696 10795 l-296 -395 296 -395 c163 -217 300 -395 304 -395 4 0
141 178 304 395 l296 395 -296 395 c-163 217 -300 395 -304 395 -4 0 -141
-178 -304 -395z"/>
<path d="M0 9600 c0 -674 2 -792 14 -780 7 8 142 187 300 398 l286 382 -286
383 c-158 210 -293 389 -300 397 -12 12 -14 -106 -14 -780z"/>
<path d="M1296 9995 l-296 -395 296 -395 c163 -217 300 -395 304 -395 4 0 141
178 304 395 l296 395 -296 395 c-163 217 -300 395 -304 395 -4 0 -141 -178
-304 -395z"/>
<path d="M2896 9995 l-296 -395 296 -395 c163 -217 300 -395 304 -395 4 0 141
178 304 395 l296 395 -296 395 c-163 217 -300 395 -304 395 -4 0 -141 -178
-304 -395z"/>
<path d="M4496 9995 l-296 -395 296 -395 c163 -217 300 -395 304 -395 4 0 141
178 304 395 l296 395 -296 395 c-163 217 -300 395 -304 395 -4 0 -141 -178
-304 -395z"/>
<path d="M6096 9995 l-296 -395 296 -395 c163 -217 300 -395 304 -395 4 0 141
178 304 395 l296 395 -296 395 c-163 217 -300 395 -304 395 -4 0 -141 -178
-304 -395z"/>
<path d="M7696 9995 l-296 -395 296 -395 c163 -217 300 -395 304 -395 4 0 141
178 304 395 l296 395 -296 395 c-163 217 -300 395 -304 395 -4 0 -141 -178
-304 -395z"/>
<path d="M9296 9995 l-296 -395 296 -395 c163 -217 300 -395 304 -395 4 0 141
178 304 395 l296 395 -296 395 c-163 217 -300 395 -304 395 -4 0 -141 -178
-304 -395z"/>
<path d="M10896 9995 l-296 -395 296 -395 c163 -217 300 -395 304 -395 4 0
141 178 304 395 l296 395 -296 395 c-163 217 -300 395 -304 395 -4 0 -141
-178 -304 -395z"/>
<path d="M12497 9997 l-297 -397 297 -397 298 -396 3 396 c1 218 1 576 0 794
l-3 396 -298 -396z"/>
<path d="M496 9195 l-296 -395 296 -395 c163 -217 300 -395 304 -395 4 0 141
178 304 395 l296 395 -296 395 c-163 217 -300 395 -304 395 -4 0 -141 -178
-304 -395z"/>
<path d="M2096 9195 l-296 -395 296 -395 c163 -217 300 -395 304 -395 4 0 141
178 304 395 l296 395 -296 395 c-163 217 -300 395 -304 395 -4 0 -141 -178
-304 -395z"/>
<path d="M3696 9195 l-296 -395 296 -395 c163 -217 300 -395 304 -395 4 0 141
178 304 395 l296 395 -296 395 c-163 217 -300 395 -304 395 -4 0 -141 -178
-304 -395z"/>
<path d="M5296 9195 l-296 -395 296 -395 c163 -217 300 -395 304 -395 4 0 141
178 304 395 l296 395 -296 395 c-163 217 -300 395 -304 395 -4 0 -141 -178
-304 -395z"/>
<path d="M6896 9195 l-296 -395 296 -395 c163 -217 300 -395 304 -395 4 0 141
178 304 395 l296 395 -296 395 c-163 217 -300 395 -304 395 -4 0 -141 -178
-304 -395z"/>
<path d="M8496 9195 l-296 -395 296 -395 c163 -217 300 -395 304 -395 4 0 141
178 304 395 l296 395 -296 395 c-163 217 -300 395 -304 395 -4 0 -141 -178
-304 -395z"/>
<path d="M10096 9195 l-296 -395 296 -395 c163 -217 300 -395 304 -395 4 0
141 178 304 395 l296 395 -296 395 c-163 217 -300 395 -304 395 -4 0 -141
-178 -304 -395z"/>
<path d="M11696 9195 l-296 -395 296 -395 c163 -217 300 -395 304 -395 4 0
141 178 304 395 l296 395 -296 395 c-163 217 -300 395 -304 395 -4 0 -141
-178 -304 -395z"/>
<path d="M0 8000 c0 -674 2 -792 14 -780 7 8 142 187 300 398 l286 382 -286
383 c-158 210 -293 389 -300 397 -12 12 -14 -106 -14 -780z"/>
<path d="M1296 8395 l-296 -395 296 -395 c163 -217 300 -395 304 -395 4 0 141
178 304 395 l296 395 -296 395 c-163 217 -300 395 -304 395 -4 0 -141 -178
-304 -395z"/>
<path d="M2896 8395 l-296 -395 296 -395 c163 -217 300 -395 304 -395 4 0 141
178 304 395 l296 395 -296 395 c-163 217 -300 395 -304 395 -4 0 -141 -178
-304 -395z"/>
<path d="M4496 8395 l-296 -395 296 -395 c163 -217 300 -395 304 -395 4 0 141
178 304 395 l296 395 -296 395 c-163 217 -300 395 -304 395 -4 0 -141 -178
-304 -395z"/>
<path d="M6096 8395 l-296 -395 296 -395 c163 -217 300 -395 304 -395 4 0 141
178 304 395 l296 395 -296 395 c-163 217 -300 395 -304 395 -4 0 -141 -178
-304 -395z"/>
<path d="M7696 8395 l-296 -395 296 -395 c163 -217 300 -395 304 -395 4 0 141
178 304 395 l296 395 -296 395 c-163 217 -300 395 -304 395 -4 0 -141 -178
-304 -395z"/>
<path d="M9296 8395 l-296 -395 296 -395 c163 -217 300 -395 304 -395 4 0 141
178 304 395 l296 395 -296 395 c-163 217 -300 395 -304 395 -4 0 -141 -178
-304 -395z"/>
<path d="M10896 8395 l-296 -395 296 -395 c163 -217 300 -395 304 -395 4 0
141 178 304 395 l296 395 -296 395 c-163 217 -300 395 -304 395 -4 0 -141
-178 -304 -395z"/>
<path d="M12497 8397 l-297 -397 297 -397 298 -396 3 396 c1 218 1 576 0 794
l-3 396 -298 -396z"/>
<path d="M496 7595 l-296 -395 296 -395 c163 -217 300 -395 304 -395 4 0 141
178 304 395 l296 395 -296 395 c-163 217 -300 395 -304 395 -4 0 -141 -178
-304 -395z"/>
<path d="M2096 7595 l-296 -395 296 -395 c163 -217 300 -395 304 -395 4 0 141
178 304 395 l296 395 -296 395 c-163 217 -300 395 -304 395 -4 0 -141 -178
-304 -395z"/>
<path d="M3696 7595 l-296 -395 296 -395 c163 -217 300 -395 304 -395 4 0 141
178 304 395 l296 395 -296 395 c-163 217 -300 395 -304 395 -4 0 -141 -178
-304 -395z"/>
<path d="M5296 7595 l-296 -395 296 -395 c163 -217 300 -395 304 -395 4 0 141
178 304 395 l296 395 -296 395 c-163 217 -300 395 -304 395 -4 0 -141 -178
-304 -395z"/>
<path d="M6896 7595 l-296 -395 296 -395 c163 -217 300 -395 304 -395 4 0 141
178 304 395 l296 395 -296 395 c-163 217 -300 395 -304 395 -4 0 -141 -178
-304 -395z"/>
<path d="M8496 7595 l-296 -395 296 -395 c163 -217 300 -395 304 -395 4 0 141
178 304 395 l296 395 -296 395 c-163 217 -300 395 -304 395 -4 0 -141 -178
-304 -395z"/>
<path d="M10096 7595 l-296 -395 296 -395 c163 -217 300 -395 304 -395 4 0
141 178 304 395 l296 395 -296 395 c-163 217 -300 395 -304 395 -4 0 -141
-178 -304 -395z"/>
<path d="M11696 7595 l-296 -395 296 -395 c163 -217 300 -395 304 -395 4 0
141 178 304 395 l296 395 -296 395 c-163 217 -300 395 -304 395 -4 0 -141
-178 -304 -395z"/>
<path d="M0 6400 c0 -674 2 -792 14 -780 7 8 142 187 300 398 l286 382 -286
383 c-158 210 -293 389 -300 397 -12 12 -14 -106 -14 -780z"/>
<path d="M1296 6795 l-296 -395 296 -395 c163 -217 300 -395 304 -395 4 0 141
178 304 395 l296 395 -296 395 c-163 217 -300 395 -304 395 -4 0 -141 -178
-304 -395z"/>
<path d="M2896 6795 l-296 -395 296 -395 c163 -217 300 -395 304 -395 4 0 141
178 304 395 l296 395 -296 395 c-163 217 -300 395 -304 395 -4 0 -141 -178
-304 -395z"/>
<path d="M4496 6795 l-296 -395 296 -395 c163 -217 300 -395 304 -395 4 0 141
178 304 395 l296 395 -296 395 c-163 217 -300 395 -304 395 -4 0 -141 -178
-304 -395z"/>
<path d="M6096 6795 l-296 -395 296 -395 c163 -217 300 -395 304 -395 4 0 141
178 304 395 l296 395 -296 395 c-163 217 -300 395 -304 395 -4 0 -141 -178
-304 -395z"/>
<path d="M7696 6795 l-296 -395 296 -395 c163 -217 300 -395 304 -395 4 0 141
178 304 395 l296 395 -296 395 c-163 217 -300 395 -304 395 -4 0 -141 -178
-304 -395z"/>
<path d="M9296 6795 l-296 -395 296 -395 c163 -217 300 -395 304 -395 4 0 141
178 304 395 l296 395 -296 395 c-163 217 -300 395 -304 395 -4 0 -141 -178
-304 -395z"/>
<path d="M10896 6795 l-296 -395 296 -395 c163 -217 300 -395 304 -395 4 0
141 178 304 395 l296 395 -296 395 c-163 217 -300 395 -304 395 -4 0 -141
-178 -304 -395z"/>
<path d="M12497 6797 l-297 -397 297 -397 298 -396 3 396 c1 218 1 576 0 794
l-3 396 -298 -396z"/>
<path d="M496 5995 l-296 -395 296 -395 c163 -217 300 -395 304 -395 4 0 141
178 304 395 l296 395 -296 395 c-163 217 -300 395 -304 395 -4 0 -141 -178
-304 -395z"/>
<path d="M2096 5995 l-296 -395 296 -395 c163 -217 300 -395 304 -395 4 0 141
178 304 395 l296 395 -296 395 c-163 217 -300 395 -304 395 -4 0 -141 -178
-304 -395z"/>
<path d="M3696 5995 l-296 -395 296 -395 c163 -217 300 -395 304 -395 4 0 141
178 304 395 l296 395 -296 395 c-163 217 -300 395 -304 395 -4 0 -141 -178
-304 -395z"/>
<path d="M5296 5995 l-296 -395 296 -395 c163 -217 300 -395 304 -395 4 0 141
178 304 395 l296 395 -296 395 c-163 217 -300 395 -304 395 -4 0 -141 -178
-304 -395z"/>
<path d="M6896 5995 l-296 -395 296 -395 c163 -217 300 -395 304 -395 4 0 141
178 304 395 l296 395 -296 395 c-163 217 -300 395 -304 395 -4 0 -141 -178
-304 -395z"/>
<path d="M8496 5995 l-296 -395 296 -395 c163 -217 300 -395 304 -395 4 0 141
178 304 395 l296 395 -296 395 c-163 217 -300 395 -304 395 -4 0 -141 -178
-304 -395z"/>
<path d="M10096 5995 l-296 -395 296 -395 c163 -217 300 -395 304 -395 4 0
141 178 304 395 l296 395 -296 395 c-163 217 -300 395 -304 395 -4 0 -141
-178 -304 -395z"/>
<path d="M11696 5995 l-296 -395 296 -395 c163 -217 300 -395 304 -395 4 0
141 178 304 395 l296 395 -296 395 c-163 217 -300 395 -304 395 -4 0 -141
-178 -304 -395z"/>
<path d="M0 4800 c0 -674 2 -792 14 -780 7 8 142 187 300 398 l286 382 -286
383 c-158 210 -293 389 -300 397 -12 12 -14 -106 -14 -780z"/>
<path d="M1296 5195 l-296 -395 296 -395 c163 -217 300 -395 304 -395 4 0 141
178 304 395 l296 395 -296 395 c-163 217 -300 395 -304 395 -4 0 -141 -178
-304 -395z"/>
<path d="M2896 5195 l-296 -395 296 -395 c163 -217 300 -395 304 -395 4 0 141
178 304 395 l296 395 -296 395 c-163 217 -300 395 -304 395 -4 0 -141 -178
-304 -395z"/>
<path d="M4496 5195 l-296 -395 296 -395 c163 -217 300 -395 304 -395 4 0 141
178 304 395 l296 395 -296 395 c-163 217 -300 395 -304 395 -4 0 -141 -178
-304 -395z"/>
<path d="M6096 5195 l-296 -395 296 -395 c163 -217 300 -395 304 -395 4 0 141
178 304 395 l296 395 -296 395 c-163 217 -300 395 -304 395 -4 0 -141 -178
-304 -395z"/>
<path d="M7696 5195 l-296 -395 296 -395 c163 -217 300 -395 304 -395 4 0 141
178 304 395 l296 395 -296 395 c-163 217 -300 395 -304 395 -4 0 -141 -178
-304 -395z"/>
<path d="M9296 5195 l-296 -395 296 -395 c163 -217 300 -395 304 -395 4 0 141
178 304 395 l296 395 -296 395 c-163 217 -300 395 -304 395 -4 0 -141 -178
-304 -395z"/>
<path d="M10896 5195 l-296 -395 296 -395 c163 -217 300 -395 304 -395 4 0
141 178 304 395 l296 395 -296 395 c-163 217 -300 395 -304 395 -4 0 -141
-178 -304 -395z"/>
<path d="M12497 5197 l-297 -397 297 -397 298 -396 3 396 c1 218 1 576 0 794
l-3 396 -298 -396z"/>
<path d="M496 4395 l-296 -395 296 -395 c163 -217 300 -395 304 -395 4 0 141
178 304 395 l296 395 -296 395 c-163 217 -300 395 -304 395 -4 0 -141 -178
-304 -395z"/>
<path d="M2096 4395 l-296 -395 296 -395 c163 -217 300 -395 304 -395 4 0 141
178 304 395 l296 395 -296 395 c-163 217 -300 395 -304 395 -4 0 -141 -178
-304 -395z"/>
<path d="M3696 4395 l-296 -395 296 -395 c163 -217 300 -395 304 -395 4 0 141
178 304 395 l296 395 -296 395 c-163 217 -300 395 -304 395 -4 0 -141 -178
-304 -395z"/>
<path d="M5296 4395 l-296 -395 296 -395 c163 -217 300 -395 304 -395 4 0 141
178 304 395 l296 395 -296 395 c-163 217 -300 395 -304 395 -4 0 -141 -178
-304 -395z"/>
<path d="M6896 4395 l-296 -395 296 -395 c163 -217 300 -395 304 -395 4 0 141
178 304 395 l296 395 -296 395 c-163 217 -300 395 -304 395 -4 0 -141 -178
-304 -395z"/>
<path d="M8496 4395 l-296 -395 296 -395 c163 -217 300 -395 304 -395 4 0 141
178 304 395 l296 395 -296 395 c-163 217 -300 395 -304 395 -4 0 -141 -178
-304 -395z"/>
<path d="M10096 4395 l-296 -395 296 -395 c163 -217 300 -395 304 -395 4 0
141 178 304 395 l296 395 -296 395 c-163 217 -300 395 -304 395 -4 0 -141
-178 -304 -395z"/>
<path d="M11696 4395 l-296 -395 296 -395 c163 -217 300 -395 304 -395 4 0
141 178 304 395 l296 395 -296 395 c-163 217 -300 395 -304 395 -4 0 -141
-178 -304 -395z"/>
<path d="M0 3200 c0 -674 2 -792 14 -780 7 8 142 187 300 398 l286 382 -286
383 c-158 210 -293 389 -300 397 -12 12 -14 -106 -14 -780z"/>
<path d="M1296 3595 l-296 -395 296 -395 c163 -217 300 -395 304 -395 4 0 141
178 304 395 l296 395 -296 395 c-163 217 -300 395 -304 395 -4 0 -141 -178
-304 -395z"/>
<path d="M2896 3595 l-296 -395 296 -395 c163 -217 300 -395 304 -395 4 0 141
178 304 395 l296 395 -296 395 c-163 217 -300 395 -304 395 -4 0 -141 -178
-304 -395z"/>
<path d="M4496 3595 l-296 -395 296 -395 c163 -217 300 -395 304 -395 4 0 141
178 304 395 l296 395 -296 395 c-163 217 -300 395 -304 395 -4 0 -141 -178
-304 -395z"/>
<path d="M6096 3595 l-296 -395 296 -395 c163 -217 300 -395 304 -395 4 0 141
178 304 395 l296 395 -296 395 c-163 217 -300 395 -304 395 -4 0 -141 -178
-304 -395z"/>
<path d="M7696 3595 l-296 -395 296 -395 c163 -217 300 -395 304 -395 4 0 141
178 304 395 l296 395 -296 395 c-163 217 -300 395 -304 395 -4 0 -141 -178
-304 -395z"/>
<path d="M9296 3595 l-296 -395 296 -395 c163 -217 300 -395 304 -395 4 0 141
178 304 395 l296 395 -296 395 c-163 217 -300 395 -304 395 -4 0 -141 -178
-304 -395z"/>
<path d="M10896 3595 l-296 -395 296 -395 c163 -217 300 -395 304 -395 4 0
141 178 304 395 l296 395 -296 395 c-163 217 -300 395 -304 395 -4 0 -141
-178 -304 -395z"/>
<path d="M12497 3597 l-297 -397 297 -397 298 -396 3 396 c1 218 1 576 0 794
l-3 396 -298 -396z"/>
<path d="M496 2795 l-296 -395 296 -395 c163 -217 300 -395 304 -395 4 0 141
178 304 395 l296 395 -296 395 c-163 217 -300 395 -304 395 -4 0 -141 -178
-304 -395z"/>
<path d="M2096 2795 l-296 -395 296 -395 c163 -217 300 -395 304 -395 4 0 141
178 304 395 l296 395 -296 395 c-163 217 -300 395 -304 395 -4 0 -141 -178
-304 -395z"/>
<path d="M3696 2795 l-296 -395 296 -395 c163 -217 300 -395 304 -395 4 0 141
178 304 395 l296 395 -296 395 c-163 217 -300 395 -304 395 -4 0 -141 -178
-304 -395z"/>
<path d="M5296 2795 l-296 -395 296 -395 c163 -217 300 -395 304 -395 4 0 141
178 304 395 l296 395 -296 395 c-163 217 -300 395 -304 395 -4 0 -141 -178
-304 -395z"/>
<path d="M6896 2795 l-296 -395 296 -395 c163 -217 300 -395 304 -395 4 0 141
178 304 395 l296 395 -296 395 c-163 217 -300 395 -304 395 -4 0 -141 -178
-304 -395z"/>
<path d="M8496 2795 l-296 -395 296 -395 c163 -217 300 -395 304 -395 4 0 141
178 304 395 l296 395 -296 395 c-163 217 -300 395 -304 395 -4 0 -141 -178
-304 -395z"/>
<path d="M10096 2795 l-296 -395 296 -395 c163 -217 300 -395 304 -395 4 0
141 178 304 395 l296 395 -296 395 c-163 217 -300 395 -304 395 -4 0 -141
-178 -304 -395z"/>
<path d="M11696 2795 l-296 -395 296 -395 c163 -217 300 -395 304 -395 4 0
141 178 304 395 l296 395 -296 395 c-163 217 -300 395 -304 395 -4 0 -141
-178 -304 -395z"/>
<path d="M0 1600 c0 -674 2 -792 14 -780 7 8 142 187 300 397 l286 383 -286
383 c-158 210 -293 389 -300 397 -12 12 -14 -106 -14 -780z"/>
<path d="M1296 1995 l-296 -395 296 -395 c163 -217 300 -395 304 -395 4 0 141
178 304 395 l296 395 -296 395 c-163 217 -300 395 -304 395 -4 0 -141 -178
-304 -395z"/>
<path d="M2896 1995 l-296 -395 296 -395 c163 -217 300 -395 304 -395 4 0 141
178 304 395 l296 395 -296 395 c-163 217 -300 395 -304 395 -4 0 -141 -178
-304 -395z"/>
<path d="M4496 1995 l-296 -395 296 -395 c163 -217 300 -395 304 -395 4 0 141
178 304 395 l296 395 -296 395 c-163 217 -300 395 -304 395 -4 0 -141 -178
-304 -395z"/>
<path d="M6096 1995 l-296 -395 296 -395 c163 -217 300 -395 304 -395 4 0 141
178 304 395 l296 395 -296 395 c-163 217 -300 395 -304 395 -4 0 -141 -178
-304 -395z"/>
<path d="M7696 1995 l-296 -395 296 -395 c163 -217 300 -395 304 -395 4 0 141
178 304 395 l296 395 -296 395 c-163 217 -300 395 -304 395 -4 0 -141 -178
-304 -395z"/>
<path d="M9296 1995 l-296 -395 296 -395 c163 -217 300 -395 304 -395 4 0 141
178 304 395 l296 395 -296 395 c-163 217 -300 395 -304 395 -4 0 -141 -178
-304 -395z"/>
<path d="M10896 1995 l-296 -395 296 -395 c163 -217 300 -395 304 -395 4 0
141 178 304 395 l296 395 -296 395 c-163 217 -300 395 -304 395 -4 0 -141
-178 -304 -395z"/>
<path d="M12497 1997 l-297 -397 297 -397 298 -396 3 396 c1 218 1 576 0 794
l-3 396 -298 -396z"/>
<path d="M496 1195 l-296 -395 296 -395 c163 -217 300 -395 304 -395 4 0 141
178 304 395 l296 395 -296 395 c-163 217 -300 395 -304 395 -4 0 -141 -178
-304 -395z"/>
<path d="M2096 1195 l-296 -395 296 -395 c163 -217 300 -395 304 -395 4 0 141
178 304 395 l296 395 -296 395 c-163 217 -300 395 -304 395 -4 0 -141 -178
-304 -395z"/>
<path d="M3696 1195 l-296 -395 296 -395 c163 -217 300 -395 304 -395 4 0 141
178 304 395 l296 395 -296 395 c-163 217 -300 395 -304 395 -4 0 -141 -178
-304 -395z"/>
<path d="M5296 1195 l-296 -395 296 -395 c163 -217 300 -395 304 -395 4 0 141
178 304 395 l296 395 -296 395 c-163 217 -300 395 -304 395 -4 0 -141 -178
-304 -395z"/>
<path d="M6896 1195 l-296 -395 296 -395 c163 -217 300 -395 304 -395 4 0 141
178 304 395 l296 395 -296 395 c-163 217 -300 395 -304 395 -4 0 -141 -178
-304 -395z"/>
<path d="M8496 1195 l-296 -395 296 -395 c163 -217 300 -395 304 -395 4 0 141
178 304 395 l296 395 -296 395 c-163 217 -300 395 -304 395 -4 0 -141 -178
-304 -395z"/>
<path d="M10096 1195 l-296 -395 296 -395 c163 -217 300 -395 304 -395 4 0
141 178 304 395 l296 395 -296 395 c-163 217 -300 395 -304 395 -4 0 -141
-178 -304 -395z"/>
<path d="M11696 1195 l-296 -395 296 -395 c163 -217 300 -395 304 -395 4 0
141 178 304 395 l296 395 -296 395 c-163 217 -300 395 -304 395 -4 0 -141
-178 -304 -395z"/>
<path d="M0 397 l0 -397 300 0 300 0 -286 383 c-158 210 -293 389 -300 397
-12 12 -14 -46 -14 -383z"/>
<path d="M1296 395 l-296 -395 600 0 600 0 -296 395 c-163 217 -300 395 -304
395 -4 0 -141 -178 -304 -395z"/>
<path d="M2896 395 l-296 -395 600 0 600 0 -296 395 c-163 217 -300 395 -304
395 -4 0 -141 -178 -304 -395z"/>
<path d="M4496 395 l-296 -395 600 0 600 0 -296 395 c-163 217 -300 395 -304
395 -4 0 -141 -178 -304 -395z"/>
<path d="M6096 395 l-296 -395 600 0 600 0 -296 395 c-163 217 -300 395 -304
395 -4 0 -141 -178 -304 -395z"/>
<path d="M7696 395 l-296 -395 600 0 600 0 -296 395 c-163 217 -300 395 -304
395 -4 0 -141 -178 -304 -395z"/>
<path d="M9296 395 l-296 -395 600 0 600 0 -296 395 c-163 217 -300 395 -304
395 -4 0 -141 -178 -304 -395z"/>
<path d="M10896 395 l-296 -395 600 0 600 0 -296 395 c-163 217 -300 395 -304
395 -4 0 -141 -178 -304 -395z"/>
<path d="M12496 395 l-296 -395 300 0 300 0 0 395 c0 217 -2 395 -4 395 -2 0
-137 -178 -300 -395z"/>
</g>
</svg>
